<?xml version="1.0" encoding="UTF-8" standalone="no"?>
<!-- Created with Inkscape (http://www.inkscape.org/) -->

<svg
   width="1366"
   height="768"
   viewBox="0 0 1366 768"
   version="1.1"
   id="svg5"
   inkscape:version="1.1.1 (3bf5ae0d25, 2021-09-20)"
   sodipodi:docname="no-bloatware.svg"
   inkscape:export-filename="/home/david/Imagenes/slider branding/slider-png/no-bloatware.png"
   inkscape:export-xdpi="96"
   inkscape:export-ydpi="96"
   xmlns:inkscape="http://www.inkscape.org/namespaces/inkscape"
   xmlns:sodipodi="http://sodipodi.sourceforge.net/DTD/sodipodi-0.dtd"
   xmlns:xlink="http://www.w3.org/1999/xlink"
   xmlns="http://www.w3.org/2000/svg"
   xmlns:svg="http://www.w3.org/2000/svg">
  <sodipodi:namedview
     id="namedview7"
     pagecolor="#505050"
     bordercolor="#ffffff"
     borderopacity="1"
     inkscape:pageshadow="0"
     inkscape:pageopacity="0"
     inkscape:pagecheckerboard="1"
     inkscape:document-units="px"
     showgrid="false"
     inkscape:zoom="0.36141013"
     inkscape:cx="344.48398"
     inkscape:cy="496.66566"
     inkscape:window-width="1366"
     inkscape:window-height="705"
     inkscape:window-x="0"
     inkscape:window-y="0"
     inkscape:window-maximized="1"
     inkscape:current-layer="layer3" />
  <defs
     id="defs2">
    <rect
       x="1073.1335"
       y="2221.4326"
       width="3979.5845"
       height="61.727207"
       id="rect19301" />
    <rect
       x="19.741972"
       y="805.58838"
       width="514.07416"
       height="143.12833"
       id="rect4275" />
    <rect
       x="113.37866"
       y="767.79144"
       width="1435.1198"
       height="460.42761"
       id="rect4384" />
    <linearGradient
       id="linearGradient892"
       x1="-197.72"
       x2="-197.72"
       y1="263.85999"
       y2="273.76001"
       gradientTransform="matrix(0.18709,-0.18709,0.18709,0.18709,1.1192,-74.45)"
       gradientUnits="userSpaceOnUse">
      <stop
         offset="0"
         id="stop26961" />
      <stop
         stop-opacity="0"
         offset="1"
         id="stop26963" />
    </linearGradient>
    <linearGradient
       id="a"
       x1="47"
       x2="59.998001"
       y1="41"
       y2="53.978001"
       gradientTransform="matrix(6.3041821,0,0,6.3041821,799.69559,25.700927)"
       gradientUnits="userSpaceOnUse">
      <stop
         offset="0"
         id="stop30428" />
      <stop
         stop-color="#242424"
         stop-opacity="0"
         offset="1"
         id="stop30430" />
    </linearGradient>
    <linearGradient
       id="a-4"
       x1="-197.10001"
       x2="-196.91"
       y1="217.67999"
       y2="219.37"
       gradientTransform="rotate(-45,-338.07,-140.03)"
       gradientUnits="userSpaceOnUse">
      <stop
         offset="0"
         id="stop45330" />
      <stop
         stop-opacity="0"
         offset="1"
         id="stop45332" />
    </linearGradient>
    <linearGradient
       id="a-8"
       x1="49.570999"
       x2="51.714001"
       y1="52.714001"
       y2="54.856998"
       gradientTransform="matrix(2.3333,0,0,2.3333,-68.667,-72.001)"
       gradientUnits="userSpaceOnUse">
      <stop
         offset="0"
         id="stop52130" />
      <stop
         stop-opacity="0"
         offset="1"
         id="stop52132" />
    </linearGradient>
    <linearGradient
       id="a-9"
       x1="135"
       x2="160"
       y1="120"
       y2="160"
       gradientTransform="matrix(0.05623,0,0,0.05623,0.071601,-0.05278)"
       gradientUnits="userSpaceOnUse">
      <stop
         stop-color="#eff7fc"
         offset="0"
         id="stop5990" />
      <stop
         stop-color="#fff"
         offset="1"
         id="stop5992" />
    </linearGradient>
    <linearGradient
       id="b">
      <stop
         stop-color="#2f5da4"
         offset="0"
         id="stop8105" />
      <stop
         stop-color="#5584cd"
         offset="1"
         id="stop8107" />
    </linearGradient>
    <linearGradient
       id="a-2">
      <stop
         stop-color="#4a7ae1"
         offset="0"
         id="stop8110" />
      <stop
         stop-color="#7fa1ea"
         offset="1"
         id="stop8112" />
    </linearGradient>
    <linearGradient
       id="g"
       x1="49.575001"
       x2="53.666"
       y1="23.917"
       y2="41.292"
       gradientUnits="userSpaceOnUse"
       xlink:href="#a-2" />
    <linearGradient
       id="f"
       x1="53.666"
       x2="45.945"
       y1="41.292"
       y2="56.736"
       gradientUnits="userSpaceOnUse"
       xlink:href="#a-2" />
    <linearGradient
       id="e"
       x1="46.554001"
       x2="50.811001"
       y1="17.290001"
       y2="34.688999"
       gradientUnits="userSpaceOnUse"
       xlink:href="#a-2" />
    <linearGradient
       id="d"
       x1="8.9794998"
       x2="7.3793998"
       y1="23.309999"
       y2="35.294998"
       gradientUnits="userSpaceOnUse"
       xlink:href="#b" />
    <linearGradient
       id="c"
       x1="6.1016998"
       x2="9.3558998"
       y1="35.525002"
       y2="55.050999"
       gradientUnits="userSpaceOnUse"
       xlink:href="#b" />
    <linearGradient
       id="a-1"
       x1="49.570999"
       x2="51.714001"
       y1="52.714001"
       y2="54.856998"
       gradientTransform="matrix(2.3333,0,0,2.3333,-68.667,-72.001)"
       gradientUnits="userSpaceOnUse">
      <stop
         offset="0"
         id="stop39095" />
      <stop
         stop-opacity="0"
         offset="1"
         id="stop39097" />
    </linearGradient>
    <path
       id="c-4"
       d="M 0.735,43.06 24,0.71 47.09,43.02 c 0,0 -2.212,-0.155 -5.272,-0.291 C 38.967,42.602 40.024,42.843 33.54,41.64 28.629,40.73 25.018,38.775 18.287,38.913 10.834,39.066 0.738,43.062 0.738,43.062" />
    <linearGradient
       id="d-6"
       x1="34.601002"
       x2="34.601002"
       y1="50.400002"
       y2="45.085999"
       gradientUnits="userSpaceOnUse">
      <stop
         offset="0"
         id="stop43405" />
      <stop
         stop-opacity="0"
         offset="1"
         id="stop43407" />
    </linearGradient>
    <linearGradient
       id="a-0"
       x1="47"
       x2="59.998001"
       y1="41"
       y2="53.978001"
       gradientTransform="scale(0.26458)"
       gradientUnits="userSpaceOnUse">
      <stop
         offset="0"
         id="stop5150" />
      <stop
         stop-color="#242424"
         stop-opacity="0"
         offset="1"
         id="stop5152" />
    </linearGradient>
    <linearGradient
       id="a-3"
       x1="47"
       x2="59.998001"
       y1="41"
       y2="53.978001"
       gradientTransform="matrix(0.26458,0,0,0.26458,-0.004,0.27)"
       gradientUnits="userSpaceOnUse">
      <stop
         offset="0"
         id="stop1055" />
      <stop
         stop-color="#242424"
         stop-opacity="0"
         offset="1"
         id="stop1057" />
    </linearGradient>
  </defs>
  <g
     inkscape:label="Capa 1"
     inkscape:groupmode="layer"
     id="layer1"
     sodipodi:insensitive="true">
    <rect
       style="opacity:0.7;fill:#000000;fill-opacity:1;fill-rule:evenodd;stroke:#0a0a0a;stroke-width:0;stroke-linejoin:round;stroke-miterlimit:4;stroke-dasharray:none;stroke-opacity:1"
       id="rect846"
       width="1370"
       height="770"
       x="-0.99999952"
       y="-0.99999952"
       ry="1.1100893" />
  </g>
  <g
     inkscape:groupmode="layer"
     id="layer2"
     inkscape:label="Capa 2"
     sodipodi:insensitive="true">
    <g
       id="g2264"
       transform="matrix(15.274663,0,0,15.274663,191.9197,3.6921267)">
      <g
         transform="translate(0,-280.07)"
         id="g2247">
        <path
           d="m 3.44,282.448 c -0.294,0 -0.395,0.269 -0.53,0.53 H 2.117 a 0.528,0.528 0 0 0 -0.53,0.528 v 5.292 c 0,0.293 0.237,0.53 0.53,0.53 h 12.7 c 0.293,0 0.529,-0.237 0.529,-0.53 v -5.292 a 0.528,0.528 0 0 0 -0.53,-0.529 H 7.674 c -0.155,-0.249 -0.236,-0.53 -0.53,-0.53 z"
           fill="#66bb6a"
           paint-order="markers stroke fill"
           id="path2233" />
        <path
           d="m 3.44,282.448 c -0.294,0 -0.395,0.269 -0.53,0.53 H 2.117 a 0.528,0.528 0 0 0 -0.53,0.528 v 5.292 c 0,0.293 0.237,0.53 0.53,0.53 h 12.7 c 0.293,0 0.529,-0.237 0.529,-0.53 v -5.292 a 0.528,0.528 0 0 0 -0.53,-0.529 H 7.674 c -0.155,-0.249 -0.236,-0.53 -0.53,-0.53 z"
           opacity="0.18"
           paint-order="markers stroke fill"
           id="path2235" />
        <rect
           x="2.381"
           y="283.76999"
           width="12.171"
           height="5.027"
           ry="0.26499999"
           fill="#ffffff"
           paint-order="markers stroke fill"
           id="rect2237" />
        <rect
           x="0.52899998"
           y="285.35999"
           width="15.875"
           height="9.5249996"
           ry="0.52899998"
           fill="#66bb6a"
           paint-order="markers stroke fill"
           id="rect2239" />
        <path
           d="m 8.467,284.3 h 7.408 c 0.293,0 0.53,0.236 0.53,0.53 v 3.968 c 0,0.293 -0.237,0.529 -0.53,0.529 H 6.152 c -0.294,0 -0.677,-0.276 -0.53,-0.53 l 2.316,-3.968 C 8.085,284.576 8.174,284.3 8.467,284.3 Z"
           fill="#66bb6a"
           paint-order="markers stroke fill"
           id="path2241" />
        <rect
           x="3.704"
           y="282.70999"
           width="3.175"
           height="0.52899998"
           ry="0.26499999"
           opacity="0.25"
           paint-order="stroke markers fill"
           id="rect2243" />
        <path
           d="m 8.467,288.004 -2.117,2.117 h 0.794 v 1.587 c 0,0.147 0.118,0.265 0.264,0.265 h 0.53 v -1.058 h 1.058 v 1.058 h 0.529 a 0.264,0.264 0 0 0 0.265,-0.265 v -1.587 h 0.793 z m 0,1.323 a 0.53,0.53 0 1 1 0,1.058 0.53,0.53 0 0 1 0,-1.058 z"
           fill="#ffffff"
           paint-order="stroke markers fill"
           id="path2245" />
      </g>
      <path
         d="m 16.404,11.641 -3.1744,3.1749 h 2.6458 c 0.29307,0 0.52864,-0.23557 0.52864,-0.52864 z"
         fill="url(#a)"
         opacity="0.1"
         style="fill:url(#a-4);paint-order:stroke markers fill"
         id="path2249" />
    </g>
    <g
       transform="matrix(13.809139,0,0,13.809139,458.08495,-3849.3992)"
       paint-order="stroke markers fill"
       id="g2453">
      <path
         d="m 1.587,288.533 v 6.35 c 0,0.293 0.237,0.53 0.53,0.53 h 6.35 v -6.88 z"
         fill="#e5e5e5"
         id="path2437" />
      <path
         d="m 2.117,281.654 a 0.528,0.528 0 0 0 -0.53,0.53 v 6.35 h 6.88 v -6.88 z"
         fill="#f9f9f9"
         id="path2439" />
      <path
         d="m 8.467,281.654 v 13.759 h 6.35 c 0.293,0 0.529,-0.237 0.529,-0.53 v -12.7 a 0.528,0.528 0 0 0 -0.53,-0.529 h -6.35 z"
         fill="#d96b5f"
         id="path2441" />
      <rect
         x="3.704"
         y="285.09"
         width="3.175"
         height="0.52899998"
         ry="0"
         fill="#787878"
         id="rect2443" />
      <rect
         transform="rotate(90)"
         x="283.76999"
         y="-5.5560002"
         width="3.175"
         height="0.52899998"
         ry="0"
         fill="#787878"
         id="rect2445" />
      <rect
         x="10.319"
         y="287.48001"
         width="3.175"
         height="0.52899998"
         ry="0"
         fill="#ffffff"
         id="rect2447" />
      <rect
         x="10.319"
         y="289.06"
         width="3.175"
         height="0.52899998"
         ry="0"
         fill="#ffffff"
         id="rect2449" />
      <rect
         x="3.704"
         y="291.70999"
         width="3.175"
         height="0.52899998"
         ry="0"
         fill="#787878"
         id="rect2451" />
    </g>
    <g
       id="g5297"
       transform="matrix(15.610879,0,0,15.610879,679.34837,2.8273738)">
      <rect
         x="1.3229001"
         y="2.3812001"
         width="14.287"
         height="12.171"
         rx="1.5875"
         ry="1.5875"
         fill="#62acf3"
         stroke-linecap="square"
         stroke-width="0.55378"
         style="paint-order:stroke fill markers"
         id="rect5279" />
      <path
         d="M 2.5078,6.8222 A 11.636,11.636 0 0 0 1.3229,6.895579 v 6.0688 c 0,0.87946 0.70801,1.5875 1.5875,1.5875 h 10.545 a 11.636,11.636 0 0 0 -10.948,-7.7296 z"
         fill="#ffffff"
         opacity="0.25"
         stroke-width="0.3221"
         style="paint-order:stroke markers fill"
         id="path5281" />
      <path
         d="m 15.61,9.1471 a 11.636,11.636 0 0 0 -8.0743,5.4047 h 6.4868 c 0.87946,0 1.5875,-0.70801 1.5875,-1.5875 z"
         fill="#ffffff"
         opacity="0.15"
         stroke-width="0.3221"
         style="paint-order:stroke markers fill"
         id="path5283" />
      <circle
         cx="12.303"
         cy="5.6886001"
         r="1.455"
         fill="#ffdb8a"
         stroke-width="1.0998"
         style="paint-order:stroke markers fill"
         id="circle5285" />
    </g>
    <g
       id="g5808"
       transform="matrix(12.823247,0,0,12.823247,689.28619,246.42916)">
      <path
         d="m 5.2916,1.0583 h 6.3499 l 3.1749,3.1749 v 8.4665 c 0,1.1726 -0.94402,2.1166 -2.1166,2.1166 H 5.2916 C 4.119,14.8163 3.175,13.87228 3.175,12.6997 V 3.1749 c 0,-1.1726 0.94401,-2.1166 2.1166,-2.1166 z"
         fill="#f2f2f2"
         stroke-linecap="square"
         stroke-width="0.5336"
         style="paint-order:fill markers stroke"
         id="path5787" />
      <path
         d="M 14.816,4.2332 11.6411,1.0583 v 1.852 c 0,0.73288 0.59001,1.3229 1.3229,1.3229 z"
         fill="#cccccc"
         fill-rule="evenodd"
         style="paint-order:stroke fill markers"
         id="path5789" />
      <g
         transform="translate(-1.0583,-0.52916)"
         id="g5795">
        <circle
           cx="12.7"
           cy="12.171"
           r="4.2333002"
           fill="#32a3d7"
           stroke-width="0.52916"
           id="circle5791" />
        <path
           d="m 10.583,13.344 v 0.94296 h 0.9429 l 2.3814,-2.3814 -0.9429,-0.9429 z m 4.1584,-2.2696 c 0.09973,-0.09973 0.09973,-0.25688 0,-0.35661 l -0.58932,-0.58932 c -0.09974,-0.09973 -0.25688,-0.09973 -0.35662,0 l -0.49264,0.49582 0.94296,0.94296 z"
           fill="#ffffff"
           stroke-width="0.26458"
           id="path5793" />
      </g>
    </g>
    <g
       id="g13342"
       transform="matrix(13.810146,0,0,13.810146,460.76392,238.18005)">
      <g
         transform="translate(-1.0589e-8,-280.07)"
         paint-order="markers stroke fill"
         id="g13328">
        <rect
           x="2.1170001"
           y="281.64999"
           width="12.7"
           height="13.758"
           rx="2.1171999"
           ry="2.1171999"
           fill="#3f51b5"
           id="rect13324" />
        <path
           transform="matrix(0.26458,0,0,0.26458,0,280.07)"
           d="m 16,10 c -2.216,0 -4,1.784 -4,4 v 36 c 0,2.216 1.784,4 4,4 h 32 c 2.216,0 4,-1.784 4,-4 V 26 L 36,10 Z M 41.998,10 52,19.998 V 14 c 0,-2.216 -1.784,-4 -4,-4 z"
           fill="#ffffff"
           stroke-width="3.7796"
           id="path13326" />
      </g>
      <path
         d="m 5.292,12.171 v -0.53 H 9.79 v 0.53 z m 0,-1.323 v -0.53 h 6.35 v 0.53 z m 0,-1.323 v -0.53 h 6.35 v 0.53 z m 0,-1.323 v -0.53 h 6.35 v 0.53 z"
         fill="#cccccc"
         id="path13330" />
    </g>
    <g
       transform="matrix(13.298617,0,0,13.298617,952.40726,-3482.0499)"
       paint-order="stroke markers fill"
       id="g13416">
      <circle
         cx="8.4665003"
         cy="288.53"
         r="7.1436"
         fill="#71a5e8"
         id="circle13406" />
      <circle
         cx="8.4665003"
         cy="288.54001"
         r="3.1749001"
         opacity="0.15"
         id="circle13408" />
      <circle
         cx="8.4665003"
         cy="288.54001"
         r="1.852"
         fill="#71a5e8"
         id="circle13410" />
      <path
         d="m 4.4978,284.57 4.4982,3.4362 -1.059,1.058 z"
         fill="#ffffff"
         id="path13412" />
      <path
         d="m 12.435,292.51 -4.4982,-3.4402 1.059,-1.059 z"
         fill="#e6e6e6"
         id="path13414" />
    </g>
    <g
       id="g15917"
       transform="matrix(17.098631,0,0,17.098631,172.85592,210.23615)">
      <rect
         x="1.5875"
         y="2.9103999"
         width="13.758"
         height="11.112"
         rx="1.5878"
         ry="1.5880001"
         fill="#fc6663"
         stroke-linecap="round"
         stroke-linejoin="round"
         stroke-width="0.52914"
         id="rect15899" />
      <path
         d="M 15.346,5.2926 2.162,13.6583 c 0.26979,0.22365 0.6155,0.35901 0.99372,0.3638 h 10.623 c 0.87003,-0.01102 1.5673,-0.71465 1.5673,-1.5875 z"
         fill="#ffffff"
         opacity="0.15"
         style="paint-order:stroke markers fill"
         id="path15901" />
      <path
         d="m 3.1755,2.9104 c -0.38617,0 -0.73921,0.13674 -1.0139,0.36431 l 13.184,8.3668 v -7.1431 c 0,-0.87974 -0.70833,-1.588 -1.588,-1.588 z"
         fill="#000000"
         opacity="0.08"
         style="paint-order:stroke markers fill"
         id="path15903" />
      <path
         d="M 10.319,8.467 6.085,11.112 V 5.821 Z"
         fill="#ffffff"
         style="paint-order:stroke markers fill"
         id="path15905" />
    </g>
    <g
       id="g1081"
       transform="matrix(15.610878,0,0,15.610878,933.48369,2.8304988)">
      <rect
         x="1.058"
         y="2.381"
         width="14.816"
         height="12.171"
         rx="1.372"
         ry="1.323"
         fill="#72787e"
         id="rect1062" />
      <rect
         x="5.2919998"
         y="8.9899998"
         width="4.2329998"
         height="0.52899998"
         ry="0.26499999"
         fill="#ffffff"
         paint-order="stroke markers fill"
         id="rect1064" />
      <path
         d="M 3.973,4.19 A 0.264,0.264 0 0 0 3.711,4.32 0.264,0.264 0 0 0 3.808,4.682 L 6.65,6.322 3.808,7.963 A 0.264,0.264 0 0 0 3.711,8.325 c 0.074,0.127 0.235,0.17 0.362,0.097 L 7.28,6.57 A 0.26,0.26 0 0 0 7.407,6.345 C 7.409,6.337 7.408,6.33 7.409,6.323 7.409,6.315 7.409,6.308 7.407,6.3 A 0.26,0.26 0 0 0 7.28,6.076 L 4.073,4.223 A 0.266,0.266 0 0 0 3.973,4.19 Z"
         fill="#ffffff"
         paint-order="stroke markers fill"
         id="path1066" />
      <path
         d="m 15.872,9.215 -5.337,5.337 h 4.767 c 0.316,0 0.57,-0.238 0.57,-0.535 z"
         fill="url(#a)"
         opacity="0.15"
         id="path1068"
         style="fill:url(#a-3)" />
    </g>
  </g>
  <g
     inkscape:groupmode="layer"
     id="layer3"
     inkscape:label="Capa 3"
     sodipodi:insensitive="true">
    <text
       xml:space="preserve"
       id="text4273"
       style="font-style:normal;font-weight:normal;font-size:40px;line-height:1.25;font-family:sans-serif;white-space:pre;shape-inside:url(#rect4275);fill:#ffffff;fill-opacity:1;stroke:none;stroke-width:0.974934;stroke-miterlimit:4;stroke-dasharray:none"
       transform="matrix(2.5349521,0,0,3.0767827,0.57032701,-2017.0923)"
       x="224.02344"
       y="0"><tspan
         x="144.96289"
         y="841.98266"
         id="tspan1057"><tspan
           style="font-weight:600;font-family:'Open Sans';-inkscape-font-specification:'Open Sans Semi-Bold';text-align:center;text-anchor:middle"
           id="tspan1051">No </tspan><tspan
           style="font-style:italic;font-weight:600;font-family:'Open Sans';-inkscape-font-specification:'Open Sans Semi-Bold Italic'"
           id="tspan1053">Bloatware</tspan><tspan
           style="font-weight:600;font-family:'Open Sans';-inkscape-font-specification:'Open Sans Semi-Bold';text-align:center;text-anchor:middle"
           id="tspan1055"> 
</tspan></tspan><tspan
         x="60.509766"
         y="892.98681"
         id="tspan1063"><tspan
           style="font-weight:600;font-family:'Open Sans';-inkscape-font-specification:'Open Sans Semi-Bold';text-align:center;text-anchor:middle"
           id="tspan1059">Only </tspan><tspan
           style="font-style:italic;font-weight:600;font-family:'Open Sans';-inkscape-font-specification:'Open Sans Semi-Bold Italic';fill:#05b427;stroke:#ffffff"
           id="tspan1061">essential software</tspan></tspan></text>
    <text
       xml:space="preserve"
       id="text19299"
       style="font-style:normal;font-weight:normal;font-size:40px;line-height:1.25;font-family:sans-serif;white-space:pre;shape-inside:url(#rect19301);fill:#000000;fill-opacity:1;stroke:none" />
  </g>
</svg>
