<?xml version="1.0" encoding="UTF-8" standalone="no"?>
<!-- Created with Inkscape (http://www.inkscape.org/) -->

<svg
   width="1366"
   height="768"
   viewBox="0 0 1366 768"
   version="1.1"
   id="svg5"
   inkscape:version="1.2.2 (b0a8486541, 2022-12-01)"
   sodipodi:docname="sofware.svg"
   inkscape:export-filename="../software.png"
   inkscape:export-xdpi="96"
   inkscape:export-ydpi="96"
   xmlns:inkscape="http://www.inkscape.org/namespaces/inkscape"
   xmlns:sodipodi="http://sodipodi.sourceforge.net/DTD/sodipodi-0.dtd"
   xmlns:xlink="http://www.w3.org/1999/xlink"
   xmlns="http://www.w3.org/2000/svg"
   xmlns:svg="http://www.w3.org/2000/svg">
  <sodipodi:namedview
     id="namedview7"
     pagecolor="#505050"
     bordercolor="#ffffff"
     borderopacity="1"
     inkscape:pageshadow="0"
     inkscape:pageopacity="0"
     inkscape:pagecheckerboard="1"
     inkscape:document-units="px"
     showgrid="false"
     inkscape:zoom="0.43240966"
     inkscape:cx="677.59818"
     inkscape:cy="268.26413"
     inkscape:window-width="1366"
     inkscape:window-height="709"
     inkscape:window-x="0"
     inkscape:window-y="0"
     inkscape:window-maximized="1"
     inkscape:current-layer="layer3"
     inkscape:showpageshadow="0"
     inkscape:deskcolor="#505050" />
  <defs
     id="defs2">
    <rect
       x="26.774554"
       y="-203.15533"
       width="1310.9144"
       height="114.79236"
       id="rect1061" />
    <rect
       x="-2.9665141"
       y="309.25592"
       width="1778.7944"
       height="224.22586"
       id="rect30267" />
    <rect
       x="113.37866"
       y="767.79144"
       width="1435.1198"
       height="460.42761"
       id="rect4384" />
    <linearGradient
       id="linearGradient892"
       x1="-197.72"
       x2="-197.72"
       y1="263.85999"
       y2="273.76001"
       gradientTransform="matrix(0.18709,-0.18709,0.18709,0.18709,1.1192,-74.45)"
       gradientUnits="userSpaceOnUse">
      <stop
         offset="0"
         id="stop26961" />
      <stop
         stop-opacity="0"
         offset="1"
         id="stop26963" />
    </linearGradient>
    <linearGradient
       id="a"
       x1="47"
       x2="59.998001"
       y1="41"
       y2="53.978001"
       gradientTransform="matrix(6.3041821,0,0,6.3041821,799.69559,25.700927)"
       gradientUnits="userSpaceOnUse">
      <stop
         offset="0"
         id="stop30428" />
      <stop
         stop-color="#242424"
         stop-opacity="0"
         offset="1"
         id="stop30430" />
    </linearGradient>
    <linearGradient
       id="a-4"
       x1="-197.10001"
       x2="-196.91"
       y1="217.67999"
       y2="219.37"
       gradientTransform="rotate(-45,-338.07,-140.03)"
       gradientUnits="userSpaceOnUse">
      <stop
         offset="0"
         id="stop45330" />
      <stop
         stop-opacity="0"
         offset="1"
         id="stop45332" />
    </linearGradient>
    <linearGradient
       id="a-8"
       x1="49.570999"
       x2="51.714001"
       y1="52.714001"
       y2="54.856998"
       gradientTransform="matrix(2.3333,0,0,2.3333,-68.667,-72.001)"
       gradientUnits="userSpaceOnUse">
      <stop
         offset="0"
         id="stop52130" />
      <stop
         stop-opacity="0"
         offset="1"
         id="stop52132" />
    </linearGradient>
    <linearGradient
       id="a-9"
       x1="135"
       x2="160"
       y1="120"
       y2="160"
       gradientTransform="matrix(0.05623,0,0,0.05623,0.071601,-0.05278)"
       gradientUnits="userSpaceOnUse">
      <stop
         stop-color="#eff7fc"
         offset="0"
         id="stop5990" />
      <stop
         stop-color="#fff"
         offset="1"
         id="stop5992" />
    </linearGradient>
    <linearGradient
       id="b">
      <stop
         stop-color="#2f5da4"
         offset="0"
         id="stop8105" />
      <stop
         stop-color="#5584cd"
         offset="1"
         id="stop8107" />
    </linearGradient>
    <linearGradient
       id="a-2">
      <stop
         stop-color="#4a7ae1"
         offset="0"
         id="stop8110" />
      <stop
         stop-color="#7fa1ea"
         offset="1"
         id="stop8112" />
    </linearGradient>
    <linearGradient
       id="g"
       x1="49.575001"
       x2="53.666"
       y1="23.917"
       y2="41.292"
       gradientUnits="userSpaceOnUse"
       xlink:href="#a-2" />
    <linearGradient
       id="f"
       x1="53.666"
       x2="45.945"
       y1="41.292"
       y2="56.736"
       gradientUnits="userSpaceOnUse"
       xlink:href="#a-2" />
    <linearGradient
       id="e"
       x1="46.554001"
       x2="50.811001"
       y1="17.290001"
       y2="34.688999"
       gradientUnits="userSpaceOnUse"
       xlink:href="#a-2" />
    <linearGradient
       id="d"
       x1="8.9794998"
       x2="7.3793998"
       y1="23.309999"
       y2="35.294998"
       gradientUnits="userSpaceOnUse"
       xlink:href="#b" />
    <linearGradient
       id="c"
       x1="6.1016998"
       x2="9.3558998"
       y1="35.525002"
       y2="55.050999"
       gradientUnits="userSpaceOnUse"
       xlink:href="#b" />
    <linearGradient
       id="a-1"
       x1="49.570999"
       x2="51.714001"
       y1="52.714001"
       y2="54.856998"
       gradientTransform="matrix(2.3333,0,0,2.3333,-68.667,-72.001)"
       gradientUnits="userSpaceOnUse">
      <stop
         offset="0"
         id="stop39095" />
      <stop
         stop-opacity="0"
         offset="1"
         id="stop39097" />
    </linearGradient>
    <path
       id="c-4"
       d="M 0.735,43.06 24,0.71 47.09,43.02 c 0,0 -2.212,-0.155 -5.272,-0.291 C 38.967,42.602 40.024,42.843 33.54,41.64 28.629,40.73 25.018,38.775 18.287,38.913 10.834,39.066 0.738,43.062 0.738,43.062" />
    <linearGradient
       id="d-6"
       x1="34.601002"
       x2="34.601002"
       y1="50.400002"
       y2="45.085999"
       gradientUnits="userSpaceOnUse">
      <stop
         offset="0"
         id="stop43405" />
      <stop
         stop-opacity="0"
         offset="1"
         id="stop43407" />
    </linearGradient>
    <linearGradient
       id="a-97"
       x1="13.229"
       x2="2.1170001"
       y1="297"
       y2="280.07001"
       gradientTransform="matrix(0.96429,0,0,1.1739,0.30312,-330.25)"
       gradientUnits="userSpaceOnUse">
      <stop
         stop-color="#66bcff"
         offset="0"
         id="stop24260" />
      <stop
         stop-color="#b29aff"
         offset="1"
         id="stop24262" />
    </linearGradient>
    <filter
       style="color-interpolation-filters:sRGB"
       inkscape:label="Drop Shadow"
       id="filter42175"
       x="-0.02769104"
       y="-0.38281208"
       width="1.0581238"
       height="1.8035263">
      <feFlood
         flood-opacity="1"
         flood-color="rgb(5,180,39)"
         result="flood"
         id="feFlood42165" />
      <feComposite
         in="flood"
         in2="SourceGraphic"
         operator="in"
         result="composite1"
         id="feComposite42167" />
      <feGaussianBlur
         in="composite1"
         stdDeviation="8"
         result="blur"
         id="feGaussianBlur42169" />
      <feOffset
         dx="2"
         dy="2"
         result="offset"
         id="feOffset42171" />
      <feComposite
         in="SourceGraphic"
         in2="offset"
         operator="over"
         result="fbSourceGraphic"
         id="feComposite42173" />
      <feColorMatrix
         result="fbSourceGraphicAlpha"
         in="fbSourceGraphic"
         values="0 0 0 -1 0 0 0 0 -1 0 0 0 0 -1 0 0 0 0 1 0"
         id="feColorMatrix42195" />
      <feFlood
         id="feFlood42197"
         flood-opacity="1"
         flood-color="rgb(5,180,39)"
         result="flood"
         in="fbSourceGraphic" />
      <feComposite
         in2="fbSourceGraphic"
         id="feComposite42199"
         in="flood"
         operator="in"
         result="composite1" />
      <feGaussianBlur
         id="feGaussianBlur42201"
         in="composite1"
         stdDeviation="8"
         result="blur" />
      <feOffset
         id="feOffset42203"
         dx="2"
         dy="2"
         result="offset" />
      <feComposite
         in2="offset"
         id="feComposite42205"
         in="fbSourceGraphic"
         operator="over"
         result="composite2" />
    </filter>
  </defs>
  <g
     inkscape:label="Capa 1"
     inkscape:groupmode="layer"
     id="layer1"
     sodipodi:insensitive="true">
    <rect
       style="opacity:1;fill:#0a0a0a;fill-opacity:1;fill-rule:evenodd;stroke:#0a0a0a;stroke-width:0;stroke-linejoin:round;stroke-miterlimit:4;stroke-dasharray:none;stroke-opacity:1"
       id="rect846"
       width="1370"
       height="770"
       x="-0.99999952"
       y="-0.99999952"
       ry="1.1100893"
       sodipodi:insensitive="true" />
  </g>
  <g
     inkscape:groupmode="layer"
     id="layer2"
     inkscape:label="Capa 2"
     sodipodi:insensitive="true">
    <g
       transform="matrix(3.3333333,0,0,3.3333333,548.33346,-26.666666)"
       id="g3309">
      <path
         d="m 26,12.5 c -0.75,0 -3.375,3 -3.75,3 H 20.375 C 19.625,15.5 17,18.125 17,18.875 v 2.25 c 0,0.375 -2.9835,3 -3,3.75 -0.0165,0.75 5.25,18.375 6,19.125 0.75,0.75 9,7.5 11.25,7.5 h 1.5 C 35,51.5 43.25,44.75 44,44 44.75,43.25 50.015,25.625 50,24.875 49.9835,24.1295 47,21.5 47,21.125 v -2.25 C 47,18.125 44.375,15.5 43.625,15.5 H 41.75 c -0.375,0 -3,-3 -3.75,-3 z"
         fill="#fd4932"
         id="path3305" />
      <path
         d="m 32,17.738 c -0.747,0 -1.491,0.2565 -2.25,0.762 -2.25,1.5 -5.25,-0.75 -6,-0.75 -0.75,0 -5.25,5.4645 -5.25,7.5 0,1.5 5.625,4.95 5.625,6 0,0.75 -1.125,1.11 -1.125,2.7015 0,1.0485 1.5,2.9235 3,2.9235 1.5,0 5.253,-2.9445 5.25,-3.6735 V 32.75 C 31.25,31.85 27.875,30.716 27.875,29 27.875,27.5 29,26.945 29,25.25 29,23.792 26,23.375 23.75,23 23,23 26,20.5325 30.125,23.1995 31.169,23.8745 29,26.543 29.375,29 c 0.5625,0.525 1.5945,0.7875 2.625,0.7875 1.032,0 2.0625,-0.2625 2.625,-0.7875 C 35,26.543 32.831,23.8745 33.875,23.1995 38,20.5325 41,23 40.25,23 38,23.375 35,23.792 35,25.25 c 0,1.695 1.125,2.25 1.125,3.75 0,1.716 -3.375,2.85 -3.375,3.75 v 0.4515 c -0.003,0.729 3.75,3.6735 5.25,3.6735 1.5,0 3,-1.875 3,-2.9235 0,-1.59 -1.125,-1.9515 -1.125,-2.7015 0,-1.05 5.625,-4.5 5.625,-6 0,-2.0355 -4.5,-7.5 -5.25,-7.5 -0.75,0 -3.75,2.25 -6,0.75 C 33.491,17.9945 32.75,17.738 32,17.738 Z M 32,35.6 c -1.5,0 -4.875,2.325 -4.875,2.775 0,0.45 3.375,4.125 4.875,4.125 1.5,0 4.875,-3.675 4.875,-4.125 C 36.875,37.925 33.5,35.6 32,35.6 Z"
         fill="#f9f9f9"
         stroke-width="1.1667"
         id="path3307" />
    </g>
    <g
       transform="matrix(2.4073882,0,0,2.4073882,980.37045,5.3704472)"
       stroke-width="0.96429"
       id="g3590">
      <path
         d="M 31,4 A 27,27 0 0 0 4,31 27,27 0 0 0 7.245,43.783 L 7.196111,43.74346 c 1.3608,3.1966 1.2612,4.0683 1.0471,6.7384 -0.14918,1.8611 -0.65398,3.7607 -1.2844,4.8311 -0.57163,0.96814 -1.0302,1.97 -1.0302,2.2246 0,0.78782 4.5505,0.51107 8.5783,-0.52071 4.4801,-1.1465 5.1117,-1.2651 8.4684,-0.23914 a 27,27 0 0 0 0.10318,0.03279 c 0.1485,0.04532 0.27,0.08004 0.42911,0.12922 l -0.03761,-0.02989 a 27,27 0 0 0 7.5301,1.0906 27,27 0 0 0 27,-27 27,27 0 0 0 -27,-27 z"
         fill="#47ad5d"
         id="path3586" />
      <path
         d="m 41.126,42.891 c 2.0241,-0.96663 2.9651,-2.1794 3.2896,-4.2396 0.24729,-1.5701 0.13325,-1.9717 -2.9458,-3.4542 -3.915,-1.885 -3.6737,-1.894 -5.3602,0.19998 -1.0496,1.3032 -1.5007,1.726 -1.8413,1.726 -3.9898,-1.0787 -8.0494,-4.1948 -9.3406,-8.2867 0,-0.17521 0.42466,-0.81627 0.9437,-1.4246 1.5262,-1.7886 1.5278,-1.8324 0.19534,-5.1153 -1.534,-3.7794 -2.0529,-3.7537 -3.7241,-3.8229 -1.7102,-0.07072 -2.2507,0.20111 -3.3327,1.6763 -1.1195,1.5263 -1.5192,2.7541 -1.51,4.6385 0.01215,2.3917 0.79593,4.312 3.0659,7.5077 3.8969,5.4859 7.699,8.4635 13.176,10.319 3.35,1.1348 5.4229,1.2122 7.3837,0.27575 z"
         fill="#ffffff"
         id="path3588" />
    </g>
    <g
       transform="matrix(2.6798598,0,0,2.6798598,1183.9208,284.40734)"
       font-weight="400"
       id="g5735">
      <path
         d="m 32,35.55 c 0.637,0 1.342,0.226 2.834,0.723 l 21.95,8.978 c 0.874,0.44 1.216,1.023 1.216,1.55 0,0.525 -0.342,1.108 -1.217,1.548 l -21.99,8.996 -0.016,0.01 c -1.88,0.94 -3.674,0.94 -5.554,0 L 29.207,57.345 7.217,48.349 C 6.342,47.909 6,47.326 6,46.8 6,46.274 6.342,45.691 7.217,45.251 l 21.941,-8.976 h 0.008 C 30.658,35.778 31.363,35.552 32,35.552 Z"
         fill="#f35a23"
         overflow="visible"
         style="font-variant-ligatures:normal;font-variant-position:normal;font-variant-caps:normal;font-variant-numeric:normal;font-variant-alternates:normal;font-feature-settings:normal;text-indent:0;text-decoration-line:none;text-decoration-style:solid;text-decoration-color:#000000;text-transform:none;text-orientation:mixed;white-space:normal;shape-padding:0;isolation:auto;mix-blend-mode:normal"
         id="path5717" />
      <path
         d="m 32,35.55 v 0.003 c -0.637,0 -1.342,0.225 -2.834,0.722 h -0.008 l -16.048,6.567 15.702,6.424 c 2.097,1.037 4.28,1.037 6.378,0 L 50.892,42.842 34.835,36.273 c -1.492,-0.497 -2.197,-0.722 -2.834,-0.722 z"
         fill-opacity="0.078"
         overflow="visible"
         style="font-variant-ligatures:normal;font-variant-position:normal;font-variant-caps:normal;font-variant-numeric:normal;font-variant-alternates:normal;font-feature-settings:normal;text-indent:0;text-decoration-line:none;text-decoration-style:solid;text-decoration-color:#000000;text-transform:none;text-orientation:mixed;white-space:normal;shape-padding:0;isolation:auto;mix-blend-mode:normal"
         id="path5719" />
      <path
         d="m 32,22.55 c 0.637,0 1.342,0.226 2.834,0.723 l 21.95,8.979 C 57.658,32.692 58,33.274 58,33.8 c 0,0.527 -0.342,1.11 -1.217,1.55 l -21.99,8.995 -0.016,0.01 c -1.88,0.94 -3.674,0.94 -5.554,0 L 29.207,44.345 7.217,35.349 C 6.342,34.91 6,34.327 6,33.8 6,33.274 6.342,32.691 7.217,32.252 l 21.941,-8.977 h 0.008 C 30.658,22.778 31.363,22.552 32,22.552 Z"
         fill="#8bc34a"
         overflow="visible"
         style="font-variant-ligatures:normal;font-variant-position:normal;font-variant-caps:normal;font-variant-numeric:normal;font-variant-alternates:normal;font-feature-settings:normal;text-indent:0;text-decoration-line:none;text-decoration-style:solid;text-decoration-color:#000000;text-transform:none;text-orientation:mixed;white-space:normal;shape-padding:0;isolation:auto;mix-blend-mode:normal"
         id="path5721" />
      <path
         d="m 32,34.543 v 0.01 c -0.861,0 -1.658,0.275 -3.158,0.775 l -0.016,0.01 -0.015,0.01 -10.801,4.42 11.197,4.58 0.016,0.01 c 1.88,0.94 3.674,0.94 5.554,0 l 0.016,-0.01 11.209,-4.586 -10.828,-4.43 -0.016,-0.011 c -1.5,-0.5 -2.297,-0.776 -3.158,-0.776 z"
         fill="#7eb73d"
         overflow="visible"
         style="font-variant-ligatures:normal;font-variant-position:normal;font-variant-caps:normal;font-variant-numeric:normal;font-variant-alternates:normal;font-feature-settings:normal;text-indent:0;text-decoration-line:none;text-decoration-style:solid;text-decoration-color:#000000;text-transform:none;text-orientation:mixed;white-space:normal;shape-padding:0;isolation:auto;mix-blend-mode:normal"
         id="path5723" />
      <path
         d="m 32,35.55 v 0.003 c -0.637,0 -1.342,0.225 -2.834,0.722 h -0.008 l -9.84,4.026 9.889,4.045 0.016,0.01 c 1.88,0.94 3.674,0.94 5.554,0 L 34.793,44.346 44.68,40.3 34.834,36.272 C 33.342,35.775 32.637,35.55 32,35.55 Z"
         fill="#83be3f"
         overflow="visible"
         style="font-variant-ligatures:normal;font-variant-position:normal;font-variant-caps:normal;font-variant-numeric:normal;font-variant-alternates:normal;font-feature-settings:normal;text-indent:0;text-decoration-line:none;text-decoration-style:solid;text-decoration-color:#000000;text-transform:none;text-orientation:mixed;white-space:normal;shape-padding:0;isolation:auto;mix-blend-mode:normal"
         id="path5725" />
      <path
         d="m 32,22.55 v 0.003 c -0.637,0 -1.342,0.225 -2.834,0.722 h -0.008 l -16.048,6.567 15.702,6.424 c 2.097,1.037 4.28,1.037 6.378,0 L 50.892,29.842 34.835,23.273 c -1.492,-0.497 -2.197,-0.722 -2.834,-0.722 z"
         fill-opacity="0.078"
         overflow="visible"
         style="font-variant-ligatures:normal;font-variant-position:normal;font-variant-caps:normal;font-variant-numeric:normal;font-variant-alternates:normal;font-feature-settings:normal;text-indent:0;text-decoration-line:none;text-decoration-style:solid;text-decoration-color:#000000;text-transform:none;text-orientation:mixed;white-space:normal;shape-padding:0;isolation:auto;mix-blend-mode:normal"
         id="path5727" />
      <path
         d="m 32,9.55 c 0.637,0 1.342,0.226 2.834,0.723 l 21.95,8.979 C 57.658,19.692 58,20.274 58,20.8 c 0,0.527 -0.342,1.11 -1.217,1.55 l -21.99,8.995 -0.016,0.01 c -1.88,0.94 -3.674,0.94 -5.554,0 L 29.207,31.345 7.217,22.349 C 6.342,21.91 6,21.327 6,20.8 6,20.274 6.342,19.691 7.217,19.252 l 21.941,-8.977 h 0.008 C 30.658,9.778 31.363,9.552 32,9.552 Z"
         fill="#29b6f6"
         overflow="visible"
         style="font-variant-ligatures:normal;font-variant-position:normal;font-variant-caps:normal;font-variant-numeric:normal;font-variant-alternates:normal;font-feature-settings:normal;text-indent:0;text-decoration-line:none;text-decoration-style:solid;text-decoration-color:#000000;text-transform:none;text-orientation:mixed;white-space:normal;shape-padding:0;isolation:auto;mix-blend-mode:normal"
         id="path5729" />
      <path
         d="m 32,21.545 v 0.006 c -0.861,0 -1.658,0.275 -3.158,0.775 l -0.016,0.01 -0.015,0.01 -10.801,4.42 11.197,4.58 0.016,0.01 c 1.88,0.94 3.674,0.94 5.554,0 L 34.793,31.346 46.002,26.76 35.174,22.33 35.158,22.32 C 33.658,21.82 32.861,21.545 32,21.545 Z"
         fill="#0aa8f0"
         overflow="visible"
         style="font-variant-ligatures:normal;font-variant-position:normal;font-variant-caps:normal;font-variant-numeric:normal;font-variant-alternates:normal;font-feature-settings:normal;text-indent:0;text-decoration-line:none;text-decoration-style:solid;text-decoration-color:#000000;text-transform:none;text-orientation:mixed;white-space:normal;shape-padding:0;isolation:auto;mix-blend-mode:normal"
         id="path5731" />
      <path
         d="m 32,22.55 v 0.003 c -0.637,0 -1.342,0.225 -2.834,0.722 h -0.008 l -9.84,4.026 9.889,4.045 0.016,0.01 c 1.88,0.94 3.674,0.94 5.554,0 L 34.793,31.346 44.68,27.3 34.834,23.272 C 33.342,22.775 32.637,22.55 32,22.55 Z"
         fill="#10adf5"
         overflow="visible"
         style="font-variant-ligatures:normal;font-variant-position:normal;font-variant-caps:normal;font-variant-numeric:normal;font-variant-alternates:normal;font-feature-settings:normal;text-indent:0;text-decoration-line:none;text-decoration-style:solid;text-decoration-color:#000000;text-transform:none;text-orientation:mixed;white-space:normal;shape-padding:0;isolation:auto;mix-blend-mode:normal"
         id="path5733" />
    </g>
    <g
       transform="matrix(2.826087,0,0,2.826087,1174.5652,-10.435066)"
       stroke-width="0.85185"
       id="g6011">
      <g
         transform="translate(8,8)"
         fill="#3db0e3"
         id="g5999">
        <path
           d="m 24,1.0001 c 12.703,0 23,10.297 23,23 0,12.703 -10.297,23 -23,23 -12.703,0 -23,-10.297 -23,-23 0,-12.703 10.297,-23 23,-23 z"
           stroke-width="0.85186"
           id="path5997" />
      </g>
      <g
         transform="matrix(3.5433,0,0,3.5433,27,6.8895)"
         id="g6009">
        <g
           transform="translate(-5.0801)"
           stroke-width="0.85185"
           id="g6007">
          <path
             d="M 5.582,9.787 C 5.363,9.787 5.401,9.704 5.325,9.496 L 4.682,7.38 8.663,4.893 9.128,5.015 8.742,6.073 Z"
             fill="#c8daea"
             id="path6001" />
          <path
             d="M 5.582,9.787 C 5.751,9.787 5.825,9.71 5.919,9.618 6.064,9.476 7.943,7.65 7.943,7.65 L 6.792,7.371 5.724,8.046 5.582,9.73 Z"
             fill="#a7c2d1"
             id="path6003" />
          <path
             d="m 5.697,8.07 2.719,2.01 c 0.31,0.171 0.534,0.083 0.612,-0.288 L 10.135,4.576 C 10.248,4.122 9.962,3.916 9.665,4.05 l -6.5,2.507 C 2.721,6.735 2.724,6.982 3.084,7.093 L 4.752,7.614 8.613,5.178 C 8.795,5.067 8.963,5.127 8.825,5.249 Z"
             fill="url(#a)"
             id="path6005"
             style="fill:url(#a-9)" />
        </g>
      </g>
    </g>
    <g
       id="g6139"
       transform="matrix(8.8091308,0,0,8.8091308,18.348859,7.4719459)">
      <circle
         cx="296.64999"
         cy="5.7567"
         r="0"
         enable-background="new"
         fill="#d5d3cf"
         stroke-width="0.87152"
         id="circle6100" />
      <g
         stroke-width="0.18455"
         id="g6118">
        <path
           d="M 15.093,5.809 C 14.78222,5.06121 14.15184,4.2539 13.6581,3.9986 a 7.431,7.431 0 0 1 0.72435,2.1711 l 0.0013,0.012027 c -0.80869,-2.0162 -2.1801,-2.8291 -3.3001,-4.5993 -0.05666,-0.089506 -0.11332,-0.17919 -0.16849,-0.27387 -0.03156,-0.054034 -0.05684,-0.1028 -0.0788,-0.14764 a 1.3016,1.3016 0 0 1 -0.10667,-0.28328 0.018455,0.018455 0 0 0 -0.01624,-0.018476 0.025468,0.025468 0 0 0 -0.01347,0 c -9.59e-4,0 -0.0024,0.001743 -0.0035,0.001743 -0.0011,3.6604e-4 -0.0035,0.001743 -0.0051,0.002615 l 0.0028,-0.005229 c -1.7966,1.0519 -2.4062,2.9993 -2.4623,3.9734 A 3.5779,3.5779 0 0 0 6.26348,5.59037 2.1384,2.1384 0 0 0 6.07893,5.45048 3.316,3.316 0 0 1 6.058814,3.70218 5.2975,5.2975 0 0 0 4.337114,5.03278 H 4.333794 C 4.050244,4.67431 4.070174,3.48948 4.086414,3.24208 A 1.2785,1.2785 0 0 0 3.847604,3.36886 5.2089,5.2089 0 0 0 3.148534,3.96773 6.246,6.246 0 0 0 2.479914,4.76996 V 4.7708315 4.76996 a 6.0408,6.0408 0 0 0 -0.95964,2.1671 l -0.0096,0.047237 c -0.013472,0.062924 -0.062008,0.37814 -0.070313,0.4466 0,0.00523 -0.00111,0.010371 -0.00166,0.015688 a 6.8167,6.8167 0 0 0 -0.11608,0.98604 V 8.46949 a 7.1529,7.1529 0 0 0 14.201,1.2095 c 0.01199,-0.092277 0.02178,-0.18363 0.03248,-0.27682 a 7.3556,7.3556 0 0 0 -0.46395,-3.5929 z m -8.2438,5.5988 c 0.033403,0.01604 0.064777,0.03338 0.099101,0.04872 l 0.00499,0.0035 Q 6.901243,11.43508 6.849201,11.40815 Z M 8.4877,7.0938 M 14.3844,6.18323 V 6.17626 l 0.0013,0.00784 z"
           fill="#ff3944"
           id="path6102" />
        <path
           d="m 11.618,6.6457 c 0.0155,0.010894 0.02989,0.021788 0.04447,0.032682 a 3.894,3.894 0 0 0 -0.66438,-0.86645 c -2.2231,-2.2234 -0.58262,-4.821 -0.30598,-4.953 l 0.0028,-0.004358 c -1.7966,1.0519 -2.4062,2.9993 -2.4622,3.9734 0.083416,-0.0061 0.1661,-0.012724 0.25136,-0.012724 a 3.6098,3.6098 0 0 1 3.134,1.8302 z"
           fill="#ffcd34"
           id="path6104" />
        <path
           d="M 8.4881,7.0901 C 8.476289,7.268 7.84771,7.88163 7.62791,7.88163 c -2.0339,0 -2.3641,1.2304 -2.3641,1.2304 0.090063,1.0361 0.81202,1.8894 1.6847,2.3408 0.039863,0.02065 0.080279,0.03931 0.1207,0.05761 q 0.10501,0.04654 0.21002,0.08602 a 3.1807,3.1807 0 0 0 0.9307,0.17957 c 3.565,0.1672 4.2555,-4.2631 1.6829,-5.5486 a 2.4693,2.4693 0 0 1 1.7246,0.41874 3.6098,3.6098 0 0 0 -3.134,-1.8302 c -0.084893,0 -0.16794,0.00697 -0.25136,0.012724 a 3.5779,3.5779 0 0 0 -1.9684,0.75868 c 0.10907,0.092268 0.23217,0.21555 0.49145,0.47115 0.48536,0.47816 1.7301,0.97349 1.7329,1.0316 z"
           fill="#9a46eb"
           id="path6106" />
        <path
           d="m 5.9303,5.3471 c 0.057949,0.036865 0.10575,0.069025 0.14764,0.097994 a 3.316,3.316 0 0 1 -0.020116,-1.7483 5.2975,5.2975 0 0 0 -1.7217,1.3306 c 0.03488,-8.715e-4 1.0724,-0.019522 1.5941,0.31964 z"
           fill="#ff9633"
           id="path6108" />
        <path
           d="m 1.3883,8.6327 c 0.55199,3.2617 3.5081,5.7521 6.8641,5.8471 3.1059,0.08784 5.0902,-1.7152 5.91,-3.4742 A 6.4777,6.4777 0 0 0 14.38497,6.1781 V 6.17113 c 0,-0.00523 -0.0011,-0.00872 0,-0.00697 l 0.0013,0.012027 c 0.25375,1.6567 -0.5889,3.2617 -1.9062,4.3471 l -0.0041,0.0092 c -2.5667,2.0904 -5.023,1.2612 -5.5202,0.92277 Q 6.903739,11.430365 6.8517,11.403435 c -1.4965,-0.71531 -2.1148,-2.0788 -1.9823,-3.2481 a 1.8368,1.8368 0 0 1 -1.6943,-1.0658 2.6977,2.6977 0 0 1 2.6296,-0.10557 3.5618,3.5618 0 0 0 2.6855,0.10557 C 8.4874285,7.031404 7.2426,6.535895 6.7573,6.057935 6.49801,5.802335 6.37492,5.679245 6.26585,5.586785 A 2.1384,2.1384 0 0 0 6.0813,5.446895 C 6.038853,5.41796 5.991054,5.386585 5.93366,5.348901 5.41194,5.009701 4.37446,5.028341 4.34006,5.029271 H 4.33674 C 4.05329,4.670201 4.07323,3.485371 4.08946,3.237971 a 1.2785,1.2785 0 0 0 -0.23881,0.12678 5.2089,5.2089 0 0 0 -0.69907,0.59886 6.246,6.246 0 0 0 -0.67139,0.80039 v 8.715e-4 -8.715e-4 a 6.0408,6.0408 0 0 0 -0.95964,2.1671 c -0.00351,0.014554 -0.25763,1.1256 -0.13232,1.7017 z"
           fill="#ff6333"
           id="path6110" />
        <path
           d="m 10.998,5.8177 a 3.894,3.894 0 0 1 0.66438,0.86738 c 0.0393,0.029719 0.07603,0.059264 0.10722,0.087841 1.6216,1.4948 0.77197,3.6079 0.70867,3.7584 1.3173,-1.0853 2.1592,-2.6904 1.9062,-4.3471 -0.80906,-2.0171 -2.1805,-2.83 -3.3005,-4.6003 -0.05666,-0.089506 -0.11332,-0.17919 -0.16849,-0.27387 -0.03156,-0.054034 -0.05684,-0.1028 -0.0788,-0.14764 a 1.3016,1.3016 0 0 1 -0.10667,-0.28328 0.018455,0.018455 0 0 0 -0.01624,-0.018476 0.025468,0.025468 0 0 0 -0.01347,0 c -9.59e-4,0 -0.0024,0.001743 -0.0035,0.001743 -0.0011,3.6604e-4 -0.0035,0.001743 -0.0051,0.002615 -0.27664,0.13121 -1.9171,2.7287 0.30635,4.9522 z"
           fill="#ff8619"
           id="path6112" />
        <path
           d="M 11.768,6.7677 C 11.73681,6.739114 11.70009,6.709569 11.66078,6.67985 11.6462,6.668956 11.6318,6.658062 11.61631,6.647168 a 2.4693,2.4693 0 0 0 -1.7246,-0.41874 c 2.5727,1.2863 1.8824,5.7158 -1.6829,5.5486 a 3.1807,3.1807 0 0 1 -0.9307,-0.17955 Q 7.1731,11.558172 7.06809,11.511458 c -0.040416,-0.01848 -0.080832,-0.03687 -0.1207,-0.05761 l 0.00499,0.0035 c 0.49718,0.33938 2.9528,1.1685 5.5202,-0.92277 l 0.0041,-0.0092 c 0.06404,-0.14948 0.91371,-2.2631 -0.70867,-3.7574 z"
           fill="#ffa316"
           id="path6114" />
        <path
           d="m 5.2638,9.1121 c 0,0 0.33016,-1.2304 2.3641,-1.2304 0.2198,0 0.84893,-0.61362 0.86019,-0.79153 a 3.5618,3.5618 0 0 1 -2.6855,-0.10556 2.6977,2.6977 0 0 0 -2.6296,0.10556 1.8368,1.8368 0 0 0 1.6943,1.0658 c -0.13251,1.1695 0.48574,2.5329 1.9823,3.2481 0.033403,0.01604 0.064777,0.03338 0.099101,0.04872 -0.87344,-0.45122 -1.5947,-1.3046 -1.6847,-2.3407 z"
           fill="#ffbb27"
           id="path6116" />
      </g>
      <circle
         cx="-15.774"
         cy="13.461"
         r="0"
         enable-background="new"
         fill="#d5d3cf"
         stroke-width="0.87152"
         id="circle6120" />
    </g>
    <g
       id="g7414"
       transform="matrix(9.0991126,0,0,9.0991126,772.9627,2.9629484)">
      <g
         transform="matrix(1.0384,0,0,1.0383,-0.32502,-0.32385)"
         fill-rule="evenodd"
         stroke-width="0.92746"
         id="g7396">
        <path
           d="m 2.965,4.34 a 6.917,6.917 0 0 0 -1.378,4.148 6.846,6.846 0 0 0 6.88,6.858 L 10.874,10.414 6.403,9.5 Z"
           fill="#649af5"
           id="path7390" />
        <path
           d="m 8.81,5.371 2.064,5.022 -2.407,4.953 a 6.864,6.864 0 0 0 6.879,-6.88 6.865,6.865 0 0 0 -0.737,-3.095 z"
           fill="#a2c2f8"
           id="path7392" />
        <path
           d="M 8.465,1.587 A 6.852,6.852 0 0 0 2.963,4.341 L 6.402,9.499 10.873,10.393 8.809,5.37 h 5.799 A 6.858,6.858 0 0 0 8.465,1.586 Z"
           fill="#3b6bd4"
           id="path7394" />
      </g>
      <path
         d="m 8.466,5.027 a 3.4325,3.4325 0 0 1 3.44,3.439 3.4325,3.4325 0 0 1 -3.44,3.44 3.4325,3.4325 0 0 1 -3.439,-3.44 3.4325,3.4325 0 0 1 3.439,-3.439 z"
         fill="#ffffff"
         id="path7398" />
      <path
         d="M 8.4654,5.8207 A 2.6404,2.6399 0 0 1 11.1122,8.4659 2.6404,2.6399 0 0 1 8.4654,11.1122 2.6404,2.6399 0 0 1 5.8207,8.4659 2.6404,2.6399 0 0 1 8.4654,5.8207 Z"
         fill="#5599ff"
         id="path7400" />
    </g>
    <g
       id="g7738"
       transform="matrix(3.1707317,0,0,3.1707317,207.31707,2.3170732)">
      <circle
         cx="24"
         cy="25"
         r="20"
         style="opacity:0.2"
         id="circle7717" />
      <circle
         cx="24"
         cy="24"
         r="20"
         style="fill:#31aae4"
         id="circle7719" />
      <path
         d="M 24,4 A 20,20 0 0 0 4,24 20,20 0 0 0 4.0215,24.582 20,20 0 0 1 24,5 20,20 0 0 1 43.979,24.418 20,20 0 0 0 44,24 20,20 0 0 0 24,4 Z"
         style="opacity:0.2;fill:#ffffff"
         id="path7721" />
      <path
         d="M 24,9 C 15.163444,9 8,16.163444 8,25 8,33.836556 15.163444,41 24,41 32.836556,41 40,33.836556 40,25 40,16.163444 32.836556,9 24,9 Z m 0,2 c 7.731986,0 14,6.268014 14,14 -0.0061,6.427788 -4.388511,12.025562 -10.626953,13.574219 -0.08869,-0.223963 -0.125232,-0.462974 -0.101563,-0.541016 0.119916,-0.395421 0.205231,-0.92882 0.234375,-1.476562 0.04618,-0.86778 0.394472,-2.244364 0.94475,-2.871094 0.484021,-0.551273 0.576412,-0.990877 0.585937,-2.78125 0.0079,-1.482112 0.02436,-1.655764 0.214844,-2.320313 0.324251,-1.131247 0.860216,-1.929284 1.252516,-2.501953 0.19937,-0.291036 0.517175,-0.81055 0.707032,-1.154297 0.189851,-0.343754 0.466288,-0.807225 0.613281,-1.029296 0.384,-0.580135 1.603989,-1.381741 2.009305,-1.572266 0.452969,-0.212917 0.952045,-0.78601 1.117187,-1.283203 0.169752,-0.511079 0.118281,-1.317346 -0.103515,-1.613281 -0.130704,-0.174391 -0.213944,-0.205079 -0.548828,-0.205079 -0.306711,0 -0.439295,-0.04057 -0.591797,-0.183593 -0.209764,-0.196729 -0.363282,-0.170387 -0.363282,0.0625 0,0.182651 -0.677963,0.530276 -0.759305,0.449218 -0.03388,-0.03376 4.7e-4,-0.227123 0.07813,-0.429687 0.284519,-0.742389 0.377463,-1.215637 0.332032,-1.695313 -0.07491,-0.7909 -0.567462,-2.001003 -0.835938,-2.052734 -0.06456,-0.01244 -0.415328,0.226943 -0.779297,0.533203 -1.898028,1.597109 -3.341369,2.293956 -4.345703,2.901054 -0.479263,0.289683 -0.480783,0.289024 -1.289062,0.271485 -0.956985,-0.02075 -0.790832,0.130561 -2.38706,1.098258 -0.552859,0.335167 -1.176288,0.974207 -1.384766,1.053422 -0.209533,0.07962 -0.873555,0.19483 -1.486328,0.257812 -1.258507,0.129348 -1.595528,0.206527 -2.066406,0.478516 -0.46567,0.268978 -0.583446,0.469319 -0.484375,0.828125 0.09701,0.351325 0.612551,1.043084 1.232422,1.652344 l 0.466796,0.458984 -0.359375,0.556641 c -0.198402,0.306314 -0.497731,0.872484 -0.664062,1.257812 -0.330567,0.765809 -0.421128,0.909598 -1.080078,1.720703 -0.570847,0.702648 -1.502489,1.7134 -2.093409,2.871094 -0.505329,0.990011 -0.748158,1.246616 -1.675781,1.777344 -0.232037,0.132759 -0.518058,0.355851 -0.8125,0.494141 C 11.039748,31.130994 10.002094,28.110117 10,25 10,17.268014 16.268014,11 24,11 Z m 2.425406,9.105031 -0.720703,0.923828 -1.16211,0.162109 0.722656,-0.923828 z"
         style="opacity:0.2"
         id="path7723" />
      <path
         d="M 24,8 C 15.163444,8 8,15.163444 8,24 8,32.836556 15.163444,40 24,40 32.836556,40 40,32.836556 40,24 40,15.163444 32.836556,8 24,8 Z m 0,2 c 7.731986,0 14,6.268014 14,14 -0.0061,6.427788 -4.388511,12.025562 -10.626953,13.574219 -0.08869,-0.223963 -0.125232,-0.462974 -0.101563,-0.541016 0.119916,-0.395421 0.205231,-0.92882 0.234375,-1.476562 0.04618,-0.86778 0.394472,-2.244364 0.94475,-2.871094 0.484021,-0.551273 0.576412,-0.990877 0.585937,-2.78125 0.0079,-1.482112 0.02436,-1.655764 0.214844,-2.320313 0.324251,-1.131247 0.860216,-1.929284 1.252516,-2.501953 0.19937,-0.291036 0.517175,-0.81055 0.707032,-1.154297 0.189851,-0.343754 0.466288,-0.807225 0.613281,-1.029296 0.384,-0.580135 1.603989,-1.381741 2.009305,-1.572266 0.452969,-0.212917 0.952045,-0.78601 1.117187,-1.283203 0.169752,-0.511079 0.118281,-1.317346 -0.103515,-1.613281 -0.130704,-0.174391 -0.213944,-0.205079 -0.548828,-0.205079 -0.306711,0 -0.439295,-0.04057 -0.591797,-0.183593 -0.209764,-0.196729 -0.363282,-0.170387 -0.363282,0.0625 0,0.182651 -0.677963,0.530276 -0.759305,0.449218 -0.03388,-0.03376 4.7e-4,-0.227123 0.07813,-0.429687 0.284519,-0.742389 0.377463,-1.215637 0.332032,-1.695313 -0.07491,-0.7909 -0.567462,-2.001003 -0.835938,-2.052734 -0.06456,-0.01244 -0.415328,0.226943 -0.779297,0.533203 -1.898028,1.597109 -3.341369,2.293956 -4.345703,2.901054 -0.479263,0.289683 -0.480783,0.289024 -1.289062,0.271485 -0.956985,-0.02075 -0.790832,0.130561 -2.38706,1.098258 -0.552859,0.335167 -1.176288,0.974207 -1.384766,1.053422 -0.209533,0.07962 -0.873555,0.19483 -1.486328,0.257812 -1.258507,0.129348 -1.595528,0.206527 -2.066406,0.478516 -0.46567,0.268978 -0.583446,0.469319 -0.484375,0.828125 0.09701,0.351325 0.612551,1.043084 1.232422,1.652344 l 0.466796,0.458984 -0.359375,0.556641 c -0.198402,0.306314 -0.497731,0.872484 -0.664062,1.257812 -0.330567,0.765809 -0.421128,0.909598 -1.080078,1.720703 -0.570847,0.702648 -1.502489,1.7134 -2.093409,2.871094 -0.505329,0.990011 -0.748158,1.246616 -1.675781,1.777344 -0.232037,0.132759 -0.518058,0.355851 -0.8125,0.494141 C 11.039748,30.130994 10.002094,27.110117 10,24 10,16.268014 16.268014,10 24,10 Z m 2.425406,9.105031 -0.720703,0.923828 -1.16211,0.162109 0.722656,-0.923828 z"
         style="fill:#ffffff"
         id="path7725" />
    </g>
    <g
       stroke-width="3.7796"
       id="g7853"
       transform="matrix(9.0983033,0,0,9.0983033,387.96385,2.9732428)">
      <path
         transform="scale(0.26458)"
         d="M 32.002,4.9961 C 17.089,4.9958371 5,17.0851 5,31.9981 c -2.629e-4,14.913 12.089,27.002 27.002,27.002 14.913,2.63e-4 27.002,-12.089 27.002,-27.002 C 59.004263,17.0851 46.915,4.9961 32.002,4.9961 Z M 32.000047,13 c 7.732,-1.85e-4 14,8.5065 14,19 1.29e-4,10.493 -6.268,19 -14,19 -7.732,1.93e-4 -14,-8.5065 -14,-19 -1.35e-4,-10.493 6.268,-19 14,-19 z"
         fill="#ff1b2d"
         style="paint-order:stroke markers fill"
         id="path7849" />
      <path
         transform="scale(0.26458)"
         d="m 38.5,10 c -5.4645,-1.034e-4 -10.417,2.3086 -14.092,6.0488 2.1881,-1.922 4.7913,-3.0489 7.5918,-3.0488 7.732,-1.85e-4 14,8.5065 14,19 1.29e-4,10.493 -6.268,19 -14,19 -2.8005,7e-5 -5.4037,-1.1268 -7.5918,-3.0488 C 28.0828,51.6914 33.0353,54.0001 38.5,54 49.822,54.000219 59,44.1504 59,32 59.000193,19.85 49.8219,10 38.5,10 Z M 18.133,29.523 c -0.0091,0.08692 -0.02117,0.17254 -0.0293,0.25976 0.0075,-0.08756 0.02091,-0.17257 0.0293,-0.25976 z m -0.07422,0.89258 c -0.03473,0.52354 -0.0586,1.051 -0.05859,1.584 -7e-6,-0.53456 0.0267,-1.0606 0.05859,-1.584 z m -0.05859,1.584 c -9e-6,0.53303 0.02387,1.0604 0.05859,1.584 -0.03189,-0.52338 -0.0586,-1.0494 -0.05859,-1.584 z m 0.10352,2.2168 c 0.0081,0.08723 0.02022,0.17284 0.0293,0.25976 -0.0084,-0.0872 -0.02179,-0.1722 -0.0293,-0.25976 z"
         fill="#af0e0e"
         style="paint-order:stroke markers fill"
         id="path7851" />
    </g>
    <g
       id="g10085"
       transform="matrix(9.4490476,0,0,9.4490476,379.99637,295.07056)">
      <g
         transform="translate(-1.0589e-8,-280.07)"
         paint-order="markers stroke fill"
         id="g10071">
        <rect
           x="2.1170001"
           y="281.64999"
           width="12.7"
           height="13.758"
           rx="2.1171999"
           ry="2.1171999"
           fill="#3f51b5"
           id="rect10067" />
        <path
           transform="matrix(0.26458,0,0,0.26458,0,280.07)"
           d="m 16,10 c -2.216,0 -4,1.784 -4,4 v 36 c 0,2.216 1.784,4 4,4 h 32 c 2.216,0 4,-1.784 4,-4 V 26 L 36,10 Z M 41.998,10 52,19.998 V 14 c 0,-2.216 -1.784,-4 -4,-4 z"
           fill="#ffffff"
           stroke-width="3.7796"
           id="path10069" />
      </g>
      <path
         d="m 5.292,12.171 v -0.53 H 9.79 v 0.53 z m 0,-1.323 v -0.53 h 6.35 v 0.53 z m 0,-1.323 v -0.53 h 6.35 v 0.53 z m 0,-1.323 v -0.53 h 6.35 v 0.53 z"
         fill="#cccccc"
         id="path10073" />
    </g>
    <g
       id="g10579"
       transform="matrix(9.4490476,0,0,9.4490476,574.99637,295.07056)">
      <g
         transform="translate(-1.0589e-8,-280.07)"
         paint-order="markers stroke fill"
         id="g10538">
        <rect
           x="2.1170001"
           y="281.64999"
           width="12.7"
           height="13.758"
           rx="2.1171999"
           ry="2.1171999"
           fill="#4caf50"
           id="rect10534" />
        <path
           transform="matrix(0.26458,0,0,0.26458,0,280.07)"
           d="m 16,10 c -2.216,0 -4,1.784 -4,4 v 36 c 0,2.216 1.784,4 4,4 h 32 c 2.216,0 4,-1.784 4,-4 V 26 L 36,10 Z M 41.998,10 52,19.998 V 14 c 0,-2.216 -1.784,-4 -4,-4 z"
           fill="#ffffff"
           stroke-width="3.7796"
           id="path10536" />
      </g>
      <rect
         x="5.027"
         y="7.6729999"
         width="6.8790002"
         height="4.4980001"
         rx="0"
         ry="0"
         fill="#cccccc"
         style="paint-order:markers stroke fill"
         id="rect10540" />
      <rect
         x="5.5560002"
         y="9.5249996"
         width="1.587"
         height="0.79400003"
         rx="0"
         ry="0"
         fill="#ffffff"
         style="paint-order:markers stroke fill"
         id="rect10542" />
      <rect
         x="7.6729999"
         y="9.5249996"
         width="1.587"
         height="0.79400003"
         rx="0"
         ry="0"
         fill="#ffffff"
         style="paint-order:markers stroke fill"
         id="rect10544" />
      <rect
         x="9.79"
         y="9.5249996"
         width="1.587"
         height="0.79400003"
         rx="0"
         ry="0"
         fill="#ffffff"
         style="paint-order:markers stroke fill"
         id="rect10546" />
      <rect
         x="5.5560002"
         y="10.848"
         width="1.587"
         height="0.79400003"
         rx="0"
         ry="0"
         fill="#ffffff"
         style="paint-order:markers stroke fill"
         id="rect10548" />
      <rect
         x="7.6729999"
         y="10.848"
         width="1.587"
         height="0.79400003"
         rx="0"
         ry="0"
         fill="#ffffff"
         style="paint-order:markers stroke fill"
         id="rect10550" />
      <rect
         x="9.79"
         y="10.848"
         width="1.587"
         height="0.79400003"
         rx="0"
         ry="0"
         fill="#ffffff"
         style="paint-order:markers stroke fill"
         id="rect10552" />
      <rect
         x="5.5560002"
         y="8.2019997"
         width="1.587"
         height="0.79400003"
         rx="0"
         ry="0"
         fill="#ffffff"
         style="paint-order:markers stroke fill"
         id="rect10554" />
      <rect
         x="7.6729999"
         y="8.2019997"
         width="1.587"
         height="0.79400003"
         rx="0"
         ry="0"
         fill="#ffffff"
         style="paint-order:markers stroke fill"
         id="rect10556" />
      <rect
         x="9.79"
         y="8.2019997"
         width="1.587"
         height="0.79400003"
         rx="0"
         ry="0"
         fill="#ffffff"
         style="paint-order:markers stroke fill"
         id="rect10558" />
    </g>
    <g
       id="g11034"
       transform="matrix(9.4490476,0,0,9.4490476,969.99637,295.07056)">
      <g
         transform="translate(-1.0589e-8,-280.07)"
         paint-order="markers stroke fill"
         id="g11011">
        <rect
           x="2.1170001"
           y="281.64999"
           width="12.7"
           height="13.758"
           rx="2.1171999"
           ry="2.1171999"
           fill="#ff5722"
           id="rect11007" />
        <path
           transform="matrix(0.26458,0,0,0.26458,0,280.07)"
           d="m 16,10 c -2.216,0 -4,1.784 -4,4 v 36 c 0,2.216 1.784,4 4,4 h 32 c 2.216,0 4,-1.784 4,-4 V 26 L 36,10 Z M 41.998,10 52,19.998 V 14 c 0,-2.216 -1.784,-4 -4,-4 z"
           fill="#ffffff"
           stroke-width="3.7796"
           id="path11009" />
      </g>
      <path
         d="M 6.88,7.673 A 1.323,1.323 0 0 0 5.556,8.996 1.323,1.323 0 0 0 6.879,10.318 1.323,1.323 0 0 0 8.202,8.996 H 6.88 Z"
         fill="#cccccc"
         style="paint-order:markers stroke fill"
         id="path11013" />
      <rect
         x="8.7309999"
         y="7.6729999"
         width="2.6459999"
         height="0.52899998"
         rx="0"
         ry="0"
         fill="#cccccc"
         style="paint-order:markers stroke fill"
         id="rect11015" />
      <rect
         x="8.7309999"
         y="9.2600002"
         width="2.6459999"
         height="0.52899998"
         rx="0"
         ry="0"
         fill="#cccccc"
         style="paint-order:markers stroke fill"
         id="rect11017" />
      <rect
         x="5.5560002"
         y="10.848"
         width="4.7620001"
         height="0.52899998"
         rx="0"
         ry="0"
         fill="#cccccc"
         style="paint-order:markers stroke fill"
         id="rect11019" />
    </g>
    <g
       id="g12236"
       transform="matrix(9.4490476,0,0,9.4490476,204.99964,294.99964)">
      <rect
         x="1.5875"
         y="1.5875"
         width="13.758"
         height="13.758"
         rx="2.1166"
         ry="2.1166"
         fill="#df3c3c"
         style="paint-order:markers stroke fill"
         id="rect12215" />
      <g
         transform="matrix(1.1429,0,0,1.1429,-1.2104,-321.31)"
         fill="#ffffff"
         stroke-width="0.87494"
         id="g12223">
        <path
           d="m 8.213,285.61 c 0,0 0.206,1.92 -1.254,4.456 -1.461,2.535 -1.89,2.195 -2.043,2.106 -0.154,-0.087 -0.35,-0.37 0.297,-0.943 0.647,-0.57 0.9,-0.56 0.9,-0.56 0,0 -0.592,0.363 -0.824,0.713 -0.23,0.352 -0.417,0.572 -0.362,0.67 0.055,0.098 0.717,-0.405 0.991,-0.833 0.436,-0.68 1.26,-1.944 1.644,-3.15 0.385,-1.206 0.65,-2.457 0.65,-2.457"
           id="path12217" />
        <path
           d="m 11.976,289.99 c 0,0 -0.033,0.089 -0.433,0.055 -0.4,-0.034 -1.95,-0.515 -2.783,-1.501 -0.833,-0.986 -0.9,-2.34 -0.96,-3.047 -0.056,-0.705 0.26,-0.51 0.305,-0.42 0.072,0.059 0.107,0.252 0.107,0.252 0,0 -0.025,-0.288 -0.151,-0.412 -0.125,-0.123 -0.237,-0.125 -0.362,0.088 -0.125,0.212 -0.184,0.806 -0.08,1.377 0.102,0.572 0.524,1.882 1.049,2.486 0.524,0.606 1.574,1.135 2.35,1.29 0.775,0.157 0.958,-0.167 0.958,-0.167"
           id="path12219" />
        <path
           d="m 7.069,290.08 c 0,0 1.48,-0.472 2.882,-0.602 1.402,-0.132 1.884,0.01 2.008,0.109 0.123,0.099 0.123,0.208 0.123,0.208 0,0 0.157,-0.153 0.053,-0.308 -0.087,-0.161 -0.222,-0.295 -1.332,-0.261 -1.11,0.033 -1.189,0.076 -2.21,0.263 -1.02,0.186 -1.525,0.593 -1.525,0.593"
           id="path12221" />
      </g>
    </g>
    <g
       id="g12314"
       transform="matrix(9.4490476,0,0,9.4490476,764.99637,295.07056)">
      <g
         transform="translate(-1.0589e-8,-280.07)"
         paint-order="markers stroke fill"
         id="g12300">
        <rect
           x="2.1170001"
           y="281.64999"
           width="12.7"
           height="13.758"
           rx="2.1171999"
           ry="2.1171999"
           fill="#e91e63"
           id="rect12296" />
        <path
           transform="matrix(0.26458,0,0,0.26458,0,280.07)"
           d="m 16,10 c -2.216,0 -4,1.784 -4,4 v 36 c 0,2.216 1.784,4 4,4 h 32 c 2.216,0 4,-1.784 4,-4 V 26 L 36,10 Z M 41.998,10 52,19.998 V 14 c 0,-2.216 -1.784,-4 -4,-4 z"
           fill="#ffffff"
           stroke-width="3.7796"
           id="path12298" />
      </g>
      <path
         d="m 5.027,7.408 v 1.058 h 6.88 V 7.408 Z m 0.265,0.265 h 6.35 V 8.202 H 5.292 V 7.672 Z M 5.027,8.996 v 1.058 h 6.88 V 8.996 Z M 5.292,9.26 h 6.35 v 0.53 h -6.35 z m -0.265,1.323 v 1.058 h 6.88 v -1.058 z m 0.265,0.265 h 6.35 v 0.529 h -6.35 v -0.53 z"
         fill="#cccccc"
         style="paint-order:markers stroke fill"
         id="path12302" />
    </g>
    <g
       id="g33990"
       transform="matrix(2.4074074,0,0,2.4074074,207.96296,147.96296)">
      <circle
         cx="32"
         cy="32"
         r="27"
         fill="#4caf50"
         style="paint-order:markers stroke fill"
         id="circle33975" />
      <circle
         cx="32"
         cy="32"
         r="22"
         opacity="0.15"
         paint-order="markers stroke fill"
         id="circle33977" />
      <path
         d="m 28.474,21.419 a 42.47,42.47 0 0 0 -10.888,1.415 2.098,2.098 0 1 0 1.081,4.053 c 8.255,-2.201 18.136,-1.63 26.21,2.625 a 2.098,2.098 0 1 0 1.955,-3.71 c -5.73,-3.02 -12.12,-4.385 -18.358,-4.383 z m -0.247,7.713 c -3.27,-0.014 -6.46,0.42 -9.303,1.213 a 1.806,1.806 0 1 0 0.968,3.478 c 6.629,-1.846 15.93,-1.35 22.207,2.588 a 1.8062392,1.8062392 0 1 0 1.92,-3.06 c -4.67,-2.928 -10.342,-4.196 -15.792,-4.22 z m 0.403,7.296 c -3.188,-0.048 -6.246,0.423 -9.06,1.05 a 1.398,1.398 0 1 0 0.607,2.729 c 6.15,-1.368 12.895,-1.907 19.718,2.165 a 1.398,1.398 0 1 0 1.433,-2.4 c -4.288,-2.56 -8.6,-3.481 -12.698,-3.544 z"
         fill="#ffffff"
         font-family="sans-serif"
         font-weight="400"
         overflow="visible"
         style="font-variant-ligatures:normal;font-variant-position:normal;font-variant-caps:normal;font-variant-numeric:normal;font-variant-alternates:normal;font-feature-settings:normal;text-indent:0;text-decoration-line:none;text-decoration-style:solid;text-decoration-color:#000000;text-transform:none;text-orientation:mixed;white-space:normal;shape-padding:0;isolation:auto;mix-blend-mode:normal"
         id="path33979" />
    </g>
    <g
       transform="matrix(2.4074074,0,0,2.4074074,395.21841,140.74074)"
       id="g34174">
      <rect
         x="1.9862"
         y="8"
         width="54"
         height="54"
         ry="27"
         fill="#373738"
         stroke-width="0.90002"
         id="rect34140" />
      <g
         transform="matrix(1.3499,0,0,1.35,-522.55,-672.13)"
         fill="#ffffff"
         opacity="0.5"
         stroke-width="0.66668"
         id="g34154">
        <rect
           x="392.57001"
           y="512.79999"
           width="3"
           height="2"
           opacity="1"
           id="rect34142" />
        <rect
           x="392.57001"
           y="516.79999"
           width="3"
           height="2"
           opacity="1"
           id="rect34144" />
        <rect
           x="392.57001"
           y="520.79999"
           width="3"
           height="2"
           opacity="1"
           id="rect34146" />
        <rect
           x="392.57001"
           y="524.79999"
           width="3"
           height="2"
           opacity="1"
           id="rect34148" />
        <rect
           x="392.57001"
           y="528.79999"
           width="3"
           height="2"
           opacity="1"
           id="rect34150" />
        <rect
           x="392.57001"
           y="532.79999"
           width="3"
           height="2"
           opacity="1"
           id="rect34152" />
      </g>
      <g
         transform="matrix(1.3499,0,0,1.35,-483.4,-672.13)"
         fill="#ffffff"
         opacity="0.5"
         stroke-width="0.66668"
         id="g34168">
        <rect
           x="392.57001"
           y="512.79999"
           width="3"
           height="2"
           opacity="1"
           id="rect34156" />
        <rect
           x="392.57001"
           y="516.79999"
           width="3"
           height="2"
           opacity="1"
           id="rect34158" />
        <rect
           x="392.57001"
           y="520.79999"
           width="3"
           height="2"
           opacity="1"
           id="rect34160" />
        <rect
           x="392.57001"
           y="524.79999"
           width="3"
           height="2"
           opacity="1"
           id="rect34162" />
        <rect
           x="392.57001"
           y="528.79999"
           width="3"
           height="2"
           opacity="1"
           id="rect34164" />
        <rect
           x="392.57001"
           y="532.79999"
           width="3"
           height="2"
           opacity="1"
           id="rect34166" />
      </g>
      <rect
         x="15.485"
         y="24.200001"
         width="26.997999"
         height="21.6"
         rx="4.0847998"
         ry="3.5492001"
         fill="#db3447"
         stroke-width="0.89999"
         id="rect34170" />
      <path
         d="m 25.124,28.25 c -0.84635,-0.01688 -1.5417,0.66427 -1.5424,1.5108 v 10.476 c -0.0011,1.163 1.2561,1.8919 2.2647,1.3131 l 9.1251,-5.2392 c 1.0129,-0.58115 1.0129,-2.0424 0,-2.6236 l -9.1251,-5.2365 c -0.22017,-0.12636 -0.46861,-0.19529 -0.72242,-0.20039 z"
         color="#000000"
         color-rendering="auto"
         fill="#ffffff"
         image-rendering="auto"
         shape-rendering="auto"
         solid-color="#000000"
         stroke-width="0.89999"
         style="text-indent:0;text-decoration-line:none;text-decoration-style:solid;text-decoration-color:#000000;text-transform:none;white-space:normal;isolation:auto;mix-blend-mode:normal"
         id="path34172" />
    </g>
    <g
       transform="matrix(3.0695127,0,0,3.0695127,27.743908,398.70844)"
       stroke-width="0.7843"
       id="g43321">
      <use
         transform="translate(0,16)"
         width="100%"
         height="100%"
         fill="#ae1b29"
         xlink:href="#c-4"
         id="use43315"
         x="0"
         y="0" />
      <g
         transform="translate(0,16)"
         color="#000000"
         id="g43319">
        <path
           d="M 6.03,37.701 23.977,4.763 43.223,40.388 c 0,0 0.111,0.275 -0.39,0.133 -0.471,-0.134 -0.874,-0.529 -1.362,-0.487 -0.411,0.035 -0.656,0.63 -1.063,0.565 -0.582,-0.093 -0.88,-1.202 -1.469,-1.185 -0.519,0.015 -0.391,1.01 -1.166,1.072 -0.687,0.058 -0.575,-1.827 -1.267,-1.885 -0.469,-0.039 -0.574,1.942 -1.156,1.941 -0.616,0 0.025,-2.85 -0.863,-2.897 -0.695,-0.037 -0.313,2.501 -0.937,2.504 -0.861,0.004 -0.13,-4.157 -1.192,-4.139 -0.755,0.012 0.057,3.851 -0.926,3.839 -0.905,-0.011 -0.033,-5.941 -1.049,-5.869 -0.838,0.059 0.103,5.304 -0.819,5.326 -1.117,0.026 -0.005,-7.306 -1.114,-7.315 -0.981,-0.009 -0.102,6.486 -1,6.486 -1.094,0 0.003,-8.38 -1.037,-8.435 -1.132,-0.06 0.277,8.418 -0.957,8.409 -1.191,-0.009 0.34,-10.639 -1.04,-10.741 -1.13,-0.083 0.309,9.951 -0.851,9.995 -1.218,0.046 0.368,-11.688 -1.073,-11.691 -1.055,-0.003 0.074,11.242 -1.019,11.4 -1.01,-0.223 0.202,-12.413 -0.978,-12.417 -1.218,-0.004 0.206,12.12 -1.055,12.148 -1.057,0.014 0.449,-12.166 -0.939,-12.12 -1.276,0.038 0.049,12.07 -1,12.05 -1.132,-0.013 0.29,-11.13 -0.979,-11.06 -0.967,0.5 -0.037,8.599 -0.965,11.171 -1.017,-1.01 0.073,-7.962 -1.058,-9.186 -0.928,1.336 -0.202,9.355 -0.957,9.385 -0.927,0.045 -0.045,-6.291 -1.039,-6.351 -0.595,-0.036 -0.911,7.177 -1.64,7.205 -0.847,0.085 -0.754,-4.057 -1.34,-4.044 C 8.844,34.282 9.022,38.727 8.131,38.738 7.619,38.86 7.495,36.986 7.037,37.03 6.626,37.069 6.549,39.001 5.87,39.349 5.249,39.433 5.551,38.757 6.034,37.702"
           fill="#ff5555"
           stroke-width="0.7843"
           id="path43317" />
      </g>
    </g>
    <g
       id="g43446"
       transform="matrix(10.23622,0,0,10.23622,768.74956,428.32992)">
      <path
         d="m 2.57,2.117 c 0,0 -0.982,0 -0.982,0.977 0,0 -0.053,4.779 0.982,6.838 0.62,1.236 3.927,3.908 3.927,3.908 h 3.928 c 0,0 3.306,-2.672 3.927,-3.908 1.035,-2.06 0.982,-6.838 0.982,-6.838 0.139,-0.968 -0.982,-0.977 -0.982,-0.977 0,1.954 -1.964,1.954 -1.964,1.954 H 4.533 c 0,0 -1.963,0 -1.963,-1.954 z"
         fill="#5c4e3c"
         id="path43412" />
      <g
         transform="matrix(0.34395,0,0,0.34223,-43.43,-80.23)"
         id="g43418">
        <circle
           cx="159.87"
           cy="259.32999"
           r="4"
           fill="#ffffff"
           id="circle43414" />
        <path
           d="m 159.74,257.33 a 3,3 0 0 0 -2.874,2.995 3,3 0 0 0 3,3 3,3 0 0 0 3,-3 3,3 0 0 0 -2.85,-2.992 1.5,1.5 0 0 1 1.35,1.492 1.5,1.5 0 0 1 -1.5,1.5 1.5,1.5 0 0 1 -1.5,-1.5 1.5,1.5 0 0 1 1.374,-1.495 z"
           opacity="0.8"
           id="path43416" />
      </g>
      <g
         transform="matrix(0.34395,0,0,0.34223,-49.622,-80.23)"
         id="g43424">
        <circle
           cx="159.87"
           cy="259.32999"
           r="4"
           fill="#ffffff"
           id="circle43420" />
        <path
           d="m 159.74,257.33 a 3,3 0 0 0 -2.874,2.995 3,3 0 0 0 3,3 3,3 0 0 0 3,-3 3,3 0 0 0 -2.85,-2.992 1.5,1.5 0 0 1 1.35,1.492 1.5,1.5 0 0 1 -1.5,1.5 1.5,1.5 0 0 1 -1.5,-1.5 1.5,1.5 0 0 1 1.374,-1.495 z"
           opacity="0.8"
           id="path43422" />
      </g>
      <path
         d="m 6.497,13.84 c 0,0 0.575,0.977 1.964,0.977 1.388,0 1.964,-0.977 1.964,-0.977 0,0 -0.491,-0.977 -1.964,-0.977 -1.473,0 -1.964,0.977 -1.964,0.977 z"
         fill="#252525"
         fill-rule="evenodd"
         id="path43426" />
      <path
         transform="matrix(0.34395,0,0,0.34223,-2.546,-2.432)"
         d="m 34.537,45.086 a 5.5,5 0 0 1 0.072,0.791 5.5,5 0 0 1 -3.117,4.502 c 0.167,0.01 0.332,0.021 0.508,0.021 4.037,0 5.709,-2.855 5.709,-2.855 0,0 -0.846,-1.677 -3.172,-2.46 z"
         fill="url(#d)"
         fill-rule="evenodd"
         opacity="0.25"
         id="path43428"
         style="fill:url(#d-6)" />
    </g>
    <g
       fill-rule="evenodd"
       id="g43635"
       transform="matrix(9.4485861,0,0,9.4485861,975.21296,435.00521)">
      <path
         d="M 8.466,1.588 C 8.073,1.588 7.69,1.735 7.388,2.046 L 2.023,7.576 A 1.632,1.632 0 0 0 1.565,8.683 V 8.71 c 0,1.185 3.165,0.034 3.45,1.483 0.155,0.785 -1.725,0.425 -1.725,1.214 0,0.926 2.662,0.29 3.424,1.052 0.313,0.764 -1.019,0.64 -0.782,1.35 0.447,0.46 1.452,0.2 1.645,0.944 0.22,0.85 1.664,0.703 2.507,0.08 0.447,-0.46 -0.69,-0.671 -0.242,-1.133 0.446,-0.46 2.653,-0.368 2.669,-1.375 -0.211,-0.634 -1.04,-0.736 -1.052,-1.484 -0.044,-0.634 0.678,-0.449 2.966,-1.08 C 15.34,9.333 15.372,9.105 15.368,8.71 V 8.683 C 15.363,8.284 15.178,7.882 14.883,7.577 L 9.545,2.047 A 1.479,1.479 0 0 0 8.467,1.587 Z m 6.255,9.469 a 1.066,1.066 0 0 0 -0.297,0.027 c -0.146,0.042 -0.839,0.066 -0.782,0.593 0.628,0.263 1.585,0.473 1.699,-0.054 0.086,-0.395 -0.293,-0.554 -0.62,-0.566 z M 4.018,12.81 c -0.061,0.007 -0.102,0.032 -0.162,0.054 -0.476,0.181 -0.795,0.562 -0.35,0.729 0.444,0.166 0.742,-0.01 1.132,-0.216 0.39,-0.207 0.379,-0.244 0.35,-0.324 -0.054,0.01 -0.408,-0.21 -0.781,-0.243 a 0.986,0.986 0 0 0 -0.19,0 z"
         fill="#4d4d4d"
         id="path43631" />
      <path
         d="m 8.573,3.062 c 0.404,0.003 1.51,1.371 2.496,2.396 0.277,0.372 -0.146,0.798 -0.146,0.798 L 8.958,5.027 7.975,6.256 7.238,5.273 6.747,6.993 5.273,6.131 7.875,3.358 C 8.046,3.184 8.177,3.058 8.573,3.062 Z"
         fill="#ffffff"
         id="path43633" />
    </g>
    <g
       transform="matrix(8.7365591,0,0,8.7365591,584.24908,-2001.5309)"
       id="g43726">
      <path
         d="m 8.069,280.607 a 1.024,1.024 0 0 0 -0.727,0.301 1.025,1.025 0 0 0 0,1.453 l 2.854,2.854 h -7.44 a 1.025,1.025 0 0 0 -1.027,1.027 1.025,1.025 0 0 0 1.027,1.027 c 1.07,-0.003 2.587,-0.003 4.04,-0.003 l -5.264,5.263 a 1.025,1.025 0 0 0 0,1.452 1.025,1.025 0 0 0 1.452,0 c 0.773,-0.776 1.88,-1.883 2.93,-2.933 a 5.136,5.136 0 0 0 5.082,4.438 c 2.836,0 5.136,-2.3 5.136,-5.136 a 5.136,5.136 0 0 0 -1.76,-3.866 2564.902,2564.902 0 0 1 -5.577,-5.576 1.024,1.024 0 0 0 -0.726,-0.302 z m 2.987,8.521 a 1.199,1.199 0 1 1 0,2.398 1.199,1.199 0 0 1 0,-2.398 z"
         fill="#ff892c"
         id="path43712" />
      <path
         d="m 11.052,286.38 a 3.946,3.946 0 0 0 -3.946,3.946 3.946,3.946 0 0 0 3.946,3.946 3.946,3.946 0 0 0 3.945,-3.946 3.946,3.946 0 0 0 -3.945,-3.946 z m 0,2.403 a 1.543,1.543 0 0 1 1.543,1.543 1.543,1.543 0 0 1 -1.543,1.543 1.543,1.543 0 0 1 -1.544,-1.543 1.543,1.543 0 0 1 1.544,-1.543 z"
         fill="#ffffff"
         fill-opacity="0.099"
         id="path43714" />
      <path
         d="m 11.052,287.25 a 3.082,3.082 0 0 0 -3.082,3.081 3.082,3.082 0 0 0 3.082,3.082 3.082,3.082 0 0 0 3.081,-3.082 3.082,3.082 0 0 0 -3.081,-3.081 z m 0,1.876 a 1.205,1.205 0 0 1 1.205,1.205 1.205,1.205 0 0 1 -1.205,1.205 1.205,1.205 0 0 1 -1.206,-1.205 1.205,1.205 0 0 1 1.206,-1.205 z"
         fill="#ffffff"
         id="path43716" />
      <circle
         cx="11.052"
         cy="290.32999"
         r="1.577"
         display="block"
         fill="#2e57b1"
         overflow="visible"
         style="isolation:auto;mix-blend-mode:normal"
         paint-order="fill markers stroke"
         id="circle43718" />
      <path
         d="m 8.069,280.607 a 1.024,1.024 0 0 0 -0.727,0.301 1.025,1.025 0 0 0 0,1.453 l 2.854,2.854 -2.127,-4.609 z"
         fill="#ffffff"
         opacity="0.1"
         id="path43720" />
      <path
         d="m 1.974,285.523 a 1.024,1.024 0 0 0 -0.3,0.727 1.025,1.025 0 0 0 1.027,1.027 h 4.036 z"
         fill="#ffffff"
         opacity="0.1"
         id="path43722" />
      <path
         d="m 1.318,293.143 c 0,0.262 0.101,0.525 0.302,0.726 a 1.025,1.025 0 0 0 1.453,0 l 2.854,-2.854 z"
         fill="#ffffff"
         opacity="0.1"
         id="path43724" />
    </g>
    <g
       transform="matrix(9.4482164,0,0,9.4482164,970.00758,-2501.1253)"
       paint-order="stroke markers fill"
       id="g48161">
      <g
         transform="matrix(1,0,0,1.04,0,-11.541)"
         id="g48153">
        <rect
           ry="0.52899998"
           y="281.91901"
           x="2.1170001"
           height="13.229"
           width="12.7"
           fill="#549bff"
           id="rect48147" />
        <path
           d="m 2.646,281.919 a 0.528,0.528 0 0 0 -0.53,0.529 v 5.045 a 9.26,9.26 0 0 0 8.467,5.538 9.26,9.26 0 0 0 4.234,-1.027 v -9.556 a 0.528,0.528 0 0 0 -0.53,-0.53 z"
           opacity="0.1"
           fill="#0000ff"
           id="path48149" />
        <path
           d="m 2.646,281.919 a 0.528,0.528 0 0 0 -0.53,0.529 v 12.17 c 0,0.294 0.237,0.53 0.53,0.53 h 5.909 a 10.583,10.583 0 0 0 6.262,-5.472 v -7.228 a 0.528,0.528 0 0 0 -0.53,-0.53 z"
           opacity="0.1"
           fill="#0000ff"
           id="path48151" />
      </g>
      <path
         d="m 5.292,284.035 a 3.175,3.175 0 0 0 3.175,3.175 3.175,3.175 0 0 0 3.175,-3.175 h -0.794 a 2.381,2.381 0 0 1 -2.381,2.382 2.381,2.381 0 0 1 -2.382,-2.382 z"
         fill="#ffffff"
         id="path48155" />
      <rect
         width="1.587"
         height="2.6459999"
         x="7.6729999"
         y="288.798"
         ry="0"
         fill="#ffffff"
         id="rect48157" />
      <path
         d="m 6.35,291.444 h 4.233 l -2.116,2.116 z"
         fill="#ffffff"
         id="path48159" />
    </g>
    <g
       id="g48509"
       transform="matrix(3.3332969,0,0,3.3332969,768.33532,143.33352)">
      <path
         fill="#3fc778"
         d="M 21.647,5 C 14.118,5 8.056,11.093 8.005,18.68 H 7.99949 v 20.519 c 0,2.1052 1.4143,3.7999 3.5,3.7999 2.0856,0 3.5,-0.89478 3.5,-2.9999 0,2.1052 2.4144,2.9999 4.5,2.9999 2.4192,0.03292 4.4465,-1.2359 4.5,-2.9999 0,2.1052 2.4143,2.9999 4.5,2.9999 2.4192,0.03292 4.4465,-1.2359 4.5,-2.9999 0,2.1052 1.4144,2.9999 3.5,2.9999 2.0856,0 3.5,-1.6948 3.5,-3.7999 v -20.52 h -0.0055 C 39.94399,11.093 33.88199,5 26.35299,5 Z"
         id="path48476" />
      <rect
         opacity="0.2"
         width="8"
         height="8"
         x="30"
         y="16"
         ry="4"
         id="rect48478" />
      <rect
         fill="#ecf0f1"
         width="8"
         height="8"
         x="30"
         y="15"
         ry="4"
         id="rect48480" />
      <rect
         fill="#494949"
         width="3"
         height="3"
         x="35"
         y="17"
         ry="1.5"
         id="rect48482" />
      <rect
         opacity="0.2"
         width="8"
         height="8"
         x="15"
         y="16"
         ry="4"
         id="rect48484" />
      <rect
         fill="#ecf0f1"
         width="8"
         height="8"
         x="15"
         y="15"
         ry="4"
         id="rect48486" />
      <rect
         fill="#494949"
         width="3"
         height="3"
         x="20"
         y="17"
         ry="1.5"
         id="rect48488" />
      <path
         fill="#ffffff"
         opacity="0.2"
         d="M 21.646,5 C 14.118,5 8.057,11.093 8.006,18.68 H 8 v 1 H 8.0059 C 8.0566,12.093 14.118,6 21.6459,6 h 4.708 c 7.528,0 13.589,6.093 13.64,13.68 h 0.006 v -1 h -0.006 C 39.9429,11.093 33.8819,5 26.3539,5 h -4.708 z"
         id="path48490" />
      <path
         opacity="0.2"
         d="m 8,39.199 v 1 c 0,2.1052 1.4144,3.8008 3.5,3.8008 2.0856,0 3.5,-0.89483 3.5,-3 0,2.1052 2.4144,3 4.5,3 2.4192,0.03292 4.4465,-1.236 4.5,-3 0,2.1052 2.4144,3 4.5,3 2.4192,0.03292 4.4465,-1.236 4.5,-3 0,2.1052 1.4144,3 3.5,3 2.0856,0 3.5,-1.6956 3.5,-3.8008 v -1 c 0,2.1052 -1.4144,3.8008 -3.5,3.8008 -2.0856,0 -3.5,-0.89483 -3.5,-3 -0.05351,1.764 -2.0808,3.0329 -4.5,3 -2.0856,0 -4.5,-0.89483 -4.5,-3 -0.05351,1.764 -2.0808,3.0329 -4.5,3 -2.0856,0 -4.5,-0.89483 -4.5,-3 0,2.1052 -1.4144,3 -3.5,3 -2.0856,0 -3.5,-1.6956 -3.5,-3.8008 z"
         id="path48492" />
    </g>
    <g
       id="g48838"
       transform="matrix(2.5,0,0,2.5,580,145)">
      <rect
         x="6"
         y="6"
         width="52"
         height="52"
         rx="8"
         ry="8"
         fill="#3584e4"
         stroke-width="0.92858"
         id="rect48823" />
      <path
         d="M 32,10 14,15.8035 23.1958,47.2275 32,54.0005 40.8042,47.2275 50,15.8035 Z"
         fill="#3d3846"
         id="path48825" />
      <path
         d="m 31.984,11 -3.9844,5.1992 2.0039,24.238 1.9922,2.5625 1.9844,-2.543 2.0195,-24.25 z m -7.1602,30 -0.82422,1.9922 0.83984,2.0078 4.2852,-0.75781 0.875,-1.2461 -0.875,-1.25 z m 14.148,0 -4.2969,0.74609 -0.875,1.25 0.875,1.2461 L 38.9601,45 39.79994,42.9922 Z m -6.9688,4 -1.2461,0.875 -0.75781,4.2891 2.0078,0.83594 1.9922,-0.82422 -0.75,-4.3008 z"
         fill="#ffc414"
         id="path48827" />
    </g>
    <g
       transform="matrix(9.0987459,0,0,9.0987459,17.962834,-2400.3558)"
       id="g50944">
      <g
         transform="matrix(1.0385,0,0,1.0385,-0.32619,-11.098)"
         stroke-width="0.92729"
         id="g50938">
        <circle
           cx="8.467"
           cy="288.53"
           r="6.8790002"
           fill="#2d9cf2"
           style="paint-order:stroke markers fill"
           id="circle50936" />
      </g>
      <path
         d="m 6.53,284.3 a 2.295,2.295 0 0 0 -2.297,2.296 c 0,0.392 0.1,0.771 0.273,1.094 a 4.05,4.05 0 0 0 4.804,4.803 c 0.325,0.176 0.699,0.274 1.093,0.274 A 2.295,2.295 0 0 0 12.7,290.47 c 0,-0.394 -0.1,-0.77 -0.274,-1.095 A 4.05,4.05 0 0 0 7.622,284.573 2.333,2.333 0 0 0 6.528,284.3"
         fill="#ffffff"
         id="path50940" />
      <path
         d="m 8.543,286.115 c 1.194,0 1.81,0.63 1.81,1 0,0.371 -0.178,0.427 -0.47,0.427 -0.57,0 -0.337,-0.686 -1.403,-0.686 -0.353,0 -0.794,0.161 -0.794,0.574 0,0.331 0.39,0.453 1.08,0.623 1.038,0.278 1.817,0.556 1.817,1.51 0,0.925 -0.754,1.39 -1.947,1.39 -1.194,0 -1.956,-0.714 -1.956,-1.084 0,-0.37 0.14,-0.463 0.433,-0.463 0.57,0 0.494,0.778 1.56,0.778 0.354,0 0.877,-0.161 0.877,-0.575 0,-0.33 -0.028,-0.444 -0.785,-0.648 -0.808,-0.11 -2.113,-0.373 -2.113,-1.381 0,-0.926 0.7,-1.465 1.893,-1.465"
         fill="#2d9cf2"
         id="path50942" />
    </g>
    <g
       id="g51385"
       transform="matrix(9.448444,0,0,9.448444,204.99807,434.99725)">
      <path
         d="M 8.448,1.588 A 1.251,1.251 0 0 0 7.582,1.954 L 1.954,7.583 a 1.25,1.25 0 0 0 0,1.768 l 5.628,5.629 a 1.25,1.25 0 0 0 1.769,0 l 5.628,-5.629 a 1.25,1.25 0 0 0 0,-1.768 L 9.351,1.954 A 1.25,1.25 0 0 0 8.448,1.588 Z"
         fill="#4caf50"
         fill-rule="evenodd"
         font-family="sans-serif"
         font-weight="400"
         overflow="visible"
         style="text-indent:0;text-decoration-line:none;text-decoration-style:solid;text-decoration-color:#000000;text-transform:none;white-space:normal;isolation:auto;mix-blend-mode:normal"
         id="path51367" />
      <path
         d="m 3.464,3.464 c -0.313,0 -0.313,0.312 -0.313,0.312 v 1.251 c 0,0 0,0.315 0.313,0.313 L 3.776,5.338 v 7.505 c 0,0.346 0.28,0.625 0.626,0.625 h 0.957 c 0.033,-0.012 6.946,-7.055 7.994,-8.13 L 13.47,5.34 c 0.312,0.006 0.312,-0.313 0.312,-0.313 V 3.777 C 13.782,3.464 13.47,3.464 13.47,3.464 H 9.717 c 0,0 -0.312,0 -0.312,0.312 v 1.251 c 0,0.313 0.312,0.313 0.312,0.313 0,0 0.313,0 0.294,-0.002 L 6.903,8.467 V 5.337 L 7.216,5.34 C 7.529,5.342 7.529,5.027 7.529,5.027 V 3.777 C 7.529,3.43 7.216,3.464 7.216,3.464 Z"
         fill="#ffffff"
         fill-rule="evenodd"
         stroke="#000000"
         stroke-opacity="0.098"
         stroke-width="0.265"
         paint-order="markers stroke fill"
         id="path51369" />
      <g
         fill="#ffffff"
         font-family="sans-serif"
         font-size="4.304px"
         font-style="italic"
         font-weight="700"
         letter-spacing="0"
         stroke="#000000"
         stroke-opacity="0.098"
         stroke-width="0.265"
         word-spacing="0"
         aria-label="im"
         paint-order="markers stroke fill"
         id="g51373">
        <path
           d="m 8.607,13.517 h 0.629 l 0.482,-2.41 H 9.089 Z M 9.485,10.72 A 0.446,0.446 0 0 0 9.929,10.375 C 9.972,10.169 9.839,10.031 9.623,10.031 a 0.443,0.443 0 0 0 -0.448,0.344 c -0.038,0.198 0.09,0.345 0.31,0.345 z m 0.434,2.797 h 0.628 l 0.332,-1.657 c 0.206,-0.18 0.383,-0.27 0.52,-0.27 0.228,0 0.306,0.133 0.233,0.503 l -0.284,1.424 h 0.632 l 0.332,-1.657 c 0.206,-0.18 0.383,-0.27 0.52,-0.27 0.229,0 0.306,0.133 0.233,0.503 l -0.284,1.424 h 0.633 l 0.301,-1.502 c 0.12,-0.607 -0.043,-0.968 -0.555,-0.968 -0.314,0 -0.586,0.19 -0.852,0.422 -0.06,-0.267 -0.233,-0.422 -0.577,-0.422 -0.314,0 -0.573,0.172 -0.818,0.383 h -0.017 l 0.021,-0.323 h -0.516 z"
           id="path51371" />
      </g>
    </g>
    <g
       id="g53546"
       transform="matrix(9.0990537,0,0,9.0990537,1187.9629,147.96286)">
      <path
         d="m 8.4665,1.3229 c 3.9454,0 7.1436,3.1982 7.1436,7.1436 0,3.9454 -3.1982,7.1436 -7.1436,7.1436 -3.9454,0 -7.1436,-3.1982 -7.1436,-7.1436 0,-3.9454 3.1982,-7.1436 7.1436,-7.1436 z"
         fill="#4d4d4d"
         stroke-width="0.2876"
         id="path53519" />
      <path
         d="m 8.467,2.91 a 5.5565,5.5565 0 1 1 0,11.113 5.5565,5.5565 0 0 1 0,-11.113 z"
         fill="#ffffff"
         opacity="0.05"
         id="path53521" />
      <g
         transform="matrix(0.26458,0,0,0.26458,2.117,2.381)"
         fill="#ffffff"
         id="g53531">
        <path
           d="m 26,18 v 9.625 l 3.684,0.957 4.287,-6.742 H 30.346 L 26,18"
           id="path53523" />
        <path
           d="m 31,11 a 6,6 0 0 0 -6,6 6,6 0 0 0 6,6 6,6 0 0 0 6,-6 6,6 0 0 0 -6,-6 z m 0,2 a 4,4 0 0 1 4,4 4,4 0 0 1 -4,4 4,4 0 0 1 -4,-4 4,4 0 0 1 4,-4 z m 0,2 a 2,2 0 0 0 -2,2 2,2 0 0 0 2,2 2,2 0 0 0 2,-2 2,2 0 0 0 -2,-2 z m -16,6 a 4,4 0 0 0 -4,4 4,4 0 0 0 4,4 4,4 0 0 0 4,-4 4,4 0 0 0 -4,-4 z m 0,1 a 3,3 0 0 1 3,3 3,3 0 0 1 -3,3 3,3 0 0 1 -3,-3 3,3 0 0 1 3,-3 z"
           id="path53525" />
        <rect
           transform="matrix(0.8931,0.44985,-0.45815,0.88887,0,0)"
           x="22.784"
           y="13.579"
           width="17.423"
           height="3.964"
           rx="1.982"
           id="rect53527" />
        <path
           d="m 27,27 a 4,4 0 0 0 -4,4 4,4 0 0 0 4,4 4,4 0 0 0 4,-4 4,4 0 0 0 -4,-4 z m 0,1 a 3,3 0 0 1 3,3 3,3 0 0 1 -3,3 3,3 0 0 1 -3,-3 3,3 0 0 1 3,-3 z"
           id="path53529" />
      </g>
    </g>
    <g
       id="g53629"
       transform="matrix(3.1707317,0,0,3.1707317,1187.3171,437.31707)">
      <circle
         style="opacity:0.2"
         cx="24"
         cy="25"
         r="20"
         id="circle53608" />
      <circle
         style="fill:#992b2b"
         cx="24"
         cy="24"
         r="20"
         id="circle53610" />
      <path
         style="opacity:0.2"
         d="m 24.620456,11.000015 c -0.790067,-0.0018 -1.398122,0.128315 -1.649187,0.40626 -0.39832,0.440963 -1.315661,3.728775 -2.4601,8.754116 -0.825686,3.616203 -0.25155,5.725027 0.312642,6.85368 0.721306,1.442955 1.28274,2.310013 0.142643,5.189578 -0.825704,2.085496 -1.667904,2.085296 -2.450331,2.184528 -1.885615,-0.453239 -3.309879,-0.468761 -3.495726,0.04102 -0.254229,0.697348 1.897647,2.509621 4.802961,3.555844 2.905312,1.046222 5.471025,1.330174 5.725253,0.632828 0.186456,-0.511447 -0.923112,-1.406856 -2.673088,-2.261773 -0.768233,-0.791214 -1.458364,-1.342394 -0.849994,-3.79306 1.190147,-4.794212 3.005181,-3.147513 5.144911,-6.127101 1.815051,-2.52747 2.296289,-4.467345 3.347222,-7.429866 1.113495,-3.138876 1.601825,-4.592077 1.457692,-4.879023 -0.970778,-1.932662 -4.984699,-3.121571 -7.354898,-3.127028 z m -2.714122,6.384919 c 1.147075,1.254617 2.194364,1.578505 3.138975,1.615753 2.33096,0.09191 4.03669,-2.156409 5.073734,-0.812999 -0.499066,1.638422 -3.506669,11.559331 -7.515128,9.787343 -3.320528,-1.446788 -1.398508,-8.825097 -0.697581,-10.590097 z"
         id="path53612" />
      <path
         style="fill:#ffffff"
         d="m 24.620456,9.999328 c -0.790067,-0.00182 -1.398122,0.128315 -1.649187,0.40626 -0.39832,0.440963 -1.315661,3.728775 -2.4601,8.754116 -0.825686,3.616203 -0.25155,5.725027 0.312642,6.85368 0.721306,1.442955 1.28274,2.310013 0.142643,5.189578 -0.825704,2.085496 -1.667904,2.085296 -2.450331,2.184528 -1.885615,-0.453239 -3.309879,-0.468761 -3.495726,0.04102 -0.254229,0.697348 1.897647,2.509621 4.802961,3.555844 2.905312,1.046222 5.471025,1.330174 5.725253,0.632828 0.186456,-0.511447 -0.923112,-1.406856 -2.673088,-2.261773 -0.768233,-0.791214 -1.458364,-1.342394 -0.849994,-3.79306 1.190147,-4.794212 3.005181,-3.147513 5.144911,-6.127101 1.815051,-2.52747 2.296289,-4.467345 3.347222,-7.429866 1.113495,-3.138876 1.601825,-4.592077 1.457692,-4.879023 -0.970778,-1.932662 -4.984699,-3.121571 -7.354898,-3.127028 z m -2.714122,6.384919 c 1.147075,1.254617 2.194364,1.578505 3.138975,1.615753 2.33096,0.09191 4.03669,-2.156409 5.073734,-0.812999 -0.499066,1.638422 -3.506669,11.559331 -7.515128,9.787343 -3.320528,-1.446788 -1.398508,-8.825097 -0.697581,-10.590097 z"
         id="path53614" />
      <path
         style="opacity:0.1;fill:#ffffff"
         d="M 24,4 A 20,20 0 0 0 4,24 20,20 0 0 0 4.0058594,24.511719 20,20 0 0 1 24,5 20,20 0 0 1 43.994141,24.488281 20,20 0 0 0 44,24 20,20 0 0 0 24,4 Z"
         id="path53616" />
    </g>
    <g
       id="g2675"
       transform="matrix(2.3214543,0,0,2.3214543,20.714817,300.71418)">
      <g
         stroke-linecap="round"
         stroke-linejoin="round"
         stroke-opacity="0.196"
         id="g2634">
        <path
           d="m 12.849,49.816 c 2.429,3.494 5.564,7.61 9.144,8.162 -1.4,-0.81 -4.901,-3.98 -5.998,-9.996 1.164,2.28 6.42,5.303 7.997,5.997 -0.784,-0.731 -3.792,-5.12 -3.999,-7.696 l -10.084,-3.1 c 0.063,0.095 0.286,2.9 2.94,6.633 z"
           fill="#304776"
           id="path2620" />
        <path
           d="M 48.757,24.98 30.575,18.603 11.089,19.902 6.116,26.108 c 0.885,5.737 0.335,11.947 3.417,16.959 l 34.45,10.912 4.745,-13.243 z"
           fill="#dcdcdc"
           id="path2622" />
        <path
           d="m 11.556,19.529 3.282,0.469 0.902,-4.394 -1.803,0.879 z"
           fill="#3f7da7"
           fill-rule="evenodd"
           id="path2624" />
        <path
           d="M 47.278,28.476 44.58,19.615 11.586,19.284 11.398,19.514 11.089,19.902 24,38 Z"
           fill="#f7f7f7"
           id="path2626" />
        <path
           d="m 30.504,8.335 c -0.004,10e-4 -4.149,0.02 -5.958,0.601 -3.015,0.696 -5.72,1.979 -8.4,3.464 -3.48,2.34 -6.33,5.579 -8.531,9.124 -1.937,3.418 -3.11,7.22 -3.546,11.115 -0.26,3.95 0.193,7.975 1.68,11.67 2.816,6.347 9.786,13.748 16.244,13.669 -0.82,-0.127 -1.445,-0.958 -2.216,-1.408 -2.592,-1.515 -5.056,-4.061 -6.928,-6.754 -2.654,-3.732 -2.877,-6.537 -2.94,-6.632 l 0.036,0.01 C 9.058,40.39 8.531,37.49 8.208,34.524 8.166,33.861 8.084,33.143 8.322,33.319 c 0.893,1.416 2.124,1.864 3.675,2.668 -1.47,-2.313 -2.141,-4.964 -1.9,-7.713 0.243,-2.758 1.8,-5.432 3.508,-7.414 4.478,-5.126 11.012,-9.273 16.899,-12.525 z"
           fill="#2f5da4"
           id="path2628" />
        <path
           d="m 25.99,4 c -4.736,0.126 -7.397,4.978 -9.264,8.722 -0.672,1.19 -1.37,2.603 -1.957,3.727 -1.124,1.771 -0.464,3.899 -0.231,5.837 -0.025,0.53 0.3,1.646 0.046,1.758 -0.514,1.553 -1.004,3.557 0.225,4.913 0.39,-1.755 2.305,-2.6 3.815,-3.34 1.706,-0.74 3.087,-2.362 4.777,-3.141 2.227,-1.277 4.376,0.524 7.237,0.524 2.734,0 5.623,-1 8.329,-2.216 0.63,0.651 1.756,1.71 2.248,2.482 h -0.007 c 1.41,2.256 2.388,4.878 2.71,7.451 0.4,3.366 0.064,6.718 -1.926,9.266 l -0.016,0.004 h 0.014 c 0.041,0.005 3.61,0.259 5.992,-2.001 -1.699,13.135 -9.753,20.157 -13.994,21.99 5.646,0.38 9.995,-3.998 9.995,-3.998 0.822,-1.169 -1.984,2.796 -3.998,3.999 3.69,-1.033 6.16,-1.409 8.488,-3.107 -10e-4,0 1.891,-1.03 3.865,-3.282 0.263,-0.3 0.714,-0.715 0.984,-1.056 0.168,-0.212 0.324,-0.43 0.488,-0.642 0.029,-0.035 0.062,-0.069 0.09,-0.104 4.154,-5.082 6.177,-11.4 6.027,-17.126 C 59.956,27.72 57.139,21.695 52.407,16.714 48.985,13.112 45.098,10.708 41.597,9.515 37.063,8.213 31.467,7.658 27.466,8.415 27.086,8.542 27.522,6.332 27.99,5.999 26.868,6.104 25.652,8.592 24.742,9.145 25.489,7.909 25.093,7.168 25.991,5.999 22.654,6.622 23.064,9.406 21.012,11.351 21.688,7.737 23.179,6.326 25.991,4 Z"
           fill="#4a7ae1"
           id="path2630" />
        <path
           d="M 16.615,23.992 C 23.28,23.8 19.095,19.669 27.99,11.997 20.744,15.749 13.846,15.743 16.624,23.992 h -0.008 z"
           fill="#ffffff"
           opacity="0.1"
           id="path2632" />
      </g>
      <path
         d="m 20.61,20.64 c -0.638,1.167 -2.13,1.637 -2.954,1.198 -0.843,-0.44 -0.839,-1.909 -0.186,-3.076 0.63,-1.167 3.413,-0.643 3.426,-0.643 0.013,0 0.354,1.358 -0.285,2.52 z"
         fill="#ffffff"
         opacity="0.25"
         id="path2636" />
      <path
         d="m 17.815,25.96 c 0,0 0.36,-0.347 0.172,-0.98 -2.237,0.74 -3.336,-1.402 -3.328,-1.402 0.008,0 -1.676,4.412 0.334,6.411 0.174,-1.646 2.74,-3.944 2.747,-3.944"
         fill="#5c5f60"
         stroke="#000000"
         stroke-linecap="round"
         stroke-linejoin="round"
         stroke-opacity="0.196"
         id="path2638" />
      <circle
         cx="19"
         cy="20"
         r="1"
         fill="#212a3c"
         opacity="0.75"
         id="circle2640" />
      <circle
         cx="19.219"
         cy="19.669001"
         r="0.5"
         fill="#ffffff"
         opacity="0.5"
         id="circle2642" />
      <path
         d="m 49.288,41.288 c -0.85019,3.7751 -0.99616,5.4278 -4.1356,10.847 2.4611,-0.5246 4.4869,-1.8141 4.4869,-1.8141 0,0 -0.0355,0.92441 -1.1053,2.5797 2.5782,-0.55457 3.3291,-1.3695 4.5506,-2.5622 1.2966,-1.266 2.2923,-3.0705 3.1211,-4.6821 0.79933,-1.5545 1.3039,-3.0882 1.7603,-4.7755 0.34551,-1.2772 0.54237,-3.9322 0.54237,-3.9322 l -8.8136,-0.81356 c 0,0 -0.02826,3.4718 -0.40678,5.1525 z"
         fill="url(#f)"
         id="path2644"
         style="fill:url(#f)" />
      <path
         d="m 44.645,27.525 c 0.54301,2.0278 1.0838,4.678 0.67697,7.2881 -0.413,2.65 -0.77966,3.1525 -0.77966,3.1525 0,0 2.9153,-0.74576 3.7288,-1.6271 0.81356,-0.88136 1.017,-1.0169 1.017,-1.0169 0,0 0.54237,1.5932 0.40678,3.1864 -0.09774,1.1484 -0.20339,1.8983 -0.20339,1.8983 0,0 2.4407,-1.4915 2.9831,-2.7797 0.54237,-1.2881 0.67797,-2.1695 0.67797,-2.1695 0,0 0.80534,2.1893 0.87313,3.4097 0.0678,1.2203 -0.35955,2.4249 -0.35955,2.4249 0,0 2.0039,-0.81328 2.7961,-2.1058 0.84575,-1.3799 1.131,-2.5085 1.131,-2.5085 0,0 0.16949,2.4746 -0.1017,3.0847 0.51382,-0.33064 1.1203,-1.1899 1.2943,-1.773 0.38802,-1.3 0.40118,-2.5331 0.33281,-3.888 -0.11694,-2.3178 -0.83365,-5.5185 -1.8983,-8.0678 -0.6065,-1.4523 -2.1356,-4.1695 -2.1356,-4.1695 l -11.814,2.2533 c 0,0 1.0484,2.1887 1.3748,3.4077 z"
         fill="url(#g)"
         id="path2646"
         style="fill:url(#g)" />
      <path
         d="m 41.593,21.085 c 2.2303,2.4508 3.2546,4.1501 4.0678,7.1186 0.7249,-2.1338 1.1186,-5.0508 1.1186,-5.0508 0,0 1.9773,1.8275 3.7627,5.6949 0.94198,-2.5661 0.91525,-5.1186 0.91525,-5.1186 0,0 1.9777,2.079 3.017,4.5763 0.70853,-2.5001 0.1356,-4.7797 0.1356,-4.7797 0,0 1.2419,1.213 1.8644,2.7119 0.46792,-2.7808 -0.69516,-4.1117 -1.7288,-5.4237 -1.3566,-1.7219 -2.7882,-2.9788 -4.3051,-4.339 -1.2692,-1.1381 -2.6063,-2.2048 -4,-3.1864 -1.8083,-1.2736 -4.339,-2 -4.339,-2 l -6.6102,6.1017 c 0,0 2.4019,1.0261 3.2881,1.4915 0.851,0.44694 2.3238,1.6652 2.8136,2.2034 z"
         fill="url(#e)"
         id="path2648"
         style="fill:url(#e)" />
      <path
         d="m 9.422,25.766 c -0.5186,2.1168 -0.81537,3.8958 -0.18013,6.8738 -1.7027,-1.9709 -1.6487,-3.4535 -1.6487,-3.4535 0,0 -1.03,1.1867 -1.3915,5.4659 -0.89462,-1.3787 -0.84807,-2.2958 -0.88958,-3.4898 -0.050356,-1.4485 0.38663,-2.855 0.78959,-4.2472 0.33428,-1.1549 0.7929,-2.2763 1.322,-3.3559 0.39913,-0.81436 1.3898,-2.339 1.3898,-2.339 l 2.1852,1.1683 c 0,0 -1.2557,2.0669 -1.5768,3.3775 z"
         fill="url(#d)"
         id="path2650"
         style="fill:url(#d)" />
      <path
         d="m 5.5085,38.661 c 0.54768,2.0975 0.15764,3.313 4.2203,8.9661 C 6.7001,40.824 6.983,35.4581 6.983,35.4581 L 5.1525,35.3903 c 0,0 0.079378,2.2121 0.35593,3.2712 z"
         fill="url(#c)"
         id="path2652"
         style="fill:url(#c)" />
    </g>
    <g
       id="g24307"
       transform="matrix(9.0991812,0,0,9.0991812,387.96269,437.96269)">
      <g
         id="g24273">
        <rect
           x="1.3229001"
           y="1.3229001"
           width="14.287"
           height="14.287"
           ry="7.1436"
           fill="url(#a)"
           style="fill:url(#a-97);paint-order:stroke markers fill"
           id="rect24267" />
        <path
           d="m 8.4665,1.3229 c -1.3783,0 -2.6625,0.38744 -3.7516,1.0583 h 7.5033 C 11.1291,1.71032 9.8448,1.3229 8.4666,1.3229 Z"
           opacity="0.35"
           style="paint-order:stroke markers fill"
           id="path24269" />
        <rect
           x="7.1436"
           y="1.5875"
           width="2.6458001"
           height="0.52916002"
           ry="0.26508"
           opacity="0.35"
           style="paint-order:stroke markers fill"
           id="rect24271" />
      </g>
      <path
         transform="scale(0.26458)"
         d="m 12.785,50.998 c 1.9818,2.0044 4.2779,3.6942 6.8086,5 h 24.812 c 2.5307,-1.3058 4.8268,-2.9956 6.8086,-5 h -38.43 z"
         fill="#ffffff"
         opacity="0.35"
         stroke-width="3.7796"
         style="paint-order:stroke markers fill"
         id="path24275" />
      <g
         fill="#ccdfff"
         id="g24285">
        <rect
           x="4.4980001"
           y="12.7"
           width="1.323"
           height="1.323"
           ry="0.132"
           style="paint-order:stroke markers fill"
           id="rect24277" />
        <rect
           x="6.7030001"
           y="12.7"
           width="1.323"
           height="1.323"
           ry="0.132"
           style="paint-order:stroke markers fill"
           id="rect24279" />
        <rect
           x="8.908"
           y="12.7"
           width="1.323"
           height="1.323"
           ry="0.132"
           style="paint-order:stroke markers fill"
           id="rect24281" />
        <rect
           x="11.113"
           y="12.7"
           width="1.323"
           height="1.323"
           ry="0.132"
           style="paint-order:stroke markers fill"
           id="rect24283" />
      </g>
      <path
         d="m 8.467,4.763 a 0.794,0.794 0 0 0 -0.265,1.54 v 0.84 H 7.012 A 0.132,0.132 0 0 0 6.879,7.276 V 7.54 c 0,0.074 0.06,0.133 0.132,0.133 h 1.191 v 2.645 A 0.265,0.265 0 0 1 7.938,10.583 H 7.805 C 7.607,10.583 7.018,10.355 6.657,10.175 6.211,9.952 6.211,9.841 6.24,9.789 6.33,9.631 6.482,9.763 6.482,9.763 6.482,9.763 6.536,9.525 6.218,9.26 6.111,9.172 5.89,9.06 5.821,8.995 5.682,8.867 5.685,8.731 5.609,8.731 c -0.098,0 -0.317,0.483 -0.317,0.794 0,0.31 0,0.653 0.264,0.793 0,-0.12 0.106,-0.264 0.265,-0.185 0.073,0.037 0.427,0.273 0.815,0.517 0.574,0.36 1.444,0.47 1.83,0.991 0.388,-0.52 1.257,-0.63 1.831,-0.991 0.388,-0.244 0.745,-0.473 0.815,-0.517 0.13,-0.08 0.265,-0.08 0.265,0.185 0.265,-0.14 0.265,-0.484 0.265,-0.793 0,-0.31 -0.246,-0.794 -0.344,-0.794 -0.072,0 -0.047,0.136 -0.186,0.264 -0.07,0.065 -0.29,0.177 -0.396,0.265 -0.319,0.265 -0.265,0.503 -0.265,0.503 0,0 0.152,-0.132 0.242,0.026 0.03,0.052 0.029,0.164 -0.417,0.386 -0.36,0.18 -0.95,0.408 -1.148,0.408 H 8.996 A 0.265,0.265 0 0 1 8.731,10.318 V 7.673 h 1.19 A 0.132,0.132 0 0 0 10.054,7.54 V 7.276 c 0,-0.074 -0.06,-0.117 -0.132,-0.133 H 8.732 V 6.303 A 0.794,0.794 0 0 0 8.467,4.763 m 0,0.528 a 0.265,0.265 0 1 1 0,0.53 0.265,0.265 0 0 1 0,-0.53 z"
         opacity="0.35"
         id="path24287" />
    </g>
  </g>
  <g
     inkscape:groupmode="layer"
     id="layer3"
     inkscape:label="Capa 3"
     sodipodi:insensitive="true">
    <text
       xml:space="preserve"
       id="text1059"
       style="font-weight:500;font-size:82.6667px;font-family:Roboto;-inkscape-font-specification:'Roboto Medium';text-align:center;white-space:pre;shape-inside:url(#rect1061);display:inline;opacity:1;fill:#0a0a0a;fill-opacity:1;fill-rule:evenodd;stroke-width:0;paint-order:markers fill stroke"
       transform="translate(-1.3532353,829.9902)"
       sodipodi:insensitive="true"><tspan
         x="30.626672"
         y="-127.14252"
         id="tspan1444"><tspan
           style="fill:#ffffff"
           id="tspan1432">A </tspan><tspan
           style="font-weight:bold;-inkscape-font-specification:'Roboto Bold';fill:#05b247"
           id="tspan1434">lot</tspan><tspan
           style="fill:#ffffff"
           id="tspan1436"> of </tspan><tspan
           style="font-weight:bold;-inkscape-font-specification:'Roboto Bold';fill:#05b427"
           id="tspan1438">software</tspan><tspan
           style="fill:#ffffff"
           id="tspan1440"> in the </tspan><tspan
           style="fill:#05b427"
           id="tspan1442">repositories</tspan></tspan></text>
  </g>
</svg>
