<?xml version="1.0" encoding="UTF-8" standalone="no"?>
<!-- Created with Inkscape (http://www.inkscape.org/) -->

<svg
   width="1366"
   height="768"
   viewBox="0 0 1366 768"
   version="1.1"
   id="svg5"
   inkscape:version="1.2.2 (b0a8486541, 2022-12-01)"
   sodipodi:docname="sysd.svg"
   inkscape:export-filename="../sysd.png"
   inkscape:export-xdpi="96"
   inkscape:export-ydpi="96"
   xml:space="preserve"
   xmlns:inkscape="http://www.inkscape.org/namespaces/inkscape"
   xmlns:sodipodi="http://sodipodi.sourceforge.net/DTD/sodipodi-0.dtd"
   xmlns="http://www.w3.org/2000/svg"
   xmlns:svg="http://www.w3.org/2000/svg"><sodipodi:namedview
     id="namedview7"
     pagecolor="#505050"
     bordercolor="#ffffff"
     borderopacity="1"
     inkscape:pageshadow="0"
     inkscape:pageopacity="0"
     inkscape:pagecheckerboard="1"
     inkscape:document-units="px"
     showgrid="false"
     inkscape:zoom="0.508233"
     inkscape:cx="545.02561"
     inkscape:cy="436.80753"
     inkscape:window-width="1366"
     inkscape:window-height="709"
     inkscape:window-x="0"
     inkscape:window-y="0"
     inkscape:window-maximized="1"
     inkscape:current-layer="layer2"
     inkscape:showpageshadow="0"
     inkscape:deskcolor="#505050" /><defs
     id="defs2"><rect
       x="207.42244"
       y="827.52654"
       width="1039.1524"
       height="214.73373"
       id="rect1153" /><rect
       x="95.791442"
       y="800.93822"
       width="742.51666"
       height="123.89633"
       id="rect991" /><rect
       x="62.659472"
       y="12.114338"
       width="1228.8352"
       height="164.21273"
       id="rect42596" /><rect
       x="44.9516"
       y="581.67849"
       width="1266.4473"
       height="238.26779"
       id="rect21918" /><rect
       x="51.435653"
       y="18.646279"
       width="1264.9148"
       height="140.77958"
       id="rect5316" /><filter
       style="color-interpolation-filters:sRGB;"
       inkscape:label="Opacity"
       id="filter1718"
       x="-0.3604954"
       y="-0.021985539"
       width="1.8702025"
       height="1.0530711"
       inkscape:menu-tooltip="In and out glow with a possible offset and colorizable flood"
       inkscape:menu="Shadows and Glows"><feFlood
         flood-opacity="1"
         flood-color="rgb(47,103,41)"
         result="flood"
         id="feFlood1712" /><feComposite
         in="flood"
         in2="SourceGraphic"
         operator="in"
         result="composite"
         id="feComposite1714" /><feGaussianBlur
         stdDeviation="0.01"
         id="feGaussianBlur1716"
         result="fbSourceGraphic" /><feColorMatrix
         result="fbSourceGraphicAlpha"
         in="fbSourceGraphic"
         values="0 0 0 -1 0 0 0 0 -1 0 0 0 0 -1 0 0 0 0 1 0"
         id="feColorMatrix1738" /><feFlood
         id="feFlood1740"
         flood-opacity="0.529412"
         flood-color="rgb(47,103,41)"
         result="flood"
         in="fbSourceGraphic" /><feComposite
         in2="fbSourceGraphic"
         id="feComposite1742"
         in="flood"
         operator="in"
         result="composite" /><feGaussianBlur
         id="feGaussianBlur1744"
         stdDeviation="0.01"
         result="fbSourceGraphic" /><feColorMatrix
         result="fbSourceGraphicAlpha"
         in="fbSourceGraphic"
         values="0 0 0 -1 0 0 0 0 -1 0 0 0 0 -1 0 0 0 0 1 0"
         id="feColorMatrix1816" /><feOffset
         id="feOffset1818"
         dy="3"
         dx="3"
         in="fbSourceGraphic" /><feGaussianBlur
         id="feGaussianBlur1820"
         stdDeviation="3"
         result="blur" /><feFlood
         id="feFlood1822"
         flood-color="rgb(0,0,0)"
         flood-opacity="1"
         result="flood" /><feComposite
         in2="fbSourceGraphic"
         id="feComposite1824"
         in="flood"
         operator="in"
         result="composite" /><feBlend
         in2="composite"
         id="feBlend1826"
         in="blur"
         mode="normal"
         result="fbSourceGraphic" /><feColorMatrix
         result="fbSourceGraphicAlpha"
         in="fbSourceGraphic"
         values="0 0 0 -1 0 0 0 0 -1 0 0 0 0 -1 0 0 0 0 1 0"
         id="feColorMatrix1846" /><feColorMatrix
         id="feColorMatrix1848"
         values="1 0 0 0 0 0 1 0 0 0 0 0 1 0 0 0 0 0 8.9 -1 "
         result="colormatrix"
         in="fbSourceGraphic" /><feComposite
         in2="colormatrix"
         id="feComposite1850"
         operator="arithmetic"
         k2="1"
         result="fbSourceGraphic"
         k1="0"
         k3="0"
         k4="0" /><feColorMatrix
         result="fbSourceGraphicAlpha"
         in="fbSourceGraphic"
         values="0 0 0 -1 0 0 0 0 -1 0 0 0 0 -1 0 0 0 0 1 0"
         id="feColorMatrix1870" /><feColorMatrix
         id="feColorMatrix1872"
         values="1 0 0 0 0 0 1 0 0 0 0 0 1 0 0 0 0 0 5 -1 "
         result="colormatrix"
         in="fbSourceGraphic" /><feComposite
         in2="colormatrix"
         id="feComposite1874"
         operator="arithmetic"
         k2="1"
         result="fbSourceGraphic"
         k1="0"
         k3="0"
         k4="0" /><feColorMatrix
         result="fbSourceGraphicAlpha"
         in="fbSourceGraphic"
         values="0 0 0 -1 0 0 0 0 -1 0 0 0 0 -1 0 0 0 0 1 0"
         id="feColorMatrix1894" /><feColorMatrix
         id="feColorMatrix1896"
         values="1 0 0 0 0 0 1 0 0 0 0 0 1 0 0 0 0 0 5 -1.9 "
         result="colormatrix"
         in="fbSourceGraphic" /><feComposite
         in2="colormatrix"
         id="feComposite1898"
         operator="arithmetic"
         k2="1"
         result="composite"
         k1="0"
         k3="0"
         k4="0" /></filter><filter
       style="color-interpolation-filters:sRGB;"
       inkscape:label="Drop Shadow"
       id="filter3352"
       x="-0.2733126"
       y="-0.19123242"
       width="1.6541293"
       height="1.4554044"><feFlood
         flood-opacity="0.921569"
         flood-color="rgb(7,74,0)"
         result="flood"
         id="feFlood3342" /><feComposite
         in="flood"
         in2="SourceGraphic"
         operator="out"
         result="composite1"
         id="feComposite3344" /><feGaussianBlur
         in="composite1"
         stdDeviation="6.9572562"
         result="blur"
         id="feGaussianBlur3346" /><feOffset
         dx="6"
         dy="6"
         result="offset"
         id="feOffset3348" /><feComposite
         in="offset"
         in2="SourceGraphic"
         operator="atop"
         result="fbSourceGraphic"
         id="feComposite3350" /><feColorMatrix
         result="fbSourceGraphicAlpha"
         in="fbSourceGraphic"
         values="0 0 0 -1 0 0 0 0 -1 0 0 0 0 -1 0 0 0 0 1 0"
         id="feColorMatrix3372" /><feFlood
         id="feFlood3374"
         flood-opacity="0.921569"
         flood-color="rgb(7,74,0)"
         result="flood"
         in="fbSourceGraphic" /><feComposite
         in2="fbSourceGraphic"
         id="feComposite3376"
         in="flood"
         operator="out"
         result="composite1" /><feGaussianBlur
         id="feGaussianBlur3378"
         in="composite1"
         stdDeviation="7"
         result="blur" /><feOffset
         id="feOffset3380"
         dx="6"
         dy="6"
         result="offset" /><feComposite
         in2="fbSourceGraphic"
         id="feComposite3382"
         in="offset"
         operator="atop"
         result="fbSourceGraphic" /><feColorMatrix
         result="fbSourceGraphicAlpha"
         in="fbSourceGraphic"
         values="0 0 0 -1 0 0 0 0 -1 0 0 0 0 -1 0 0 0 0 1 0"
         id="feColorMatrix3402" /><feFlood
         id="feFlood3404"
         flood-opacity="0.921569"
         flood-color="rgb(7,74,0)"
         result="flood"
         in="fbSourceGraphic" /><feComposite
         in2="fbSourceGraphic"
         id="feComposite3406"
         in="flood"
         operator="out"
         result="composite1" /><feGaussianBlur
         id="feGaussianBlur3408"
         in="composite1"
         stdDeviation="7"
         result="blur" /><feOffset
         id="feOffset3410"
         dx="7"
         dy="6"
         result="offset" /><feComposite
         in2="fbSourceGraphic"
         id="feComposite3412"
         in="offset"
         operator="atop"
         result="fbSourceGraphic" /><feColorMatrix
         result="fbSourceGraphicAlpha"
         in="fbSourceGraphic"
         values="0 0 0 -1 0 0 0 0 -1 0 0 0 0 -1 0 0 0 0 1 0"
         id="feColorMatrix3432" /><feFlood
         id="feFlood3434"
         flood-opacity="0.921569"
         flood-color="rgb(7,74,0)"
         result="flood"
         in="fbSourceGraphic" /><feComposite
         in2="fbSourceGraphic"
         id="feComposite3436"
         in="flood"
         operator="out"
         result="composite1" /><feGaussianBlur
         id="feGaussianBlur3438"
         in="composite1"
         stdDeviation="7"
         result="blur" /><feOffset
         id="feOffset3440"
         dx="7"
         dy="7"
         result="offset" /><feComposite
         in2="fbSourceGraphic"
         id="feComposite3442"
         in="offset"
         operator="atop"
         result="fbSourceGraphic" /><feColorMatrix
         result="fbSourceGraphicAlpha"
         in="fbSourceGraphic"
         values="0 0 0 -1 0 0 0 0 -1 0 0 0 0 -1 0 0 0 0 1 0"
         id="feColorMatrix3462" /><feFlood
         id="feFlood3464"
         flood-opacity="0.866667"
         flood-color="rgb(23,103,15)"
         result="flood"
         in="fbSourceGraphic" /><feComposite
         in2="fbSourceGraphic"
         id="feComposite3466"
         in="flood"
         operator="out"
         result="composite1" /><feGaussianBlur
         id="feGaussianBlur3468"
         in="composite1"
         stdDeviation="7"
         result="blur" /><feOffset
         id="feOffset3470"
         dx="7"
         dy="7"
         result="offset" /><feComposite
         in2="fbSourceGraphic"
         id="feComposite3472"
         in="offset"
         operator="atop"
         result="composite2" /></filter></defs><g
     inkscape:label="Capa 1"
     inkscape:groupmode="layer"
     id="layer1"
     transform="translate(18.299998,16.017692)"
     sodipodi:insensitive="true"><rect
       style="opacity:1;fill:#0a0a0a;fill-opacity:1;fill-rule:evenodd;stroke:none;stroke-width:12.2387;stroke-linejoin:round"
       id="rect950"
       width="1366"
       height="768"
       x="-18.299997"
       y="-16.017693"
       sodipodi:insensitive="true" /></g><g
     inkscape:groupmode="layer"
     id="layer2"
     inkscape:label="Capa 2"
     sodipodi:insensitive="true"><g
       id="g34732"
       transform="translate(-1280,-78.600098)"
       sodipodi:insensitive="true"><rect
         style="opacity:0.7;fill:#333333;fill-opacity:1;fill-rule:evenodd;stroke:none;stroke-width:2.43213;stroke-linejoin:round;stroke-miterlimit:4;stroke-dasharray:none;stroke-dashoffset:0;stroke-opacity:1"
         id="rect34552"
         width="848.93457"
         height="180"
         x="1560"
         y="348.6001"
         sodipodi:insensitive="true" /><g
         id="g1660"
         transform="translate(1314.2344,72.105497)"
         sodipodi:insensitive="true"><path
           d="m 286.46359,324.82798 v 99.32151 h 38.20058 v -15.28023 h -22.92035 v -68.76104 h 22.92035 v -15.28024 z"
           style="color:#000000;font-variant-ligatures:normal;font-variant-position:normal;font-variant-caps:normal;font-variant-numeric:normal;font-variant-alternates:normal;font-feature-settings:normal;text-indent:0;text-decoration-line:none;text-decoration-style:solid;text-decoration-color:#000000;text-transform:none;text-orientation:mixed;dominant-baseline:auto;white-space:normal;shape-padding:0;isolation:auto;mix-blend-mode:normal;solid-color:#000000;stroke:#ffffff;stroke-width:2.5;stroke-miterlimit:4;stroke-dasharray:none;stroke-opacity:1;color-rendering:auto;image-rendering:auto;shape-rendering:auto"
           id="path1461" /><path
           d="m 576.788,324.82798 v 15.28024 h 22.92034 v 68.76104 H 576.788 v 15.28023 h 38.20058 v -99.32151 z"
           style="color:#000000;font-variant-ligatures:normal;font-variant-position:normal;font-variant-caps:normal;font-variant-numeric:normal;font-variant-alternates:normal;font-feature-settings:normal;text-indent:0;text-decoration-line:none;text-decoration-style:solid;text-decoration-color:#000000;text-transform:none;text-orientation:mixed;dominant-baseline:auto;white-space:normal;shape-padding:0;isolation:auto;mix-blend-mode:normal;solid-color:#000000;stroke:#ffffff;stroke-width:2.5;stroke-miterlimit:4;stroke-dasharray:none;stroke-opacity:1;color-rendering:auto;image-rendering:auto;shape-rendering:auto"
           id="path1463" /><g
           id="g1479"
           transform="matrix(7.6401159,0,0,7.6401159,-16626.079,-25537.117)"
           style="stroke:#ffffff;stroke-width:0.32722;stroke-miterlimit:4;stroke-dasharray:none;stroke-dashoffset:0;stroke-opacity:1"><path
             d="m 2270.4,3392.48 q -2.25,-0.4804 -2.25,-1.9394 0,-0.5391 0.3047,-0.9903 0.3106,-0.4511 0.8906,-0.7207 0.5801,-0.2695 1.3536,-0.2695 0.8144,0 1.4238,0.2637 0.6094,0.2578 0.9375,0.7265 0.3281,0.4629 0.3281,1.0606 h -1.7695 q 0,-0.3809 -0.2285,-0.5918 -0.2286,-0.2168 -0.6973,-0.2168 -0.3867,0 -0.6211,0.1816 -0.2285,0.1817 -0.2285,0.4688 0,0.2754 0.2578,0.4453 0.2637,0.1699 0.8906,0.2871 0.75,0.1406 1.2715,0.3691 0.5215,0.2227 0.8262,0.6211 0.3105,0.3985 0.3105,1.0137 0,0.5566 -0.334,1.002 -0.3281,0.4394 -0.9433,0.6914 -0.6094,0.2519 -1.418,0.2519 -0.8555,0 -1.4824,-0.3105 -0.6211,-0.3164 -0.9492,-0.8086 -0.3223,-0.4922 -0.3223,-1.0254 h 1.6699 q 0.018,0.457 0.3282,0.6797 0.3105,0.2168 0.7968,0.2168 0.4512,0 0.6914,-0.1699 0.2461,-0.1758 0.2461,-0.4688 0,-0.1816 -0.1113,-0.3047 -0.1055,-0.1289 -0.3867,-0.2402 -0.2754,-0.1113 -0.7852,-0.2227 z"
             style="stroke:#ffffff;stroke-width:0.32722;stroke-miterlimit:4;stroke-dasharray:none;stroke-dashoffset:0;stroke-opacity:1"
             id="path1465" /><path
             d="m 2280.09,3388.68 -2.543,7.2891 q -0.1464,0.416 -0.3632,0.7617 -0.2168,0.3515 -0.6328,0.5976 -0.4161,0.252 -1.0489,0.252 -0.2285,0 -0.375,-0.024 -0.1406,-0.023 -0.3926,-0.088 v -1.336 q 0.088,0.01 0.2637,0.01 0.4746,0 0.709,-0.1465 0.2344,-0.1465 0.3574,-0.4805 l 0.1758,-0.4629 -2.2148,-6.3691 h 1.8984 l 1.1309,3.8437 1.1425,-3.8437 z"
             style="stroke:#ffffff;stroke-width:0.32722;stroke-miterlimit:4;stroke-dasharray:none;stroke-dashoffset:0;stroke-opacity:1"
             id="path1467" /><path
             d="m 2283.03,3392.48 q -2.25,-0.4804 -2.25,-1.9394 0,-0.5391 0.3047,-0.9903 0.3105,-0.4511 0.8906,-0.7207 0.5801,-0.2695 1.3535,-0.2695 0.8145,0 1.4239,0.2637 0.6093,0.2578 0.9375,0.7265 0.3281,0.4629 0.3281,1.0606 h -1.7695 q 0,-0.3809 -0.2286,-0.5918 -0.2285,-0.2168 -0.6972,-0.2168 -0.3867,0 -0.6211,0.1816 -0.2285,0.1817 -0.2285,0.4688 0,0.2754 0.2578,0.4453 0.2636,0.1699 0.8906,0.2871 0.75,0.1406 1.2715,0.3691 0.5215,0.2227 0.8262,0.6211 0.3105,0.3985 0.3105,1.0137 0,0.5566 -0.334,1.002 -0.3281,0.4394 -0.9433,0.6914 -0.6094,0.2519 -1.418,0.2519 -0.8555,0 -1.4824,-0.3105 -0.6211,-0.3164 -0.9493,-0.8086 -0.3222,-0.4922 -0.3222,-1.0254 h 1.6699 q 0.018,0.457 0.3281,0.6797 0.3106,0.2168 0.7969,0.2168 0.4512,0 0.6914,-0.1699 0.2461,-0.1758 0.2461,-0.4688 0,-0.1816 -0.1113,-0.3047 -0.1055,-0.1289 -0.3867,-0.2402 -0.2754,-0.1113 -0.7852,-0.2227 z"
             style="stroke:#ffffff;stroke-width:0.32722;stroke-miterlimit:4;stroke-dasharray:none;stroke-dashoffset:0;stroke-opacity:1"
             id="path1469" /><path
             d="m 2290.02,3393.68 q 0.2871,0 0.4922,-0.041 v 1.3301 q -0.457,0.164 -1.043,0.164 -1.8632,0 -1.8632,-1.8984 v -3.2695 h -0.8965 v -1.2891 h 0.8965 v -1.5703 h 1.7695 v 1.5703 h 1.0664 v 1.2891 h -1.0664 v 3.0644 q 0,0.375 0.1465,0.5156 0.1465,0.1348 0.498,0.1348 z"
             style="stroke:#ffffff;stroke-width:0.32722;stroke-miterlimit:4;stroke-dasharray:none;stroke-dashoffset:0;stroke-opacity:1"
             id="path1471" /><path
             d="m 2297.14,3392.42 h -4.0078 q 0.1,0.5918 0.4922,0.9434 0.3925,0.3457 1.0078,0.3457 0.457,0 0.8437,-0.1699 0.3926,-0.1758 0.668,-0.5215 l 0.8496,0.9785 q -0.334,0.4805 -0.9785,0.8086 -0.6387,0.3281 -1.5,0.3281 -0.9727,0 -1.6934,-0.4101 -0.7148,-0.4102 -1.1015,-1.1133 -0.3809,-0.7031 -0.3809,-1.5528 v -0.2226 q 0,-0.9492 0.3574,-1.6934 0.3574,-0.7441 1.0313,-1.1601 0.6738,-0.4219 1.5937,-0.4219 0.8965,0 1.5293,0.3809 0.6328,0.3808 0.961,1.0839 0.3281,0.6973 0.3281,1.6465 z m -1.7344,-1.3242 q -0.012,-0.5156 -0.2871,-0.8144 -0.2695,-0.2989 -0.8086,-0.2989 -0.5039,0 -0.791,0.334 -0.2813,0.334 -0.3692,0.9199 h 2.2559 z"
             style="stroke:#ffffff;stroke-width:0.32722;stroke-miterlimit:4;stroke-dasharray:none;stroke-dashoffset:0;stroke-opacity:1"
             id="path1473" /><path
             d="m 2305.37,3388.56 q 0.9668,0 1.4942,0.5742 0.5273,0.5742 0.5273,1.8633 v 4.0195 h -1.7695 v -4.0254 q 0,-0.3984 -0.1055,-0.6152 -0.1055,-0.2226 -0.3047,-0.3047 -0.1933,-0.082 -0.4922,-0.082 -0.3574,0 -0.6093,0.1758 -0.252,0.1699 -0.3985,0.4863 0.01,0.041 0.01,0.1348 v 4.2304 h -1.7696 v -4.0078 q 0,-0.3984 -0.1054,-0.6211 -0.1055,-0.2226 -0.3047,-0.3105 -0.1934,-0.088 -0.4981,-0.088 -0.3398,0 -0.5918,0.1523 -0.246,0.1465 -0.3984,0.4219 v 4.4531 h -1.7695 v -6.3398 h 1.6582 l 0.059,0.709 q 0.3164,-0.3985 0.7734,-0.6094 0.4629,-0.2168 1.043,-0.2168 0.5859,0 1.0078,0.2402 0.4277,0.2344 0.6562,0.7207 0.3165,-0.4629 0.7911,-0.7089 0.4804,-0.252 1.1015,-0.252 z"
             style="stroke:#ffffff;stroke-width:0.32722;stroke-miterlimit:4;stroke-dasharray:none;stroke-dashoffset:0;stroke-opacity:1"
             id="path1475" /><path
             d="m 2314.35,3386.02 v 9 h -1.5937 l -0.088,-0.6797 q -0.6211,0.7969 -1.6055,0.7969 -0.7676,0 -1.3301,-0.4101 -0.5566,-0.4161 -0.8496,-1.1426 -0.2871,-0.7266 -0.2871,-1.6582 v -0.1231 q 0,-0.9668 0.2871,-1.6992 0.293,-0.7324 0.8496,-1.1367 0.5625,-0.4043 1.3418,-0.4043 0.9024,0 1.5059,0.6855 v -3.2285 z m -2.8359,7.6875 q 0.7441,0 1.0664,-0.6328 v -2.4492 q -0.3047,-0.6328 -1.0547,-0.6328 -0.6035,0 -0.8848,0.4922 -0.2753,0.4922 -0.2753,1.3183 v 0.1231 q 0,0.8144 0.2695,1.3008 0.2754,0.4804 0.8789,0.4804 z"
             style="stroke:#ffffff;stroke-width:0.32722;stroke-miterlimit:4;stroke-dasharray:none;stroke-dashoffset:0;stroke-opacity:1"
             id="path1477" /></g><path
           d="m 469.82637,374.48874 61.12093,-34.38052 v 68.76104 z"
           style="fill:#33d17a;stroke-width:3.82004"
           id="path1481" /><circle
           cx="404.88464"
           cy="374.48889"
           r="34.380367"
           style="fill:#33d17a;stroke-width:3.82004"
           id="circle1483" /></g></g><text
       xml:space="preserve"
       id="text42594"
       style="font-style:normal;font-weight:normal;font-size:40px;line-height:1.25;font-family:sans-serif;white-space:pre;shape-inside:url(#rect42596);display:inline;fill:#000000;fill-opacity:1;stroke:none"
       sodipodi:insensitive="true" /><path
       class="warning"
       d="m 1186.4798,46.007126 c -2.3926,0.106715 -4.563,1.433977 -5.7488,3.514746 l -48.8246,86.056848 c -2.6415,4.64915 0.7151,10.41918 6.0621,10.42127 h 97.6492 c 5.3472,-0.002 8.7033,-5.7724 6.0623,-10.42127 l -48.8246,-86.056848 c -1.2968,-2.275577 -3.759,-3.632969 -6.3756,-3.514746 z m -6.6616,23.267714 h 13.9499 v 41.84967 h -13.9499 z m 0,48.82461 h 13.9499 v 13.94989 h -13.9499 z"
       fill="#ff9800"
       id="path1500"
       style="fill:#05b427;fill-opacity:1;stroke:#000000;stroke-width:2;stroke-miterlimit:4;stroke-dasharray:none;stroke-opacity:1"
       sodipodi:insensitive="true" /><g
       id="g314"
       transform="matrix(0.44736842,0,0,0.44736842,115,20)"
       sodipodi:insensitive="true"><circle
         style="fill:#ffffff;fill-opacity:1;fill-rule:evenodd;stroke-width:0.267534;paint-order:markers fill stroke"
         id="path1760"
         cx="190"
         cy="190"
         r="190" /><g
         id="g2187"
         transform="matrix(2.8601829,0,0,2.8601829,139.09517,289.80363)"><g
           inkscape:label="Capa 1"
           id="layer1-3"
           transform="matrix(0.26458333,0,0,0.26458333,-49.02146,-103.23409)"><path
             style="fill:#3a8844;fill-opacity:1;stroke:none;stroke-width:0.891054px;stroke-linecap:butt;stroke-linejoin:miter;stroke-opacity:1"
             d="m 258.545,305.72638 c 0,0 59.94318,16.28098 80.53145,-17.74661 26.84382,-44.36655 7.15835,-67.43718 35.79175,-88.73313 35.79176,-26.61992 82.54388,13.75536 53.68764,70.9865 -26.84382,53.23986 -90.54804,79.59489 -125.27114,70.98649 -35.79176,-8.8733 -44.7397,-35.49325 -44.7397,-35.49325 z"
             id="path1067"
             sodipodi:nodetypes="cssssc" /><path
             style="fill:#3a8844;fill-opacity:1;stroke:none;stroke-width:0.891054px;stroke-linecap:butt;stroke-linejoin:miter;stroke-opacity:1"
             d="m 111.41581,145.91029 c 35.79176,0 17.89589,70.98651 35.79176,88.73312 l 17.89588,17.74662 c 0,0 -62.63557,8.87332 -80.531447,-44.36656 -12.771929,-35.66802 0,-62.11318 26.843807,-62.11318 z"
             id="path1182"
             sodipodi:nodetypes="ssccs" /><path
             id="path8219"
             style="fill:#bc4e48;fill-opacity:1;stroke:none;stroke-width:0.891054px;stroke-linecap:butt;stroke-linejoin:miter;stroke-opacity:1"
             d="m 257.39648,46.880859 c -5.09961,0.250168 -11.3324,3.317399 -11.76171,10.296875 0,0 -2.63869,14.123343 17.89648,26.619141 23.1953,14.114525 41.94132,1.745662 44.73828,-8.873047 2.79698,-10.618711 -4.41674,-13.910948 -8.94726,-13.310547 -0.98348,0.130334 -1.96456,0.646226 -2.94336,1.351563 0.0274,-6.57086 1.05118,-14.720728 -10.94141,-5.244141 -1.63333,1.290661 -3.41527,2.556085 -5.24023,3.572266 -4.93559,-12.639533 -8.73422,-6.4982 -12.24805,-0.828125 -1.96625,-3.662311 -2.33011,-10.208352 -4.95313,-12.28125 -1.19792,-0.9467 -3.2816,-1.416447 -5.59961,-1.302735 z" /><path
             style="fill:#4e965c;fill-opacity:1;stroke:none;stroke-width:0.891054px;stroke-linecap:butt;stroke-linejoin:miter;stroke-opacity:1"
             d="m 335.11429,447.60288 c 0,0 -121.30898,-26.52345 -166.04867,-106.38325 C 141.58224,292.16214 138.63054,83.827756 245.6349,92.670418 353.01017,101.54374 294.33675,243.61322 276.44088,314.5997 258.545,385.58618 335.11429,447.60288 335.11429,447.60288 Z"
             id="path937"
             sodipodi:nodetypes="csszc" /><path
             style="fill:#458161;fill-opacity:1;stroke:none;stroke-width:0.891054px;stroke-linecap:butt;stroke-linejoin:miter;stroke-opacity:1"
             d="m 79.586231,314.5997 c -26.843816,8.8733 -4.791924,57.36122 26.843819,88.7331 26.84381,26.61995 71.5835,44.36659 80.53144,26.61995 8.94794,-17.74661 -26.84382,-8.87332 -62.63556,-44.36657 -35.79176,-35.49323 -17.89588,-79.8598 -44.739699,-70.98648 z"
             id="path11663"
             sodipodi:nodetypes="zsssz" /><path
             style="fill:#adc3ad;fill-opacity:1;stroke:none;stroke-width:0.891054px;stroke-linecap:butt;stroke-linejoin:miter;stroke-opacity:1"
             d="m 428.55584,154.88009 c 22.01589,-7.41173 -3.10009,-36.77438 -20.99597,-54.521 -17.89588,-17.74662 -41.6396,-34.212119 -50.58755,-16.465496 -8.94793,17.746626 14.7958,16.465496 32.69167,34.212116 17.89588,17.74662 16.87595,44.18612 38.89185,36.77438 z"
             id="path14218"
             sodipodi:nodetypes="zsssz" /></g></g></g><text
       xml:space="preserve"
       id="text989"
       style="font-weight:bold;font-size:106.667px;font-family:Roboto;-inkscape-font-specification:'Roboto Bold';text-align:center;white-space:pre;shape-inside:url(#rect991);display:inline;opacity:1;fill:#0a0a0a;fill-opacity:1;fill-rule:evenodd;stroke-width:0;paint-order:markers fill stroke"
       transform="translate(245.50341,-759.09267)"
       sodipodi:insensitive="true"><tspan
         x="104.07992"
         y="899.02"
         id="tspan1147"><tspan
           style="fill:#05b427"
           id="tspan1145">ADVICE NOTE!!</tspan></tspan></text><text
       xml:space="preserve"
       id="text1151"
       style="font-style:normal;font-variant:normal;font-weight:500;font-stretch:normal;font-size:85.3333px;font-family:Roboto;-inkscape-font-specification:'Roboto Medium';text-align:center;white-space:pre;shape-inside:url(#rect1153);display:inline;opacity:1;fill:#ffffff;fill-opacity:1;fill-rule:evenodd;stroke-width:0;paint-order:markers fill stroke"
       transform="translate(-31.727429,-301.99309)"
       sodipodi:insensitive="true"><tspan
         x="209.85243"
         y="905.99306"
         id="tspan1149">The Cereus Linux dev team </tspan><tspan
         x="317.37322"
         y="1012.6597"
         id="tspan1151">isn´t SystemD haters.</tspan></text></g></svg>
