<?xml version="1.0" encoding="UTF-8" standalone="no"?>
<!-- Created with Inkscape (http://www.inkscape.org/) -->

<svg
   width="1632"
   height="1248"
   viewBox="0 0 1632 1248"
   version="1.1"
   id="svg5"
   inkscape:version="1.2.2 (b0a8486541, 2022-12-01)"
   sodipodi:docname="void-based.svg"
   inkscape:export-filename="../void-based.png"
   inkscape:export-xdpi="96"
   inkscape:export-ydpi="96"
   xml:space="preserve"
   xmlns:inkscape="http://www.inkscape.org/namespaces/inkscape"
   xmlns:sodipodi="http://sodipodi.sourceforge.net/DTD/sodipodi-0.dtd"
   xmlns:xlink="http://www.w3.org/1999/xlink"
   xmlns="http://www.w3.org/2000/svg"
   xmlns:svg="http://www.w3.org/2000/svg"><sodipodi:namedview
     id="namedview7"
     pagecolor="#505050"
     bordercolor="#ffffff"
     borderopacity="1"
     inkscape:pageshadow="0"
     inkscape:pageopacity="0"
     inkscape:pagecheckerboard="1"
     inkscape:document-units="px"
     showgrid="false"
     inkscape:zoom="0.35355339"
     inkscape:cx="817.41544"
     inkscape:cy="585.48442"
     inkscape:window-width="1366"
     inkscape:window-height="709"
     inkscape:window-x="0"
     inkscape:window-y="0"
     inkscape:window-maximized="1"
     inkscape:current-layer="layer1"
     inkscape:showpageshadow="0"
     inkscape:deskcolor="#505050" /><defs
     id="defs2"><rect
       x="1759.3861"
       y="863.06509"
       width="1140.0034"
       height="321.29613"
       id="rect2822" /><linearGradient
       inkscape:collect="always"
       id="linearGradient87152"><stop
         style="stop-color:#222222;stop-opacity:1;"
         offset="0"
         id="stop87148" /><stop
         style="stop-color:#222222;stop-opacity:0;"
         offset="1"
         id="stop87150" /></linearGradient><linearGradient
       inkscape:collect="always"
       id="linearGradient87144"><stop
         style="stop-color:#222222;stop-opacity:1;"
         offset="0"
         id="stop87140" /><stop
         style="stop-color:#222222;stop-opacity:0;"
         offset="1"
         id="stop87142" /></linearGradient><linearGradient
       inkscape:collect="always"
       id="linearGradient86944"><stop
         style="stop-color:#abc2ab;stop-opacity:1;"
         offset="0"
         id="stop86940" /><stop
         style="stop-color:#abc2ab;stop-opacity:0;"
         offset="1"
         id="stop86942" /></linearGradient><linearGradient
       inkscape:collect="always"
       id="linearGradient86922"><stop
         style="stop-color:#478061;stop-opacity:1;"
         offset="0"
         id="stop86918" /><stop
         style="stop-color:#478061;stop-opacity:0;"
         offset="1"
         id="stop86920" /></linearGradient><linearGradient
       inkscape:collect="always"
       id="linearGradient86116"><stop
         style="stop-color:#ffffff;stop-opacity:1;"
         offset="0"
         id="stop86112" /><stop
         style="stop-color:#05b427;stop-opacity:0"
         offset="1"
         id="stop86114" /></linearGradient><rect
       x="243.10817"
       y="894.40309"
       width="560.86038"
       height="85.834236"
       id="rect49559" /><rect
       x="-813.35468"
       y="1141.9552"
       width="3604.7185"
       height="204.1665"
       id="rect5467" /><rect
       x="113.37866"
       y="767.79145"
       width="1435.1197"
       height="460.4276"
       id="rect4384" /><linearGradient
       id="linearGradient892"
       x1="-197.72"
       x2="-197.72"
       y1="263.86"
       y2="273.76"
       gradientTransform="matrix(0.18709,-0.18709,0.18709,0.18709,1.1192,-74.45)"
       gradientUnits="userSpaceOnUse"><stop
         offset="0"
         id="stop26961" /><stop
         stop-opacity="0"
         offset="1"
         id="stop26963" /></linearGradient><linearGradient
       id="a"
       x1="47"
       x2="59.998"
       y1="41"
       y2="53.978"
       gradientTransform="matrix(0.26458,0,0,0.26458,-0.004,0.27)"
       gradientUnits="userSpaceOnUse"><stop
         offset="0"
         id="stop30428" /><stop
         stop-color="#242424"
         stop-opacity="0"
         offset="1"
         id="stop30430" /></linearGradient><linearGradient
       id="a-4"
       x1="-197.1"
       x2="-196.91"
       y1="217.68"
       y2="219.37"
       gradientTransform="rotate(-45,-338.07,-140.03)"
       gradientUnits="userSpaceOnUse"><stop
         offset="0"
         id="stop45330" /><stop
         stop-opacity="0"
         offset="1"
         id="stop45332" /></linearGradient><linearGradient
       id="a-8"
       x1="49.571"
       x2="51.714"
       y1="52.714"
       y2="54.857"
       gradientTransform="matrix(2.3333,0,0,2.3333,-68.667,-72.001)"
       gradientUnits="userSpaceOnUse"><stop
         offset="0"
         id="stop52130" /><stop
         stop-opacity="0"
         offset="1"
         id="stop52132" /></linearGradient><filter
       style="color-interpolation-filters:sRGB;"
       inkscape:label="Opacity"
       id="filter1718"
       x="-0.3604954"
       y="-0.021985539"
       width="1.8702025"
       height="1.0530711"
       inkscape:menu-tooltip="In and out glow with a possible offset and colorizable flood"
       inkscape:menu="Shadows and Glows"><feFlood
         flood-opacity="1"
         flood-color="rgb(47,103,41)"
         result="flood"
         id="feFlood1712" /><feComposite
         in="flood"
         in2="SourceGraphic"
         operator="in"
         result="composite"
         id="feComposite1714" /><feGaussianBlur
         stdDeviation="0.01"
         id="feGaussianBlur1716"
         result="fbSourceGraphic" /><feColorMatrix
         result="fbSourceGraphicAlpha"
         in="fbSourceGraphic"
         values="0 0 0 -1 0 0 0 0 -1 0 0 0 0 -1 0 0 0 0 1 0"
         id="feColorMatrix1738" /><feFlood
         id="feFlood1740"
         flood-opacity="0.529412"
         flood-color="rgb(47,103,41)"
         result="flood"
         in="fbSourceGraphic" /><feComposite
         in2="fbSourceGraphic"
         id="feComposite1742"
         in="flood"
         operator="in"
         result="composite" /><feGaussianBlur
         id="feGaussianBlur1744"
         stdDeviation="0.01"
         result="fbSourceGraphic" /><feColorMatrix
         result="fbSourceGraphicAlpha"
         in="fbSourceGraphic"
         values="0 0 0 -1 0 0 0 0 -1 0 0 0 0 -1 0 0 0 0 1 0"
         id="feColorMatrix1816" /><feOffset
         id="feOffset1818"
         dy="3"
         dx="3"
         in="fbSourceGraphic" /><feGaussianBlur
         id="feGaussianBlur1820"
         stdDeviation="3"
         result="blur" /><feFlood
         id="feFlood1822"
         flood-color="rgb(0,0,0)"
         flood-opacity="1"
         result="flood" /><feComposite
         in2="fbSourceGraphic"
         id="feComposite1824"
         in="flood"
         operator="in"
         result="composite" /><feBlend
         in2="composite"
         id="feBlend1826"
         in="blur"
         mode="normal"
         result="fbSourceGraphic" /><feColorMatrix
         result="fbSourceGraphicAlpha"
         in="fbSourceGraphic"
         values="0 0 0 -1 0 0 0 0 -1 0 0 0 0 -1 0 0 0 0 1 0"
         id="feColorMatrix1846" /><feColorMatrix
         id="feColorMatrix1848"
         values="1 0 0 0 0 0 1 0 0 0 0 0 1 0 0 0 0 0 8.9 -1 "
         result="colormatrix"
         in="fbSourceGraphic" /><feComposite
         in2="colormatrix"
         id="feComposite1850"
         operator="arithmetic"
         k2="1"
         result="fbSourceGraphic"
         k1="0"
         k3="0"
         k4="0" /><feColorMatrix
         result="fbSourceGraphicAlpha"
         in="fbSourceGraphic"
         values="0 0 0 -1 0 0 0 0 -1 0 0 0 0 -1 0 0 0 0 1 0"
         id="feColorMatrix1870" /><feColorMatrix
         id="feColorMatrix1872"
         values="1 0 0 0 0 0 1 0 0 0 0 0 1 0 0 0 0 0 5 -1 "
         result="colormatrix"
         in="fbSourceGraphic" /><feComposite
         in2="colormatrix"
         id="feComposite1874"
         operator="arithmetic"
         k2="1"
         result="fbSourceGraphic"
         k1="0"
         k3="0"
         k4="0" /><feColorMatrix
         result="fbSourceGraphicAlpha"
         in="fbSourceGraphic"
         values="0 0 0 -1 0 0 0 0 -1 0 0 0 0 -1 0 0 0 0 1 0"
         id="feColorMatrix1894" /><feColorMatrix
         id="feColorMatrix1896"
         values="1 0 0 0 0 0 1 0 0 0 0 0 1 0 0 0 0 0 5 -1.9 "
         result="colormatrix"
         in="fbSourceGraphic" /><feComposite
         in2="colormatrix"
         id="feComposite1898"
         operator="arithmetic"
         k2="1"
         result="composite"
         k1="0"
         k3="0"
         k4="0" /></filter><filter
       style="color-interpolation-filters:sRGB;"
       inkscape:label="Drop Shadow"
       id="filter3352"
       x="-0.2733126"
       y="-0.19123242"
       width="1.6541293"
       height="1.4554044"><feFlood
         flood-opacity="0.921569"
         flood-color="rgb(7,74,0)"
         result="flood"
         id="feFlood3342" /><feComposite
         in="flood"
         in2="SourceGraphic"
         operator="out"
         result="composite1"
         id="feComposite3344" /><feGaussianBlur
         in="composite1"
         stdDeviation="6.9572562"
         result="blur"
         id="feGaussianBlur3346" /><feOffset
         dx="6"
         dy="6"
         result="offset"
         id="feOffset3348" /><feComposite
         in="offset"
         in2="SourceGraphic"
         operator="atop"
         result="fbSourceGraphic"
         id="feComposite3350" /><feColorMatrix
         result="fbSourceGraphicAlpha"
         in="fbSourceGraphic"
         values="0 0 0 -1 0 0 0 0 -1 0 0 0 0 -1 0 0 0 0 1 0"
         id="feColorMatrix3372" /><feFlood
         id="feFlood3374"
         flood-opacity="0.921569"
         flood-color="rgb(7,74,0)"
         result="flood"
         in="fbSourceGraphic" /><feComposite
         in2="fbSourceGraphic"
         id="feComposite3376"
         in="flood"
         operator="out"
         result="composite1" /><feGaussianBlur
         id="feGaussianBlur3378"
         in="composite1"
         stdDeviation="7"
         result="blur" /><feOffset
         id="feOffset3380"
         dx="6"
         dy="6"
         result="offset" /><feComposite
         in2="fbSourceGraphic"
         id="feComposite3382"
         in="offset"
         operator="atop"
         result="fbSourceGraphic" /><feColorMatrix
         result="fbSourceGraphicAlpha"
         in="fbSourceGraphic"
         values="0 0 0 -1 0 0 0 0 -1 0 0 0 0 -1 0 0 0 0 1 0"
         id="feColorMatrix3402" /><feFlood
         id="feFlood3404"
         flood-opacity="0.921569"
         flood-color="rgb(7,74,0)"
         result="flood"
         in="fbSourceGraphic" /><feComposite
         in2="fbSourceGraphic"
         id="feComposite3406"
         in="flood"
         operator="out"
         result="composite1" /><feGaussianBlur
         id="feGaussianBlur3408"
         in="composite1"
         stdDeviation="7"
         result="blur" /><feOffset
         id="feOffset3410"
         dx="7"
         dy="6"
         result="offset" /><feComposite
         in2="fbSourceGraphic"
         id="feComposite3412"
         in="offset"
         operator="atop"
         result="fbSourceGraphic" /><feColorMatrix
         result="fbSourceGraphicAlpha"
         in="fbSourceGraphic"
         values="0 0 0 -1 0 0 0 0 -1 0 0 0 0 -1 0 0 0 0 1 0"
         id="feColorMatrix3432" /><feFlood
         id="feFlood3434"
         flood-opacity="0.921569"
         flood-color="rgb(7,74,0)"
         result="flood"
         in="fbSourceGraphic" /><feComposite
         in2="fbSourceGraphic"
         id="feComposite3436"
         in="flood"
         operator="out"
         result="composite1" /><feGaussianBlur
         id="feGaussianBlur3438"
         in="composite1"
         stdDeviation="7"
         result="blur" /><feOffset
         id="feOffset3440"
         dx="7"
         dy="7"
         result="offset" /><feComposite
         in2="fbSourceGraphic"
         id="feComposite3442"
         in="offset"
         operator="atop"
         result="fbSourceGraphic" /><feColorMatrix
         result="fbSourceGraphicAlpha"
         in="fbSourceGraphic"
         values="0 0 0 -1 0 0 0 0 -1 0 0 0 0 -1 0 0 0 0 1 0"
         id="feColorMatrix3462" /><feFlood
         id="feFlood3464"
         flood-opacity="0.866667"
         flood-color="rgb(23,103,15)"
         result="flood"
         in="fbSourceGraphic" /><feComposite
         in2="fbSourceGraphic"
         id="feComposite3466"
         in="flood"
         operator="out"
         result="composite1" /><feGaussianBlur
         id="feGaussianBlur3468"
         in="composite1"
         stdDeviation="7"
         result="blur" /><feOffset
         id="feOffset3470"
         dx="7"
         dy="7"
         result="offset" /><feComposite
         in2="fbSourceGraphic"
         id="feComposite3472"
         in="offset"
         operator="atop"
         result="composite2" /></filter><filter
       inkscape:collect="always"
       style="color-interpolation-filters:sRGB"
       id="filter1031"
       x="-0.0023176069"
       width="1.0046352"
       y="-0.01411092"
       height="1.0282218"><feGaussianBlur
         inkscape:collect="always"
         stdDeviation="0.038178385"
         id="feGaussianBlur1033" /></filter><rect
       x="113.37866"
       y="767.79144"
       width="366.26624"
       height="50.694271"
       id="rect4384-2" /><linearGradient
       inkscape:collect="always"
       xlink:href="#linearGradient86116"
       id="linearGradient86118"
       x1="842.48273"
       y1="775.52631"
       x2="842.46375"
       y2="833.08337"
       gradientUnits="userSpaceOnUse" /><linearGradient
       inkscape:collect="always"
       xlink:href="#linearGradient86922"
       id="linearGradient86924"
       x1="46.087715"
       y1="83.581551"
       x2="212.52588"
       y2="91.305687"
       gradientUnits="userSpaceOnUse" /><linearGradient
       inkscape:collect="always"
       xlink:href="#linearGradient86944"
       id="linearGradient86946"
       x1="32.84309"
       y1="86.444939"
       x2="564.00842"
       y2="18.696592"
       gradientUnits="userSpaceOnUse" /><linearGradient
       inkscape:collect="always"
       xlink:href="#linearGradient87144"
       id="linearGradient87146"
       x1="200.35353"
       y1="118.78568"
       x2="418.47467"
       y2="64.244858"
       gradientUnits="userSpaceOnUse" /><linearGradient
       inkscape:collect="always"
       xlink:href="#linearGradient87152"
       id="linearGradient87154"
       x1="143.20056"
       y1="124.38005"
       x2="324.53384"
       y2="88.31987"
       gradientUnits="userSpaceOnUse" /></defs><g
     inkscape:label="Capa 1"
     inkscape:groupmode="layer"
     id="layer1"
     sodipodi:insensitive="true"><rect
       style="opacity:1;fill:#0a0a0a;fill-opacity:1;fill-rule:evenodd;stroke:#0a0a0a;stroke-width:0;stroke-linejoin:round;stroke-miterlimit:4;stroke-dasharray:none;stroke-opacity:1"
       id="rect846"
       width="1632"
       height="1248"
       x="5e-07"
       y="5e-07"
       ry="1.7992097"
       sodipodi:insensitive="true" /></g><g
     inkscape:groupmode="layer"
     id="layer2"
     inkscape:label="Capa 2"
     sodipodi:insensitive="true"><g
       id="g85900"
       transform="translate(-0.9710924,-0.43592)"
       sodipodi:insensitive="true"><g
         id="g1041"
         transform="matrix(2.339558,0,0,2.339558,311.547,286.43592)"><path
           d="M 128.01682,0 C 105.98494,0.04678314 84.523372,7.0072685 66.657757,19.900168 l 23.902685,23.902684 c 11.277448,-6.898594 24.236288,-10.559734 37.456378,-10.582214 39.77241,-7.9e-5 72.01434,32.241846 72.01426,72.014262 -0.0318,13.21538 -3.69956,26.16719 -10.60151,37.43708 l 23.94799,23.94799 c 12.8888,-17.87595 19.8404,-39.34715 19.87417,-61.38507 C 233.25173,47.115274 186.13644,0 128.01682,0 Z"
           fill="#abc2ab"
           id="path1027"
           style="fill:url(#linearGradient86946);fill-opacity:1" /><path
           d="m 189.37588,190.56963 -23.90269,-23.90268 c -11.27745,6.89859 -24.23629,10.55974 -37.45637,10.58221 -39.772417,8e-5 -72.014343,-32.24185 -72.014264,-72.01426 0.03183,-13.215382 3.699547,-26.167196 10.60151,-37.437081 L 42.656067,43.849832 C 29.76725,61.725769 22.815686,83.196977 22.781918,105.2349 c 0,58.11962 47.115274,105.2349 105.234902,105.2349 22.03188,-0.0468 43.49344,-7.00726 61.35906,-19.90017 z"
           fill="#478061"
           id="path1029"
           style="fill:url(#linearGradient86924);fill-opacity:1" /><circle
           fill="#abc2ab"
           cx="128"
           cy="105.2349"
           r="33.503357"
           id="circle1031" /><g
           id="g1055"
           style="fill:#222222;fill-opacity:1;stroke:#abc2ab;stroke-width:1;stroke-miterlimit:4;stroke-dasharray:none;stroke-opacity:1;filter:url(#filter1031)"><path
             d="m 30.591915,124.81039 c -1.147564,0.81968 -2.192665,1.22952 -3.135303,1.22952 h -4.057453 c -0.573782,0 -1.024609,-0.10245 -1.352481,-0.30737 -0.327871,-0.20493 -0.59427,-0.51231 -0.799195,-0.92215 L 0.46842244,86.203138 C 0.38645233,86.121168 0.34546728,86.01871 0.34546728,85.895763 v -0.368865 c 0,-0.409842 0.14344762,-0.737718 0.43034287,-0.983628 C 1.1036817,84.256383 1.615986,84.11294 2.3127229,84.11294 H 27.579567 c 1.35248,0 2.233641,0.409841 2.643482,1.229525 L 43.010172,109.99455 78.85096,85.342465 c 1.188548,-0.819684 2.438574,-1.229525 3.750078,-1.229525 h 3.995963 c 0.532806,0 0.799208,0.225413 0.799208,0.67624 0,0.368856 -0.327871,0.819683 -0.983614,1.35248 z"
             fill="#000000"
             id="path1033"
             style="fill:#222222;fill-opacity:1;stroke:#abc2ab;stroke-width:1;stroke-miterlimit:4;stroke-dasharray:none;stroke-opacity:1" /><path
             d="m 86.35303,126.03991 c -2.131187,0 -4.016463,-0.32787 -5.65583,-0.98362 -1.639384,-0.69673 -3.012366,-1.63937 -4.118944,-2.82792 -1.106579,-1.18855 -1.946755,-2.58201 -2.520528,-4.18039 -0.573773,-1.63938 -0.860659,-3.40171 -0.860659,-5.287 0,-2.41807 0.409842,-4.79516 1.229525,-7.13126 0.819683,-2.33611 1.946754,-4.56976 3.381213,-6.70095 1.475427,-2.131187 3.196763,-4.098434 5.16401,-5.901741 2.008232,-1.803315 4.180404,-3.360721 6.516517,-4.672216 2.377097,-1.311495 4.877141,-2.336103 7.500131,-3.073825 2.623008,-0.778698 5.307485,-1.168047 8.053425,-1.168047 h 30.12348 c 2.17218,0 4.07795,0.327871 5.71734,0.983614 1.68035,0.655752 3.07381,1.577903 4.18039,2.766451 1.10658,1.147555 1.94676,2.520527 2.52053,4.118918 0.57379,1.59839 0.86069,3.340224 0.86069,5.2255 0,2.418083 -0.43034,4.815666 -1.29101,7.192756 -0.8197,2.33611 -1.96726,4.56976 -3.44269,6.70094 -1.47544,2.13118 -3.21728,4.11893 -5.22551,5.96323 -2.00823,1.80331 -4.2009,3.3812 -6.57799,4.73368 -2.37708,1.3115 -4.87713,2.35661 -7.50013,3.13531 -2.62299,0.73772 -5.26649,1.10657 -7.93048,1.10657 z m 37.00886,-25.1439 c 1.35249,-2.868898 2.02874,-5.020573 2.02874,-6.455023 0,-1.188549 -0.43035,-2.008237 -1.29103,-2.459063 -0.81969,-0.450827 -2.04921,-0.67624 -3.68858,-0.67624 h -8.36081 c -1.18854,0 -2.29512,0.163935 -3.31974,0.491807 -0.98363,0.286895 -1.90577,0.7992 -2.76644,1.536913 -0.86067,0.737722 -1.70084,1.72135 -2.52053,2.950883 -0.77869,1.229526 -1.57788,2.766434 -2.39757,4.610723 l -2.950895,6.70095 c -1.557397,3.48367 -2.336095,6.10667 -2.336095,7.869 0,1.18854 0.348364,2.04921 1.045092,2.582 0.696746,0.49181 1.700862,0.73772 3.012348,0.73772 h 8.42229 c 1.27052,0 2.43858,-0.18443 3.50417,-0.55328 1.0656,-0.40985 2.09021,-1.04511 3.07383,-1.90578 0.98362,-0.86067 1.92626,-2.00823 2.82791,-3.44268 0.90166,-1.43445 1.8238,-3.19678 2.76644,-5.28698 z"
             fill="#000000"
             id="path1035"
             style="fill:#222222;fill-opacity:1;stroke:#abc2ab;stroke-width:1;stroke-miterlimit:4;stroke-dasharray:none;stroke-opacity:1" /><path
             d="m 144.12269,126.03991 c -0.73771,0 -1.10657,-0.2459 -1.10657,-0.73771 0,-0.2459 0.0615,-0.55329 0.18444,-0.92215 l 17.27487,-38.668719 c 0.49183,-1.065594 1.27053,-1.59839 2.33613,-1.59839 h 21.14791 c 0.7787,0 1.16805,0.266394 1.16805,0.799182 0,0.24591 -0.082,0.512313 -0.24589,0.799208 L 167.6682,124.38005 c -0.49182,1.10658 -1.27052,1.65986 -2.33612,1.65986 z"
             fill="#000000"
             id="path1037"
             style="fill:url(#linearGradient87154);fill-opacity:1;stroke:#abc2ab;stroke-width:1;stroke-miterlimit:4;stroke-dasharray:none;stroke-opacity:1" /><path
             d="m 174.34897,126.03991 c -0.73772,0 -1.10657,-0.2459 -1.10657,-0.73771 0,-0.2459 0.0615,-0.55329 0.18443,-0.92215 l 17.27488,-38.668719 c 0.49182,-1.065594 1.27053,-1.59839 2.33612,-1.59839 h 49.42712 c 2.13119,0 4.01646,0.327871 5.65583,0.983614 1.63937,0.655752 3.01234,1.577903 4.11892,2.766451 1.10657,1.147555 1.94676,2.520527 2.52055,4.118918 0.57377,1.59839 0.86066,3.340224 0.86066,5.2255 0,2.500053 -0.43033,4.959116 -1.291,7.377186 -0.86067,2.37709 -2.04922,4.63123 -3.56565,6.76242 -1.47543,2.13118 -3.23775,4.09843 -5.28696,5.90174 -2.00824,1.80331 -4.2009,3.36072 -6.578,4.67221 -2.33611,1.27052 -4.79517,2.27464 -7.37717,3.01235 -2.58203,0.73772 -5.16404,1.10658 -7.74605,1.10658 z m 53.48456,-25.1439 c 1.3115,-2.950868 1.96725,-5.102543 1.96725,-6.455023 0,-1.188549 -0.40984,-2.008237 -1.22952,-2.459063 -0.81969,-0.450827 -2.00824,-0.67624 -3.56565,-0.67624 h -12.47973 l -12.17235,27.479996 h 12.41826 c 1.22953,0 2.37709,-0.18443 3.44269,-0.55328 1.06559,-0.40985 2.06971,-1.0451 3.01234,-1.90578 0.98363,-0.90166 1.92627,-2.04921 2.82792,-3.44268 0.94264,-1.43445 1.88528,-3.19678 2.82791,-5.28698 z"
             fill="#000000"
             id="path1039"
             style="fill:url(#linearGradient87146);fill-opacity:1;stroke:#abc2ab;stroke-width:1;stroke-miterlimit:4;stroke-dasharray:none;stroke-opacity:1" /></g></g></g><g
       id="g1459"
       sodipodi:insensitive="true"><g
         id="g314"
         transform="matrix(1.2947368,0,0,1.2947368,700,286.4)"
         sodipodi:insensitive="true"><circle
           style="fill:#ffffff;fill-opacity:1;fill-rule:evenodd;stroke-width:0.267534;paint-order:markers fill stroke"
           id="path1760"
           cx="190"
           cy="190"
           r="190" /><g
           id="g2187"
           transform="matrix(2.8601829,0,0,2.8601829,139.09517,289.80363)"><g
             inkscape:label="Capa 1"
             id="layer1-3"
             transform="matrix(0.26458333,0,0,0.26458333,-49.02146,-103.23409)"><path
               style="fill:#3a8844;fill-opacity:1;stroke:none;stroke-width:0.891054px;stroke-linecap:butt;stroke-linejoin:miter;stroke-opacity:1"
               d="m 258.545,305.72638 c 0,0 59.94318,16.28098 80.53145,-17.74661 26.84382,-44.36655 7.15835,-67.43718 35.79175,-88.73313 35.79176,-26.61992 82.54388,13.75536 53.68764,70.9865 -26.84382,53.23986 -90.54804,79.59489 -125.27114,70.98649 -35.79176,-8.8733 -44.7397,-35.49325 -44.7397,-35.49325 z"
               id="path1067"
               sodipodi:nodetypes="cssssc" /><path
               style="fill:#3a8844;fill-opacity:1;stroke:none;stroke-width:0.891054px;stroke-linecap:butt;stroke-linejoin:miter;stroke-opacity:1"
               d="m 111.41581,145.91029 c 35.79176,0 17.89589,70.98651 35.79176,88.73312 l 17.89588,17.74662 c 0,0 -62.63557,8.87332 -80.531447,-44.36656 -12.771929,-35.66802 0,-62.11318 26.843807,-62.11318 z"
               id="path1182"
               sodipodi:nodetypes="ssccs" /><path
               id="path8219"
               style="fill:#bc4e48;fill-opacity:1;stroke:none;stroke-width:0.891054px;stroke-linecap:butt;stroke-linejoin:miter;stroke-opacity:1"
               d="m 257.39648,46.880859 c -5.09961,0.250168 -11.3324,3.317399 -11.76171,10.296875 0,0 -2.63869,14.123343 17.89648,26.619141 23.1953,14.114525 41.94132,1.745662 44.73828,-8.873047 2.79698,-10.618711 -4.41674,-13.910948 -8.94726,-13.310547 -0.98348,0.130334 -1.96456,0.646226 -2.94336,1.351563 0.0274,-6.57086 1.05118,-14.720728 -10.94141,-5.244141 -1.63333,1.290661 -3.41527,2.556085 -5.24023,3.572266 -4.93559,-12.639533 -8.73422,-6.4982 -12.24805,-0.828125 -1.96625,-3.662311 -2.33011,-10.208352 -4.95313,-12.28125 -1.19792,-0.9467 -3.2816,-1.416447 -5.59961,-1.302735 z" /><path
               style="fill:#4e965c;fill-opacity:1;stroke:none;stroke-width:0.891054px;stroke-linecap:butt;stroke-linejoin:miter;stroke-opacity:1"
               d="m 335.11429,447.60288 c 0,0 -121.30898,-26.52345 -166.04867,-106.38325 C 141.58224,292.16214 138.63054,83.827756 245.6349,92.670418 353.01017,101.54374 294.33675,243.61322 276.44088,314.5997 258.545,385.58618 335.11429,447.60288 335.11429,447.60288 Z"
               id="path937"
               sodipodi:nodetypes="csszc" /><path
               style="fill:#458161;fill-opacity:1;stroke:none;stroke-width:0.891054px;stroke-linecap:butt;stroke-linejoin:miter;stroke-opacity:1"
               d="m 79.586231,314.5997 c -26.843816,8.8733 -4.791924,57.36122 26.843819,88.7331 26.84381,26.61995 71.5835,44.36659 80.53144,26.61995 8.94794,-17.74661 -26.84382,-8.87332 -62.63556,-44.36657 -35.79176,-35.49323 -17.89588,-79.8598 -44.739699,-70.98648 z"
               id="path11663"
               sodipodi:nodetypes="zsssz" /><path
               style="fill:#adc3ad;fill-opacity:1;stroke:none;stroke-width:0.891054px;stroke-linecap:butt;stroke-linejoin:miter;stroke-opacity:1"
               d="m 428.55584,154.88009 c 22.01589,-7.41173 -3.10009,-36.77438 -20.99597,-54.521 -17.89588,-17.74662 -41.6396,-34.212119 -50.58755,-16.465496 -8.94793,17.746626 14.7958,16.465496 32.69167,34.212116 17.89588,17.74662 16.87595,44.18612 38.89185,36.77438 z"
               id="path14218"
               sodipodi:nodetypes="zsssz" /></g></g></g></g></g><g
     inkscape:groupmode="layer"
     id="layer3"
     inkscape:label="Capa 3"
     sodipodi:insensitive="true"><text
       xml:space="preserve"
       id="text5465"
       style="font-style:normal;font-weight:normal;font-size:40px;line-height:1.25;font-family:sans-serif;white-space:pre;shape-inside:url(#rect5467);display:inline;fill:#000000;fill-opacity:1;stroke:none"
       inkscape:label="text5465"
       sodipodi:insensitive="true" /></g><g
     inkscape:groupmode="layer"
     id="layer4"
     inkscape:label="Capa 4"
     sodipodi:insensitive="true"><text
       xml:space="preserve"
       id="text4382-4"
       style="font-style:normal;font-weight:normal;font-size:43.7727px;line-height:1.25;font-family:sans-serif;letter-spacing:1.3679px;white-space:pre;shape-inside:url(#rect4384-2);display:inline;fill:url(#linearGradient86118);fill-opacity:1;stroke:none"
       transform="matrix(3.4202798,0,0,3.808861,-176.003,-2905.6724)"
       x="463.78906"
       y="0"
       sodipodi:insensitive="true"><tspan
         x="121.43158"
         y="808.04091"
         id="tspan578"><tspan
           style="font-style:italic;font-weight:bold;font-family:Roboto;-inkscape-font-specification:'Roboto Bold Italic';text-align:center;text-anchor:middle"
           id="tspan576">Void Linux Based</tspan></tspan></text><text
       xml:space="preserve"
       id="text49557"
       style="font-style:normal;font-weight:normal;font-size:40px;line-height:1.25;font-family:sans-serif;white-space:pre;shape-inside:url(#rect49559);display:inline;fill:#000000;fill-opacity:1;stroke:none"
       sodipodi:insensitive="true" /><text
       xml:space="preserve"
       id="text2820"
       style="font-style:normal;font-variant:normal;font-weight:500;font-stretch:normal;font-size:120px;font-family:Roboto;-inkscape-font-specification:'Roboto Medium';text-align:center;white-space:pre;shape-inside:url(#rect2822);display:inline;fill:#0a0a0a;fill-opacity:1;fill-rule:evenodd;paint-order:markers fill stroke"
       x="475.99106"
       y="0"
       transform="translate(-1512.29,-12.17645)"
       sodipodi:insensitive="true"><tspan
         x="1820.3545"
         y="973.40692"
         id="tspan586"><tspan
           style="fill:#ffffff"
           id="tspan580">&quot;The power of </tspan><tspan
           style="font-weight:bold;-inkscape-font-specification:'Roboto Bold';fill:#05b427"
           id="tspan582">Void</tspan><tspan
           style="fill:#ffffff"
           id="tspan584"> </tspan></tspan><tspan
         x="1772.3662"
         y="1123.4069"
         id="tspan598"><tspan
           style="fill:#ffffff"
           id="tspan588">in a </tspan><tspan
           style="font-weight:bold;-inkscape-font-specification:'Roboto Bold';fill:#05b427"
           id="tspan590">easy</tspan><tspan
           style="fill:#ffffff"
           id="tspan592"> way to </tspan><tspan
           style="font-weight:bold;-inkscape-font-specification:'Roboto Bold';fill:#05b427"
           id="tspan594">use</tspan><tspan
           style="fill:#ffffff"
           id="tspan596">&quot;</tspan></tspan></text></g></svg>
