<?xml version="1.0" encoding="UTF-8" standalone="no"?>
<!-- Created with Inkscape (http://www.inkscape.org/) -->

<svg
   inkscape:export-ydpi="96"
   inkscape:export-xdpi="96"
   inkscape:export-filename="/home/david/Imagenes/cereus-backgrounds/wallpaper.png"
   sodipodi:docname="wallpaper1.svg"
   inkscape:version="1.1.1 (3bf5ae0d25, 2021-09-20)"
   id="svg5"
   version="1.1"
   viewBox="0 0 1920 1080"
   height="1080"
   width="1920"
   xmlns:inkscape="http://www.inkscape.org/namespaces/inkscape"
   xmlns:sodipodi="http://sodipodi.sourceforge.net/DTD/sodipodi-0.dtd"
   xmlns:xlink="http://www.w3.org/1999/xlink"
   xmlns="http://www.w3.org/2000/svg"
   xmlns:svg="http://www.w3.org/2000/svg">
  <sodipodi:namedview
     id="namedview7"
     pagecolor="#505050"
     bordercolor="#ffffff"
     borderopacity="1"
     inkscape:pageshadow="0"
     inkscape:pageopacity="0"
     inkscape:pagecheckerboard="1"
     inkscape:document-units="px"
     showgrid="false"
     inkscape:zoom="0.45254833"
     inkscape:cx="1268.3728"
     inkscape:cy="471.77281"
     inkscape:window-width="1366"
     inkscape:window-height="705"
     inkscape:window-x="0"
     inkscape:window-y="0"
     inkscape:window-maximized="1"
     inkscape:current-layer="layer3" />
  <defs
     id="defs2">
    <linearGradient
       inkscape:collect="always"
       id="linearGradient6692">
      <stop
         style="stop-color:#292929;stop-opacity:1;"
         offset="0"
         id="stop6688" />
      <stop
         style="stop-color:#292929;stop-opacity:0;"
         offset="1"
         id="stop6690" />
    </linearGradient>
    <linearGradient
       inkscape:collect="always"
       id="linearGradient18662">
      <stop
         style="stop-color:#9be65f;stop-opacity:1;"
         offset="0"
         id="stop18658" />
      <stop
         style="stop-color:#9be65f;stop-opacity:0;"
         offset="1"
         id="stop18660" />
    </linearGradient>
    <linearGradient
       inkscape:collect="always"
       id="linearGradient18462">
      <stop
         style="stop-color:#9be65f;stop-opacity:1;"
         offset="0"
         id="stop18458" />
      <stop
         style="stop-color:#9be65f;stop-opacity:0;"
         offset="1"
         id="stop18460" />
    </linearGradient>
    <linearGradient
       inkscape:collect="always"
       id="linearGradient18262">
      <stop
         style="stop-color:#9be65f;stop-opacity:1;"
         offset="0"
         id="stop18258" />
      <stop
         style="stop-color:#9be65f;stop-opacity:0;"
         offset="1"
         id="stop18260" />
    </linearGradient>
    <linearGradient
       inkscape:collect="always"
       id="linearGradient17806">
      <stop
         style="stop-color:#9be65f;stop-opacity:1;"
         offset="0"
         id="stop17802" />
      <stop
         style="stop-color:#9be65f;stop-opacity:0;"
         offset="1"
         id="stop17804" />
    </linearGradient>
    <linearGradient
       inkscape:collect="always"
       id="linearGradient16454">
      <stop
         style="stop-color:#9be65f;stop-opacity:1;"
         offset="0"
         id="stop16450" />
      <stop
         style="stop-color:#9be65f;stop-opacity:0;"
         offset="1"
         id="stop16452" />
    </linearGradient>
    <linearGradient
       inkscape:collect="always"
       id="linearGradient16190">
      <stop
         style="stop-color:#9be65f;stop-opacity:1;"
         offset="0"
         id="stop16186" />
      <stop
         style="stop-color:#9be65f;stop-opacity:0;"
         offset="1"
         id="stop16188" />
    </linearGradient>
    <linearGradient
       inkscape:collect="always"
       id="linearGradient16118">
      <stop
         style="stop-color:#9be65f;stop-opacity:1;"
         offset="0"
         id="stop16114" />
      <stop
         style="stop-color:#9be65f;stop-opacity:0;"
         offset="1"
         id="stop16116" />
    </linearGradient>
    <linearGradient
       inkscape:collect="always"
       id="linearGradient14976">
      <stop
         style="stop-color:#9be65f;stop-opacity:1;"
         offset="0"
         id="stop14972" />
      <stop
         style="stop-color:#9be65f;stop-opacity:0;"
         offset="1"
         id="stop14974" />
    </linearGradient>
    <linearGradient
       inkscape:collect="always"
       id="linearGradient14776">
      <stop
         style="stop-color:#05b427;stop-opacity:1;"
         offset="0"
         id="stop14772" />
      <stop
         style="stop-color:#05b427;stop-opacity:0;"
         offset="1"
         id="stop14774" />
    </linearGradient>
    <linearGradient
       inkscape:collect="always"
       id="linearGradient13272">
      <stop
         style="stop-color:#ffffff;stop-opacity:1;"
         offset="0"
         id="stop13268" />
      <stop
         style="stop-color:#ffffff;stop-opacity:0;"
         offset="1"
         id="stop13270" />
    </linearGradient>
    <filter
       style="color-interpolation-filters:sRGB"
       inkscape:label="Opacity"
       id="filter1718"
       x="-0.36049539"
       y="-0.021985538"
       width="1.8702025"
       height="1.0530711"
       inkscape:menu-tooltip="In and out glow with a possible offset and colorizable flood"
       inkscape:menu="Shadows and Glows">
      <feFlood
         flood-opacity="1"
         flood-color="rgb(47,103,41)"
         result="flood"
         id="feFlood1712" />
      <feComposite
         in="flood"
         in2="SourceGraphic"
         operator="in"
         result="composite"
         id="feComposite1714" />
      <feGaussianBlur
         stdDeviation="0.01"
         id="feGaussianBlur1716"
         result="fbSourceGraphic" />
      <feColorMatrix
         result="fbSourceGraphicAlpha"
         in="fbSourceGraphic"
         values="0 0 0 -1 0 0 0 0 -1 0 0 0 0 -1 0 0 0 0 1 0"
         id="feColorMatrix1738" />
      <feFlood
         id="feFlood1740"
         flood-opacity="0.529412"
         flood-color="rgb(47,103,41)"
         result="flood"
         in="fbSourceGraphic" />
      <feComposite
         in2="fbSourceGraphic"
         id="feComposite1742"
         in="flood"
         operator="in"
         result="composite" />
      <feGaussianBlur
         id="feGaussianBlur1744"
         stdDeviation="0.01"
         result="fbSourceGraphic" />
      <feColorMatrix
         result="fbSourceGraphicAlpha"
         in="fbSourceGraphic"
         values="0 0 0 -1 0 0 0 0 -1 0 0 0 0 -1 0 0 0 0 1 0"
         id="feColorMatrix1816" />
      <feOffset
         id="feOffset1818"
         dy="3"
         dx="3"
         in="fbSourceGraphic" />
      <feGaussianBlur
         id="feGaussianBlur1820"
         stdDeviation="3"
         result="blur" />
      <feFlood
         id="feFlood1822"
         flood-color="rgb(0,0,0)"
         flood-opacity="1"
         result="flood" />
      <feComposite
         in2="fbSourceGraphic"
         id="feComposite1824"
         in="flood"
         operator="in"
         result="composite" />
      <feBlend
         in2="composite"
         id="feBlend1826"
         in="blur"
         mode="normal"
         result="fbSourceGraphic" />
      <feColorMatrix
         result="fbSourceGraphicAlpha"
         in="fbSourceGraphic"
         values="0 0 0 -1 0 0 0 0 -1 0 0 0 0 -1 0 0 0 0 1 0"
         id="feColorMatrix1846" />
      <feColorMatrix
         id="feColorMatrix1848"
         values="1 0 0 0 0 0 1 0 0 0 0 0 1 0 0 0 0 0 8.9 -1 "
         result="colormatrix"
         in="fbSourceGraphic" />
      <feComposite
         in2="colormatrix"
         id="feComposite1850"
         operator="arithmetic"
         k2="1"
         result="fbSourceGraphic"
         k1="0"
         k3="0"
         k4="0" />
      <feColorMatrix
         result="fbSourceGraphicAlpha"
         in="fbSourceGraphic"
         values="0 0 0 -1 0 0 0 0 -1 0 0 0 0 -1 0 0 0 0 1 0"
         id="feColorMatrix1870" />
      <feColorMatrix
         id="feColorMatrix1872"
         values="1 0 0 0 0 0 1 0 0 0 0 0 1 0 0 0 0 0 5 -1 "
         result="colormatrix"
         in="fbSourceGraphic" />
      <feComposite
         in2="colormatrix"
         id="feComposite1874"
         operator="arithmetic"
         k2="1"
         result="fbSourceGraphic"
         k1="0"
         k3="0"
         k4="0" />
      <feColorMatrix
         result="fbSourceGraphicAlpha"
         in="fbSourceGraphic"
         values="0 0 0 -1 0 0 0 0 -1 0 0 0 0 -1 0 0 0 0 1 0"
         id="feColorMatrix1894" />
      <feColorMatrix
         id="feColorMatrix1896"
         values="1 0 0 0 0 0 1 0 0 0 0 0 1 0 0 0 0 0 5 -1.9 "
         result="colormatrix"
         in="fbSourceGraphic" />
      <feComposite
         in2="colormatrix"
         id="feComposite1898"
         operator="arithmetic"
         k2="1"
         result="composite"
         k1="0"
         k3="0"
         k4="0" />
    </filter>
    <filter
       style="color-interpolation-filters:sRGB"
       inkscape:label="Drop Shadow"
       id="filter3352"
       x="-0.2733126"
       y="-0.19123242"
       width="1.6541293"
       height="1.4554044">
      <feFlood
         flood-opacity="0.921569"
         flood-color="rgb(7,74,0)"
         result="flood"
         id="feFlood3342" />
      <feComposite
         in="flood"
         in2="SourceGraphic"
         operator="out"
         result="composite1"
         id="feComposite3344" />
      <feGaussianBlur
         in="composite1"
         stdDeviation="6.9572562"
         result="blur"
         id="feGaussianBlur3346" />
      <feOffset
         dx="6"
         dy="6"
         result="offset"
         id="feOffset3348" />
      <feComposite
         in="offset"
         in2="SourceGraphic"
         operator="atop"
         result="fbSourceGraphic"
         id="feComposite3350" />
      <feColorMatrix
         result="fbSourceGraphicAlpha"
         in="fbSourceGraphic"
         values="0 0 0 -1 0 0 0 0 -1 0 0 0 0 -1 0 0 0 0 1 0"
         id="feColorMatrix3372" />
      <feFlood
         id="feFlood3374"
         flood-opacity="0.921569"
         flood-color="rgb(7,74,0)"
         result="flood"
         in="fbSourceGraphic" />
      <feComposite
         in2="fbSourceGraphic"
         id="feComposite3376"
         in="flood"
         operator="out"
         result="composite1" />
      <feGaussianBlur
         id="feGaussianBlur3378"
         in="composite1"
         stdDeviation="7"
         result="blur" />
      <feOffset
         id="feOffset3380"
         dx="6"
         dy="6"
         result="offset" />
      <feComposite
         in2="fbSourceGraphic"
         id="feComposite3382"
         in="offset"
         operator="atop"
         result="fbSourceGraphic" />
      <feColorMatrix
         result="fbSourceGraphicAlpha"
         in="fbSourceGraphic"
         values="0 0 0 -1 0 0 0 0 -1 0 0 0 0 -1 0 0 0 0 1 0"
         id="feColorMatrix3402" />
      <feFlood
         id="feFlood3404"
         flood-opacity="0.921569"
         flood-color="rgb(7,74,0)"
         result="flood"
         in="fbSourceGraphic" />
      <feComposite
         in2="fbSourceGraphic"
         id="feComposite3406"
         in="flood"
         operator="out"
         result="composite1" />
      <feGaussianBlur
         id="feGaussianBlur3408"
         in="composite1"
         stdDeviation="7"
         result="blur" />
      <feOffset
         id="feOffset3410"
         dx="7"
         dy="6"
         result="offset" />
      <feComposite
         in2="fbSourceGraphic"
         id="feComposite3412"
         in="offset"
         operator="atop"
         result="fbSourceGraphic" />
      <feColorMatrix
         result="fbSourceGraphicAlpha"
         in="fbSourceGraphic"
         values="0 0 0 -1 0 0 0 0 -1 0 0 0 0 -1 0 0 0 0 1 0"
         id="feColorMatrix3432" />
      <feFlood
         id="feFlood3434"
         flood-opacity="0.921569"
         flood-color="rgb(7,74,0)"
         result="flood"
         in="fbSourceGraphic" />
      <feComposite
         in2="fbSourceGraphic"
         id="feComposite3436"
         in="flood"
         operator="out"
         result="composite1" />
      <feGaussianBlur
         id="feGaussianBlur3438"
         in="composite1"
         stdDeviation="7"
         result="blur" />
      <feOffset
         id="feOffset3440"
         dx="7"
         dy="7"
         result="offset" />
      <feComposite
         in2="fbSourceGraphic"
         id="feComposite3442"
         in="offset"
         operator="atop"
         result="fbSourceGraphic" />
      <feColorMatrix
         result="fbSourceGraphicAlpha"
         in="fbSourceGraphic"
         values="0 0 0 -1 0 0 0 0 -1 0 0 0 0 -1 0 0 0 0 1 0"
         id="feColorMatrix3462" />
      <feFlood
         id="feFlood3464"
         flood-opacity="0.866667"
         flood-color="rgb(23,103,15)"
         result="flood"
         in="fbSourceGraphic" />
      <feComposite
         in2="fbSourceGraphic"
         id="feComposite3466"
         in="flood"
         operator="out"
         result="composite1" />
      <feGaussianBlur
         id="feGaussianBlur3468"
         in="composite1"
         stdDeviation="7"
         result="blur" />
      <feOffset
         id="feOffset3470"
         dx="7"
         dy="7"
         result="offset" />
      <feComposite
         in2="fbSourceGraphic"
         id="feComposite3472"
         in="offset"
         operator="atop"
         result="composite2" />
    </filter>
    <filter
       inkscape:menu="Fill and Transparency"
       inkscape:menu-tooltip="Create a semi transparent posterized image"
       style="color-interpolation-filters:sRGB"
       inkscape:label="Posterized Light Eraser"
       id="filter3853"
       x="-1.5384695e-05"
       y="-7.389873e-05"
       width="1.0000308"
       height="1.0001478">
      <feGaussianBlur
         stdDeviation="0.010764678"
         result="result1"
         in="SourceGraphic"
         id="feGaussianBlur3835" />
      <feColorMatrix
         values="1 0 0 0 0 0 1 0 0 0 0 0 1 0 0 0 0 0 50 0 "
         result="fbSourceGraphic"
         in="result1"
         id="feColorMatrix3837" />
      <feColorMatrix
         type="saturate"
         result="result8"
         values="1"
         id="feColorMatrix3839" />
      <feComponentTransfer
         in="result8"
         result="result7"
         id="feComponentTransfer3847">
        <feFuncR
           tableValues="0 0.2 0.4 0.6 0.8 1 1"
           type="discrete"
           id="feFuncR3841" />
        <feFuncG
           tableValues="0 0.2 0.4 0.6 0.8 1 1"
           type="discrete"
           id="feFuncG3843" />
        <feFuncB
           tableValues="0 0.2 0.4 0.6 0.8 1 1"
           type="discrete"
           id="feFuncB3845" />
      </feComponentTransfer>
      <feColorMatrix
         values="1 0 0 0 0 0 1 0 0 0 0 0 1 0 0 -0.21 -0.72 -0.07 1 0 "
         result="result2"
         in="result7"
         id="feColorMatrix3849" />
      <feComposite
         in2="SourceGraphic"
         operator="in"
         result="result9"
         in="result2"
         id="feComposite3851" />
    </filter>
    <clipPath
       clipPathUnits="userSpaceOnUse"
       id="clipPath5427">
      <path
         id="path5429"
         style="fill:#ff0000;fill-opacity:1;fill-rule:nonzero;stroke:none"
         d="m -368.49496,204.62067 -282.90503,610.64595 c 10.60614,-3.84649 20.74276,-9.01749 31.96802,-11.02664 3.37729,-0.60447 6.79796,-0.92748 10.19746,-1.39103 14.16966,-0.68377 27.94559,-5.30112 42.23978,-4.53076 2.11795,0.11425 4.20634,0.55092 6.30938,0.82649 1.64322,0.40022 3.3409,1.17994 5.06146,1.87996 -1.59975,-0.232 -2.67847,-9.8e-4 -1.08542,1.69704 4.76804,5.08234 11.11162,8.4112 16.66817,12.61707 -0.27067,1.16831 -0.78175,2.25658 -1.09022,3.41255 3.90356,2.1538 6.16326,7.46008 4.2231,14.73835 0.0584,-0.004 0.11625,-0.0109 0.17433,-0.0139 5.05675,-10.94274 10.12237,-21.88155 15.1685,-32.82921 -1.42941,-0.98067 -0.0651,-2.74166 2.19655,-4.7555 0.0463,-0.10052 0.0933,-0.20075 0.13958,-0.30127 4.48394,-9.72799 4.02057,-24.10023 13.44813,-29.18553 3.37507,-1.82053 7.44229,-0.38713 11.04127,2.32129 2.10619,0.46386 4.03157,1.21163 5.59115,2.26526 0.028,0.004 0.038,6.6e-4 0.0665,0.005 0.91325,-1.96408 1.81561,-3.93322 2.72975,-5.89687 2.7992,2.4512 5.59839,4.90275 8.39758,7.35395 0.11855,-0.23923 0.23799,-0.47823 0.35613,-0.71755 1.21218,-2.45636 2.40504,-4.92085 3.58971,-7.39056 0.4209,-0.87806 0.25451,-2.70175 1.22644,-2.65202 7.23531,0.37212 14.26397,2.54291 21.39637,3.81451 0.2631,2.31853 1.22373,4.66228 0.79017,6.95503 -2.07497,10.97266 -4.67705,21.8369 -7.34395,32.68513 1.87745,-4.09402 3.75697,-8.18671 5.65507,-12.27141 0.51143,-1.09701 0.87601,-2.27486 1.53337,-3.2912 1.29065,-1.99488 2.71495,-3.91287 4.28242,-5.69845 0.8011,-0.91259 5.16877,-4.54426 6.29558,-5.4998 0.64944,-0.55072 1.23476,-2.12984 1.94299,-1.65706 4.50945,3.01005 8.50597,6.70437 12.53637,10.35198 5.08231,-6.28982 10.87147,-7.95231 15.07175,-6.40629 3.51555,1.29399 5.84811,4.80944 5.75947,9.55429 4.56201,-7.32118 10.69694,-9.47707 15.13146,-7.42262 l 0.006,-0.0124 c 5.01247,2.32222 7.72633,9.60668 3.12856,19.53084 l -2.96637,6.40288 c 6.20305,2.77185 7.9146,11.39911 -1.44347,20.02802 -0.72624,0.66965 -1.3919,1.37269 -2.02969,2.09046 -0.017,2.67835 -0.53423,5.67866 -2.0421,9.09125 -0.90864,2.05643 -1.81185,4.11367 -2.72609,6.16764 -2.43056,5.46067 -3.29797,8.11132 -7.45929,10.40446 -1.43141,2.91739 -2.95765,5.7695 -4.29498,8.73634 -2.63658,5.88424 -5.38053,11.72017 -8.10666,17.56313 -1.36074,2.95194 -2.72909,5.90094 -4.09584,8.85012 -3.18308,6.86756 -6.36356,13.73506 -9.54526,20.60329 -1.90448,4.11066 -3.80912,8.2219 -5.71354,12.33258 -4.27696,9.2318 -8.55408,18.46385 -12.83106,27.69563 l -10.2957,22.22311 c -0.25749,2.17375 -0.81403,4.5204 -1.96854,7.10185 2.03037,0.8657 4.10794,1.62443 6.11087,2.55126 4.50389,2.0866 8.95404,4.2897 13.41746,6.46159 4.47558,1.74859 7.98433,3.86834 11.80096,6.96325 0.84594,0.68595 1.61239,1.46326 2.38658,2.23147 0.60716,-0.035 1.45629,0.80398 2.13725,1.05518 4.0613,1.4848 7.99348,3.1673 11.86477,5.0878 5.82546,2.9235 11.80178,5.5481 17.72262,8.2735 3.58133,1.6702 7.16563,3.3308 10.75113,4.9919 3.8833,1.7983 7.76716,3.5989 11.65029,5.3975 6.50811,3.0152 13.01602,6.0301 19.52407,9.0452 3.3089,1.5332 6.617,3.0656 9.92596,4.5986 l 13.97362,6.4738 41.13043,19.0553 30.99361,14.3589 16.78782,7.7776 10.2166,4.7333 c 2.50258,0.846 4.93414,1.886 7.44225,3.2132 l 6.64744,3.0797 14.50172,6.7185 19.89623,9.2177 18.91798,8.7644 9.73456,4.51 16.45467,7.6232 26.74568,12.391 19.706605,9.1298 16.475931,7.6331 c 5.299912,2.4554 10.60005,4.9109 15.899961,7.3663 2.698101,1.2491 5.395855,2.4998 8.093529,3.7496 3.994337,1.8505 7.983146,3.7095 11.985891,5.5419 5.470076,2.521 10.934076,5.0546 16.368343,7.6516 -0.13236,4e-4 -0.203613,0.01 -0.397097,-0.012 l 1.229892,0.5698 c 0.407756,0.055 0.812288,0.1132 1.207208,0.2191 0.999739,0.2686 6.784073,3.0206 6.885617,3.0674 5.090746,2.4632 7.1486389,3.6062 9.7724839,4.9903 l 1.4496438,0.6716 22.2904313,10.3269 9.925967,4.5985 c 19.848317,9.1956 10.559357,29.2456 -9.289134,20.0505 l -9.925967,-4.5986 -17.5090995,-8.1118 c -0.758287,-0.3204 -1.4279948,-0.404 -2.2178341,-0.8208 -0.1449564,-0.078 -0.151086,-0.07 -0.2891381,-0.1472 -3.4259473,2.935 -9.4706263,3.8591 -17.2147023,0.2711 -2.630364,-1.2188 -5.261014,-2.4377 -7.891506,-3.656 -4.593391,-2.1281 -9.186772,-4.2567 -13.780445,-6.3843 -1.09138,2.6809 -2.274986,5.7299 -3.496614,10.3955 -16.88947,-0.075 -33.793028,-1.2326 -50.576176,-3.1736 -0.39777,0.7453 -0.41029,0.9736 -0.85678,1.8029 4.956355,2.3337 9.910288,4.6707 14.86905,6.9989 1.129683,0.5231 3.652789,0.3683 3.379999,1.588 2.81e-4,10e-5 -7.11e-4,7e-4 -0.0067,0.014 0.339323,0.1581 0.673406,0.3274 1.01311,0.4848 -1.439381,2.6648 -2.699128,5.4442 -4.01058,8.1921 -1.715739,3.965 -3.691374,7.8489 -5.308635,11.8443 -0.402129,-0.1869 -0.796997,-0.3847 -1.1992,-0.571 -0.731694,0.9298 -2.16075,-1.0165 -3.24362,-1.5292 -0.08726,-0.041 -0.17662,-0.082 -0.264059,-0.1223 -11.703049,-5.4407 -23.414439,-10.8609 -35.129859,-16.2753 -2.04742,-0.9188 -4.06845,-1.8959 -6.12592,-2.7929 -5.15777,-2.0654 -10.43307,-3.9866 -15.28237,-6.7293 -3.88184,-2.1956 -2.39192,-1.4019 -3.20896,-1.8828 -6.21643,-2.8799 -12.43245,-5.7595 -18.64862,-8.6397 -2.89111,-1.3391 -5.78218,-2.6782 -8.67303,-4.0181 -3.09305,1.5998 -6.45939,2.9208 -9.3248,4.753 -1.33747,-0.764 -1.65398,-0.8771 -2.53682,-1.3496 -0.14323,0.044 -0.42369,0.1597 -0.54907,0.1955 -0.33591,0.095 -1.2676,-0.4281 -2.12773,-0.9968 -2.9841,0.9692 -5.9711,1.9388 -9.04093,2.5188 -15.86142,2.9965 -27.1811,-2.8786 -43.69109,-6.9258 -2.2388,0.9476 -5.39349,1.9823 -9.89039,3.1907 0.0685,0.1309 0.12368,0.2734 0.19463,0.4023 -0.66532,0.5707 -1.26331,1.2777 -1.88761,1.9324 -0.77289,1.6802 -1.58949,2.9432 -2.20647,3.694 0.52592,0.2646 1.05551,0.5221 1.58145,0.7867 -2.94447,0.6386 -2.68502,0.557 -1.58145,-0.7867 -0.27687,-0.1393 -0.55576,-0.2751 -0.83304,-0.4135 -0.31092,0.3626 -0.62472,0.7186 -0.93789,1.0766 2.17918,1.0614 4.30802,2.2085 6.3089,3.2436 -0.64449,1.2086 -1.14887,2.5878 -1.61679,4.0101 5.6844,5.5745 4.1238,10.0097 -5.14157,13.082 -0.99675,1.2328 -2.1979,2.2178 -3.80338,2.713 -1.48979,0.4595 -2.99337,0.7201 -4.50653,0.8483 -0.0996,0.5589 -0.26861,1.1235 -0.33703,1.68 -0.35172,-0.525 -0.63253,-1.1158 -0.95165,-1.6722 -9.71029,0.3069 -19.81387,-4.9219 -29.65915,-6.4694 -0.99976,-0.1571 -2.00716,-0.2722 -3.00894,-0.4188 -0.15924,0.5207 -0.29423,1.0484 -0.45745,1.5682 -0.006,0.017 -0.98373,-0.4668 -3.01779,-1.4731 -0.10814,-0.05 -0.2169,-0.1 -0.31842,-0.1629 -0.007,0.011 -0.0234,0.022 -0.0305,0.033 -0.67361,-0.333 -1.00128,-0.4418 -1.6259,-0.7279 -8.89685,-1.2032 -17.81131,-2.3132 -26.56173,-4.2854 -21.43443,-4.8312 -50.93977,-13.6979 -72.47588,-22.498 -2.19153,-0.8948 -4.31975,-1.9297 -6.46574,-2.9283 -2.64262,5.305 -4.93969,10.8856 -9.16739,14.9277 -0.61338,0.5865 -8.55403,-3.8638 -9.94586,-4.2397 -2.75522,-0.7437 -6.35276,-1.6129 -10.32237,-2.5349 0.26937,0.3418 0.48211,0.7312 0.62088,1.1874 1.5e-4,0.011 0.005,0.014 0.007,0.026 2.50656,0.9898 8.01478,0.8382 6.96679,3.1803 -1.46925,3.2829 -3.53748,6.4314 -6.01568,9.2027 -0.44234,3.8168 -1.48922,7.5766 -3.06257,10.9454 -1.11883,2.396 -4.80829,-2.1339 -7.23203,-3.2535 -3.37016,1.3884 -6.7192,-2.8137 -10.07388,-4.5999 -1.87789,-0.8535 -3.75496,-1.7121 -5.7396,-2.6139 -7.32769,0.5171 -14.67884,-4.5562 -22.00744,-6.403 -31.3273,-7.8952 -12.56679,-3.7893 -43.75797,-9.9037 3.66389,-4.7047 0.17993,-4.2132 -4.32234,-3.0572 -0.0748,0.2812 -0.12487,0.568 -0.20367,0.8485 -0.18156,0.6461 -1.34236,0.041 -2.01351,0.053 -0.89202,0.016 -2.35141,0.6893 -2.99304,0.4063 -2.98856,0.6914 -5.45472,0.9582 -5.38623,-0.6957 0.0379,-0.9147 0.18878,-1.8196 0.28304,-2.7296 -0.48554,-0.2525 -0.93118,-0.4997 -1.72256,-0.7981 -1.65129,-0.6223 -3.24831,-1.3813 -4.87074,-2.0779 -0.22632,0.4868 -0.45303,0.9703 -0.67924,1.4569 -0.73476,1.594 -1.27376,3.3416 -1.85117,5.0597 -0.32062,1.6286 -0.62356,3.2833 -1.44483,4.2105 -2.22959,7.4529 -4.27628,15.0525 -10.11258,19.658 -1.14399,2.4693 -2.28782,4.938 -3.43192,7.4078 L 717.34969,1835.3776 1147.4779,906.9529 Z m -45.19674,603.6252 c -0.1399,0.17553 -0.56329,0.6008 -0.71251,0.78061 0.0223,0.20542 0.0447,0.41121 0.0631,0.62118 z m -97.65565,-2.8461 c -2.90623,-0.94933 -5.6785,-2.17134 -8.29498,-3.67721 -0.12318,4.65472 -0.29488,9.3085 -0.44368,13.96252 1.60393,1.54144 3.05052,3.05046 4.22664,4.50892 2.29165,-2.07864 4.58298,-4.15806 6.88116,-6.22944 0.90578,-1.9575 1.81429,-3.91374 2.72006,-5.87122 -1.74045,-0.7909 -3.43576,-1.69446 -5.0892,-2.69357 z m -54.19337,15.25532 c -0.4427,-0.0993 -0.7409,-0.15139 -0.4594,-0.0213 0.007,0.003 0.0154,0.005 0.0221,0.008 0.12116,0.0267 0.29947,-0.0182 0.43732,0.0132 z m -0.43732,-0.0132 c -1.64293,-0.36121 -1.89974,-0.37436 -5.92536,-0.16855 -6.30674,0.32242 -12.50759,1.33574 -18.71054,2.32901 0.91402,0.668 1.77666,1.40222 2.51363,2.30108 2.28198,2.78315 -2.17228,6.67814 -3.98782,9.98292 -0.10808,0.47541 -0.17397,0.87051 -0.31222,1.39874 -0.18099,0.69159 -0.25452,1.00072 -0.42046,1.63701 0.83924,-0.64165 1.66957,-1.29218 2.57287,-1.86901 1.93709,-1.2369 4.05729,-2.5468 6.35151,-2.6841 0.66272,-0.0399 1.35802,-0.0673 2.05178,-0.0892 1.64842,-2.61 2.73861,-7.42396 5.32694,-6.36399 0.78297,0.32064 1.27478,0.57692 1.99511,0.88342 1.44685,-0.0422 3.12916,0.68352 5.20706,2.3091 0.29108,0.14037 0.46311,0.25864 0.73975,0.3965 1.31917,-2.94899 2.70601,-5.87611 3.86085,-8.8772 0.004,-0.0103 0.14498,-0.52892 0.16483,-0.59739 -0.47207,-0.19974 -0.97777,-0.38146 -1.42794,-0.58836 z m -46.39703,5.07584 c -3.385,0.54804 -6.78765,1.33939 -10.10694,2.28751 0.0219,0.0212 0.0498,0.0226 0.072,0.0444 2.14415,1.74014 3.89867,3.87023 5.42435,6.19825 0.72833,-1.41723 1.43524,-2.84616 2.17485,-4.25761 0.633,-1.20814 1.39188,-2.34528 2.15702,-3.47578 0.0859,-0.27011 0.19018,-0.52587 0.27783,-0.79474 z m -13.67178,3.30086 c -0.47001,0.16082 -0.91906,0.22312 -1.39333,0.3963 -17.17936,6.27371 4.24415,-0.12564 -17.66409,7.12325 -1.98213,0.65584 -4.06009,0.97941 -6.08979,1.46872 -2.11178,-0.27411 -4.35492,-0.16648 -6.5405,-0.22539 -0.99539,0.94679 -1.93388,1.954 -2.84889,2.9852 6.84511,-1.86791 13.87488,-3.08212 20.93236,-3.92354 0.54032,-0.72559 1.08573,-1.4659 1.60942,-2.1776 0.82841,-1.12576 3.18613,-1.13721 4.18957,-0.16415 0.52419,0.50835 1.0242,1.03789 1.5048,1.58402 0.15879,-0.0102 0.52176,0.0394 0.6939,0.0308 0.40552,-0.49224 0.83672,-0.96398 1.23486,-1.46206 0.69947,-1.14318 2.49792,-3.94736 4.37169,-5.6356 z m -26.27597,-11.76006 -0.4376,0.94456 c 2.14687,0.90204 2.21939,0.88229 0.4376,-0.94456 z m -12.08297,63.96169 c -0.47743,-0.0609 -0.92202,-0.1621 -1.41278,-0.22613 -0.26892,0.0797 -2.81751,0.8245 -2.85618,0.83579 -5.90344,2.31242 -6.9017,2.99195 -8.88567,-0.36253 -1.84328,0.55431 -3.56839,0.89289 -4.54684,0.0804 l -116.51131,251.48783 95.77905,44.3733 c 2.25015,-4.8569 4.50109,-9.7135 6.75227,-14.57 0.17229,-0.7335 0.46933,-1.4427 0.77304,-2.1517 2.60228,-8.0617 5.28316,-16.0949 8.44064,-23.9478 8.80987,-21.9129 15.90433,-37.3142 23.28458,-52.3921 1.16978,-3.3227 2.35908,-6.6383 3.52794,-9.9613 -0.14082,-0.041 -0.27765,-0.1044 -0.40139,-0.2069 -0.16829,-0.1408 -0.32125,-0.2972 -0.48676,-0.4408 -3.41826,7.2865 -6.86011,14.562 -10.18401,21.8938 -9.58665,14.2479 -12.95661,15.6903 -24.31211,-6.149 -0.88079,-1.694 1.45313,-3.5318 2.26288,-5.2608 0.61098,-1.3045 2.89048,-5.9884 4.68366,-9.71 -0.46859,-0.2612 -0.86617,-0.526 -1.26263,-0.7593 -0.79798,1.6442 -1.54663,3.3122 -2.36668,4.9457 -2.03774,4.0594 -4.22895,9.0254 -7.08782,12.6646 -0.43593,1.393 -1.12555,2.3733 -2.36229,2.4831 -4.67535,4.0344 -11.04778,4.0365 -20.69828,-6.692 -3.71789,1.6002 -7.97718,2.5158 -10.19026,-0.097 -14.98586,-17.7174 -1.95408,-18.7627 1.90965,-30.0108 0.98614,-2.8715 0.62346,-6.0396 0.93589,-9.0592 0.31563,-16.794 0.0943,-11.5476 5.98977,-34.3759 -0.0511,-0.4305 -0.0443,-0.8754 0.0205,-1.3359 -0.0939,-0.093 -0.17491,-0.1636 -0.26986,-0.2584 -2.04481,-2.0337 0.73243,-5.0942 2.6872,-7.9701 1.95425,-8.10303 3.77515,-16.26197 6.59851,-24.09745 7.44887,-20.67356 18.96906,-45.60208 29.68896,-65.52815 2.35838,-4.38375 5.17689,-8.50551 7.76578,-12.75723 1.18201,-0.22783 2.41053,-0.67129 3.65016,-1.16966 1.36957,-2.93003 2.81878,-5.81766 4.22976,-8.72564 1.61523,-3.51738 3.23024,-7.03476 4.85446,-10.54797 z m -6.27211,79.75651 c -0.24586,0.43054 -0.5152,0.86122 -0.75757,1.29138 0.19507,0.13336 0.42513,-0.12011 0.69466,-1.058 0.0284,-0.0986 0.0348,-0.13562 0.0629,-0.23337 z m 46.46907,39.05666 c -0.1613,-0.0637 -0.34664,-0.11981 -0.50197,-0.18956 -0.80727,1.19856 -1.38343,2.54656 -2.25423,3.70416 0.0684,0.044 0.14203,0.09 0.21119,0.1342 0.82265,-1.1053 1.80613,-2.6191 2.54514,-3.6491 z m 435.37007,203.5617 c -2.54842,0.347 -5.02729,1.0348 -7.49239,1.7875 -0.0826,0.051 -0.10488,0.1259 -0.26118,0.1502 -0.0712,0.011 -0.13243,-0.01 -0.19947,-0.011 -0.79335,0.2461 -1.59183,0.469 -2.38323,0.7256 0.44724,0.2182 1.26657,0.6717 1.9428,1.0336 3.42752,-1.0385 11.48476,-4.1077 8.39355,-3.6862 z m -10.33635,2.6526 c -2.56253,-1.2489 -2.05102,-0.6342 -0.73408,0.2325 0.24412,-0.079 0.48968,-0.1533 0.73408,-0.2325 z m -427.95283,-202.7988 c -0.0158,0.027 -0.0315,0.054 -0.0486,0.081 0.056,0.026 0.11153,0.052 0.17255,0.069 0.012,-0.017 0.0246,-0.032 0.0372,-0.048 -0.0516,-0.035 -0.10815,-0.072 -0.1614,-0.1023 z m 0.373,0.2357 c -0.005,0.01 -0.008,0.01 -0.0122,0.012 0.0389,0.018 0.078,0.036 0.11697,0.054 -0.0324,-0.026 -0.0711,-0.045 -0.10492,-0.066 z m -0.0143,0.016 c -0.0772,-0.036 -0.15732,-0.073 -0.23636,-0.098 -0.30705,0.4077 -0.61476,0.8149 -0.92663,1.2196 0.0807,0.037 0.16182,0.075 0.24279,0.1125 0.3196,-0.4244 0.62344,-0.8344 0.92012,-1.2334 z m -53.35687,-23.58079 c -4.85116,11.04148 -9.59381,22.18209 -17.43786,31.45059 -1.02311,1.4376 -1.93563,2.7975 -2.82214,4.089 -0.28396,1.9233 -0.74303,3.5852 -1.94655,4.1459 -2.45532,9.8541 -4.64275,18.884 -5.05748,21.0918 -0.43433,2.3123 -0.46915,4.6699 -0.47104,7.0336 2.51592,-5.863 5.49285,-12.4647 8.01647,-17.9493 -0.0684,-0.3289 -0.1158,-0.6431 -0.19967,-0.9814 0.63947,-0.9451 1.31273,-1.8661 1.95859,-2.8059 2.34653,-5.0602 5.03621,-10.8777 8.28374,-17.8384 -0.61535,-0.3589 -1.26277,-0.6666 -1.85959,-1.0552 -1.20825,-0.7859 0.0186,-2.2695 1.71472,-3.8917 0.0396,-0.067 0.12302,-0.1447 0.15282,-0.209 0.77578,-1.6793 2.06208,-4.45195 3.03353,-6.55261 0.006,-0.0127 0.0139,-0.0299 0.0198,-0.0426 1.78503,-3.85773 3.5058,-7.56858 5.5664,-12.01975 0.45538,-1.95158 0.5806,-2.45707 1.04832,-4.46509 z m 381.92518,207.71849 c -0.12213,0.065 -0.24327,0.1335 -0.36547,0.1988 -0.0389,0.11 -0.23961,0.7645 -0.2867,0.9069 0.22935,0.3582 0.46459,0.7094 0.69336,1.0681 -0.004,-1.0546 -0.0133,-1.7905 -0.0412,-2.1738 z m -312.11468,-127.6477 c -0.26196,0.088 -0.52278,0.1832 -0.78436,0.276 -0.24119,0.9837 -0.46915,1.9711 -0.71412,2.9538 0.49957,-1.0764 0.99867,-2.1533 1.49853,-3.2298 z m -12.39947,25.7559 c -0.8349,0.4141 -1.66757,0.8166 -2.52222,1.1928 -1.11454,2.9673 -2.22017,5.85 -3.45602,8.3286 0.23142,0.2828 0.37625,0.5896 0.50834,0.9007 1.49264,-3.5955 3.57594,-6.9739 5.4699,-10.4221 z m -8.58952,19.3348 c -3.00571,5.9885 -6.95297,13.855 -6.95682,13.8639 -0.67416,1.5789 -0.97481,2.3858 -1.57642,3.8116 1.0967,-2.2573 2.14838,-4.5331 3.25207,-6.7872 1.72457,-3.5224 3.46025,-7.042 5.18511,-10.5647 0.004,-0.017 0.009,-0.042 0.0132,-0.061 0.0237,-0.087 0.0592,-0.1744 0.083,-0.263 z m 199.17781,106.6493 c -0.0862,-0.04 -0.52552,-0.2192 -0.63339,-0.2637 -0.0535,0.1409 -0.12193,0.2774 -0.1745,0.4185 1.36357,0.1723 1.70453,0.2258 0.80807,-0.1552 z" />
    </clipPath>
    <linearGradient
       inkscape:collect="always"
       xlink:href="#linearGradient13272"
       id="linearGradient13274"
       x1="289.77551"
       y1="183.72049"
       x2="-24.258068"
       y2="373.32184"
       gradientUnits="userSpaceOnUse" />
    <linearGradient
       inkscape:collect="always"
       xlink:href="#linearGradient14776"
       id="linearGradient14778"
       x1="247.18991"
       y1="263.27206"
       x2="66.574181"
       y2="359.91333"
       gradientUnits="userSpaceOnUse" />
    <linearGradient
       inkscape:collect="always"
       xlink:href="#linearGradient14976"
       id="linearGradient14978"
       x1="134.4454"
       y1="190.84743"
       x2="110.97031"
       y2="199.33885"
       gradientUnits="userSpaceOnUse" />
    <linearGradient
       inkscape:collect="always"
       xlink:href="#linearGradient16118"
       id="linearGradient16120"
       x1="166.53149"
       y1="157.40501"
       x2="138.6026"
       y2="169.36429"
       gradientUnits="userSpaceOnUse" />
    <linearGradient
       inkscape:collect="always"
       xlink:href="#linearGradient16190"
       id="linearGradient16192"
       x1="192.75497"
       y1="207.50418"
       x2="120.66959"
       y2="237.18982"
       gradientUnits="userSpaceOnUse" />
    <linearGradient
       inkscape:collect="always"
       xlink:href="#linearGradient16454"
       id="linearGradient16456"
       x1="153.91344"
       y1="273.48413"
       x2="131.36671"
       y2="289.49509"
       gradientUnits="userSpaceOnUse" />
    <linearGradient
       inkscape:collect="always"
       xlink:href="#linearGradient17806"
       id="linearGradient17808"
       x1="188.75095"
       y1="311.25348"
       x2="162.04695"
       y2="328.62939"
       gradientUnits="userSpaceOnUse" />
    <linearGradient
       inkscape:collect="always"
       xlink:href="#linearGradient18262"
       id="linearGradient18264"
       x1="239.44627"
       y1="338.13449"
       x2="214.5191"
       y2="355.38034"
       gradientUnits="userSpaceOnUse" />
    <linearGradient
       inkscape:collect="always"
       xlink:href="#linearGradient18462"
       id="linearGradient18464"
       x1="259.90842"
       y1="419.07053"
       x2="221.88029"
       y2="439.74695"
       gradientUnits="userSpaceOnUse" />
    <linearGradient
       inkscape:collect="always"
       xlink:href="#linearGradient18662"
       id="linearGradient18664"
       x1="232.2981"
       y1="289.71042"
       x2="200.76065"
       y2="311.89801"
       gradientUnits="userSpaceOnUse" />
    <linearGradient
       inkscape:collect="always"
       xlink:href="#linearGradient6692"
       id="linearGradient6694"
       x1="1923.5155"
       y1="1022.65"
       x2="-1662.9537"
       y2="1006.7189"
       gradientUnits="userSpaceOnUse" />
  </defs>
  <g
     inkscape:groupmode="layer"
     id="layer3"
     inkscape:label="layer 1">
    <rect
       style="fill:#0a0a0a;fill-opacity:0.988235;fill-rule:evenodd;stroke:#232323;stroke-width:0;stroke-linejoin:round;stroke-opacity:1"
       id="rect925"
       width="1920"
       height="1080"
       x="5e-07"
       y="5e-07"
       ry="0.82061064" />
    <path
       d="M 0,0 V 1080 M 10,0 V 1080 M 20,0 V 1080 M 30,0 V 1080 M 40,0 V 1080 M 50,0 V 1080 M 60,0 V 1080 M 70,0 V 1080 M 80,0 V 1080 M 90,0 V 1080 M 100,0 V 1080 M 110,0 V 1080 M 120,0 V 1080 M 130,0 V 1080 M 140,0 V 1080 M 150,0 V 1080 M 160,0 V 1080 M 170,0 V 1080 M 180,0 V 1080 M 190,0 V 1080 M 200,0 V 1080 M 210,0 V 1080 M 220,0 V 1080 M 230,0 V 1080 M 240,0 V 1080 M 250,0 V 1080 M 260,0 V 1080 M 270,0 V 1080 M 280,0 V 1080 M 290,0 V 1080 M 300,0 V 1080 M 310,0 V 1080 M 320,0 V 1080 M 330,0 V 1080 M 340,0 V 1080 M 350,0 V 1080 M 360,0 V 1080 M 370,0 V 1080 M 380,0 V 1080 M 390,0 V 1080 M 400,0 V 1080 M 410,0 V 1080 M 420,0 V 1080 M 430,0 V 1080 M 440,0 V 1080 M 450,0 V 1080 M 460,0 V 1080 M 470,0 V 1080 M 480,0 V 1080 M 490,0 V 1080 M 500,0 V 1080 M 510,0 V 1080 M 520,0 V 1080 M 530,0 V 1080 M 540,0 V 1080 M 550,0 V 1080 M 560,0 V 1080 M 570,0 V 1080 M 580,0 V 1080 M 590,0 V 1080 M 600,0 V 1080 M 610,0 V 1080 M 620,0 V 1080 M 630,0 V 1080 M 640,0 V 1080 M 650,0 V 1080 M 660,0 V 1080 M 670,0 V 1080 M 680,0 V 1080 M 690,0 V 1080 M 700,0 V 1080 M 710,0 V 1080 M 720,0 V 1080 M 730,0 V 1080 M 740,0 V 1080 M 750,0 V 1080 M 760,0 V 1080 M 770,0 V 1080 M 780,0 V 1080 M 790,0 V 1080 M 800,0 V 1080 M 810,0 V 1080 M 820,0 V 1080 M 830,0 V 1080 M 840,0 V 1080 M 850,0 V 1080 M 860,0 V 1080 M 870,0 V 1080 M 880,0 V 1080 M 890,0 V 1080 M 900,0 V 1080 M 910,0 V 1080 M 920,0 V 1080 M 930,0 V 1080 M 940,0 V 1080 M 950,0 V 1080 M 960,0 V 1080 M 970,0 V 1080 M 980,0 V 1080 M 990,0 V 1080 M 1000,0 V 1080 M 1010,0 V 1080 M 1020,0 V 1080 M 1030,0 V 1080 M 1040,0 V 1080 M 1050,0 V 1080 M 1060,0 V 1080 M 1070,0 V 1080 M 1080,0 V 1080 M 1090,0 V 1080 M 1100,0 V 1080 M 1110,0 V 1080 M 1120,0 V 1080 M 1130,0 V 1080 M 1140,0 V 1080 M 1150,0 V 1080 M 1160,0 V 1080 M 1170,0 V 1080 M 1180,0 V 1080 M 1190,0 V 1080 M 1200,0 V 1080 M 1210,0 V 1080 M 1220,0 V 1080 M 1230,0 V 1080 M 1240,0 V 1080 M 1250,0 V 1080 M 1260,0 V 1080 M 1270,0 V 1080 M 1280,0 V 1080 M 1290,0 V 1080 M 1300,0 V 1080 M 1310,0 V 1080 M 1320,0 V 1080 M 1330,0 V 1080 M 1340,0 V 1080 M 1350,0 V 1080 M 1360,0 V 1080 M 1370,0 V 1080 M 1380,0 V 1080 M 1390,0 V 1080 M 1400,0 V 1080 M 1410,0 V 1080 M 1420,0 V 1080 M 1430,0 V 1080 M 1440,0 V 1080 M 1450,0 V 1080 M 1460,0 V 1080 M 1470,0 V 1080 M 1480,0 V 1080 M 1490,0 V 1080 M 1500,0 V 1080 M 1510,0 V 1080 M 1520,0 V 1080 M 1530,0 V 1080 M 1540,0 V 1080 M 1550,0 V 1080 M 1560,0 V 1080 M 1570,0 V 1080 M 1580,0 V 1080 M 1590,0 V 1080 M 1600,0 V 1080 M 1610,0 V 1080 M 1620,0 V 1080 M 1630,0 V 1080 M 1640,0 V 1080 M 1650,0 V 1080 M 1660,0 V 1080 M 1670,0 V 1080 M 1680,0 V 1080 M 1690,0 V 1080 M 1700,0 V 1080 M 1710,0 V 1080 M 1720,0 V 1080 M 1730,0 V 1080 M 1740,0 V 1080 M 1750,0 V 1080 M 1760,0 V 1080 M 1770,0 V 1080 M 1780,0 V 1080 M 1790,0 V 1080 M 1800,0 V 1080 M 1810,0 V 1080 M 1820,0 V 1080 M 1830,0 V 1080 M 1840,0 V 1080 M 1850,0 V 1080 M 1860,0 V 1080 M 1870,0 V 1080 M 1880,0 V 1080 M 1890,0 V 1080 M 1900,0 V 1080 M 1910,0 V 1080 M 1920,0 V 1080 M 0,0 H 1920 M 0,10 H 1920 M 0,20 H 1920 M 0,30 H 1920 M 0,40 H 1920 M 0,50 H 1920 M 0,60 H 1920 M 0,70 H 1920 M 0,80 H 1920 M 0,90 H 1920 M 0,100 H 1920 M 0,110 H 1920 M 0,120 H 1920 M 0,130 H 1920 M 0,140 H 1920 M 0,150 H 1920 M 0,160 H 1920 M 0,170 H 1920 M 0,180 H 1920 M 0,190 H 1920 M 0,200 H 1920 M 0,210 H 1920 M 0,220 H 1920 M 0,230 H 1920 M 0,240 H 1920 M 0,250 H 1920 M 0,260 H 1920 M 0,270 H 1920 M 0,280 H 1920 M 0,290 H 1920 M 0,300 H 1920 M 0,310 H 1920 M 0,320 H 1920 M 0,330 H 1920 M 0,340 H 1920 M 0,350 H 1920 M 0,360 H 1920 M 0,370 H 1920 M 0,380 H 1920 M 0,390 H 1920 M 0,400 H 1920 M 0,410 H 1920 M 0,420 H 1920 M 0,430 H 1920 M 0,440 H 1920 M 0,450 H 1920 M 0,460 H 1920 M 0,470 H 1920 M 0,480 H 1920 M 0,490 H 1920 M 0,500 H 1920 M 0,510 H 1920 M 0,520 H 1920 M 0,530 H 1920 M 0,540 H 1920 M 0,550 H 1920 M 0,560 H 1920 M 0,570 H 1920 M 0,580 H 1920 M 0,590 H 1920 M 0,600 H 1920 M 0,610 H 1920 M 0,620 H 1920 M 0,630 H 1920 M 0,640 H 1920 M 0,650 H 1920 M 0,660 H 1920 M 0,670 H 1920 M 0,680 H 1920 M 0,690 H 1920 M 0,700 H 1920 M 0,710 H 1920 M 0,720 H 1920 M 0,730 H 1920 M 0,740 H 1920 M 0,750 H 1920 M 0,760 H 1920 M 0,770 H 1920 M 0,780 H 1920 M 0,790 H 1920 M 0,800 H 1920 M 0,810 H 1920 M 0,820 H 1920 M 0,830 H 1920 M 0,840 H 1920 M 0,850 H 1920 M 0,860 H 1920 M 0,870 H 1920 M 0,880 H 1920 M 0,890 H 1920 M 0,900 H 1920 M 0,910 H 1920 M 0,920 H 1920 M 0,930 H 1920 M 0,940 H 1920 M 0,950 H 1920 M 0,960 H 1920 M 0,970 H 1920 M 0,980 H 1920 M 0,990 H 1920 M 0,1000 H 1920 M 0,1010 H 1920 M 0,1020 H 1920 M 0,1030 H 1920 M 0,1040 H 1920 M 0,1050 H 1920 M 0,1060 H 1920 M 0,1070 H 1920 M 0,1080 h 1920"
       style="fill:none;stroke:#000000;stroke-width:0px"
       id="path11802" />
    <path
       d="M 0,0 V 1080 M 10,0 V 1080 M 20,0 V 1080 M 30,0 V 1080 M 40,0 V 1080 M 50,0 V 1080 M 60,0 V 1080 M 70,0 V 1080 M 80,0 V 1080 M 90,0 V 1080 M 100,0 V 1080 M 110,0 V 1080 M 120,0 V 1080 M 130,0 V 1080 M 140,0 V 1080 M 150,0 V 1080 M 160,0 V 1080 M 170,0 V 1080 M 180,0 V 1080 M 190,0 V 1080 M 200,0 V 1080 M 210,0 V 1080 M 220,0 V 1080 M 230,0 V 1080 M 240,0 V 1080 M 250,0 V 1080 M 260,0 V 1080 M 270,0 V 1080 M 280,0 V 1080 M 290,0 V 1080 M 300,0 V 1080 M 310,0 V 1080 M 320,0 V 1080 M 330,0 V 1080 M 340,0 V 1080 M 350,0 V 1080 M 360,0 V 1080 M 370,0 V 1080 M 380,0 V 1080 M 390,0 V 1080 M 400,0 V 1080 M 410,0 V 1080 M 420,0 V 1080 M 430,0 V 1080 M 440,0 V 1080 M 450,0 V 1080 M 460,0 V 1080 M 470,0 V 1080 M 480,0 V 1080 M 490,0 V 1080 M 500,0 V 1080 M 510,0 V 1080 M 520,0 V 1080 M 530,0 V 1080 M 540,0 V 1080 M 550,0 V 1080 M 560,0 V 1080 M 570,0 V 1080 M 580,0 V 1080 M 590,0 V 1080 M 600,0 V 1080 M 610,0 V 1080 M 620,0 V 1080 M 630,0 V 1080 M 640,0 V 1080 M 650,0 V 1080 M 660,0 V 1080 M 670,0 V 1080 M 680,0 V 1080 M 690,0 V 1080 M 700,0 V 1080 M 710,0 V 1080 M 720,0 V 1080 M 730,0 V 1080 M 740,0 V 1080 M 750,0 V 1080 M 760,0 V 1080 M 770,0 V 1080 M 780,0 V 1080 M 790,0 V 1080 M 800,0 V 1080 M 810,0 V 1080 M 820,0 V 1080 M 830,0 V 1080 M 840,0 V 1080 M 850,0 V 1080 M 860,0 V 1080 M 870,0 V 1080 M 880,0 V 1080 M 890,0 V 1080 M 900,0 V 1080 M 910,0 V 1080 M 920,0 V 1080 M 930,0 V 1080 M 940,0 V 1080 M 950,0 V 1080 M 960,0 V 1080 M 970,0 V 1080 M 980,0 V 1080 M 990,0 V 1080 M 1000,0 V 1080 M 1010,0 V 1080 M 1020,0 V 1080 M 1030,0 V 1080 M 1040,0 V 1080 M 1050,0 V 1080 M 1060,0 V 1080 M 1070,0 V 1080 M 1080,0 V 1080 M 1090,0 V 1080 M 1100,0 V 1080 M 1110,0 V 1080 M 1120,0 V 1080 M 1130,0 V 1080 M 1140,0 V 1080 M 1150,0 V 1080 M 1160,0 V 1080 M 1170,0 V 1080 M 1180,0 V 1080 M 1190,0 V 1080 M 1200,0 V 1080 M 1210,0 V 1080 M 1220,0 V 1080 M 1230,0 V 1080 M 1240,0 V 1080 M 1250,0 V 1080 M 1260,0 V 1080 M 1270,0 V 1080 M 1280,0 V 1080 M 1290,0 V 1080 M 1300,0 V 1080 M 1310,0 V 1080 M 1320,0 V 1080 M 1330,0 V 1080 M 1340,0 V 1080 M 1350,0 V 1080 M 1360,0 V 1080 M 1370,0 V 1080 M 1380,0 V 1080 M 1390,0 V 1080 M 1400,0 V 1080 M 1410,0 V 1080 M 1420,0 V 1080 M 1430,0 V 1080 M 1440,0 V 1080 M 1450,0 V 1080 M 1460,0 V 1080 M 1470,0 V 1080 M 1480,0 V 1080 M 1490,0 V 1080 M 1500,0 V 1080 M 1510,0 V 1080 M 1520,0 V 1080 M 1530,0 V 1080 M 1540,0 V 1080 M 1550,0 V 1080 M 1560,0 V 1080 M 1570,0 V 1080 M 1580,0 V 1080 M 1590,0 V 1080 M 1600,0 V 1080 M 1610,0 V 1080 M 1620,0 V 1080 M 1630,0 V 1080 M 1640,0 V 1080 M 1650,0 V 1080 M 1660,0 V 1080 M 1670,0 V 1080 M 1680,0 V 1080 M 1690,0 V 1080 M 1700,0 V 1080 M 1710,0 V 1080 M 1720,0 V 1080 M 1730,0 V 1080 M 1740,0 V 1080 M 1750,0 V 1080 M 1760,0 V 1080 M 1770,0 V 1080 M 1780,0 V 1080 M 1790,0 V 1080 M 1800,0 V 1080 M 1810,0 V 1080 M 1820,0 V 1080 M 1830,0 V 1080 M 1840,0 V 1080 M 1850,0 V 1080 M 1860,0 V 1080 M 1870,0 V 1080 M 1880,0 V 1080 M 1890,0 V 1080 M 1900,0 V 1080 M 1910,0 V 1080 M 1920,0 V 1080 M 0,0 H 1920 M 0,9.9999999 H 1920 M 0,20 H 1920 M 0,30 H 1920 M 0,40 H 1920 M 0,50 H 1920 M 0,60 H 1920 M 0,70 H 1920 M 0,80 H 1920 M 0,90 H 1920 M 0,99.999998 H 1920 M 0,110 H 1920 M 0,120 H 1920 M 0,130 H 1920 M 0,140 H 1920 M 0,150 H 1920 M 0,160 H 1920 M 0,170 H 1920 M 0,180 H 1920 M 0,190 H 1920 M 0,200 H 1920 M 0,210 H 1920 M 0,220 H 1920 M 0,230 H 1920 M 0,240 H 1920 M 0,250 H 1920 M 0,260 H 1920 M 0,270 H 1920 M 0,280 H 1920 M 0,290 H 1920 M 0,300 H 1920 M 0,310 H 1920 M 0,320 H 1920 M 0,330 H 1920 M 0,340 H 1920 M 0,350 H 1920 M 0,360 H 1920 M 0,370 H 1920 M 0,380 H 1920 M 0,390 H 1920 M 0,400 H 1920 M 0,410 H 1920 M 0,420 H 1920 M 0,430 H 1920 M 0,440 H 1920 M 0,450 H 1920 M 0,460 H 1920 M 0,470 H 1920 M 0,480 H 1920 M 0,490 H 1920 M 0,500 H 1920 M 0,510 H 1920 M 0,520 H 1920 M 0,530 H 1920 M 0,540 H 1920 M 0,550 H 1920 M 0,560 H 1920 M 0,570 H 1920 M 0,580 H 1920 M 0,590 H 1920 M 0,600 H 1920 M 0,610 H 1920 M 0,620 H 1920 M 0,630 H 1920 M 0,640 H 1920 M 0,650 H 1920 M 0,660 H 1920 M 0,670 H 1920 M 0,680 H 1920 M 0,690 H 1920 M 0,700 H 1920 M 0,710 H 1920 M 0,720 H 1920 M 0,730 H 1920 M 0,740 H 1920 M 0,750 H 1920 M 0,760 H 1920 M 0,770 H 1920 M 0,780 H 1920 M 0,790 H 1920 M 0,800 H 1920 M 0,810 H 1920 M 0,820 H 1920 M 0,830 H 1920 M 0,840 H 1920 M 0,850 H 1920 M 0,860 H 1920 M 0,870 H 1920 M 0,880 H 1920 M 0,890 H 1920 M 0,900 H 1920 M 0,910 H 1920 M 0,920 H 1920 M 0,930 H 1920 M 0,940 H 1920 M 0,950 H 1920 M 0,960 H 1920 M 0,970 H 1920 M 0,980 H 1920 M 0,990 H 1920 M 0,1000 H 1920 M 0,1010 H 1920 M 0,1020 H 1920 M 0,1030 H 1920 M 0,1040 H 1920 M 0,1050 H 1920 M 0,1060 H 1920 M 0,1070 H 1920 M 0,1080 h 1920"
       style="fill:#292929;stroke:#2f2f2f;stroke-width:0.7;stroke-miterlimit:4;stroke-dasharray:none;stroke-opacity:0.73139167;fill-opacity:0.99984533"
       id="path11834"
       inkscape:transform-center-x="143.4948"
       inkscape:transform-center-y="-81.744246" />
  </g>
  <g
     inkscape:groupmode="layer"
     id="layer1"
     inkscape:label="Layer 3">
    <rect
       style="opacity:1;mix-blend-mode:normal;fill:url(#linearGradient6694);fill-opacity:1;fill-rule:evenodd;stroke:#232323;stroke-width:0;stroke-linecap:butt;stroke-linejoin:round;stroke-opacity:1;filter:url(#filter3853)"
       id="rect1357"
       width="1679.3136"
       height="349.60989"
       x="-665.22729"
       y="845.1897"
       ry="2.0453773"
       transform="rotate(-24.85773)"
       clip-path="url(#clipPath5427)"
       inkscape:transform-center-x="47.579735"
       inkscape:transform-center-y="11.63766" />
  </g>
  <g
     inkscape:groupmode="layer"
     id="layer2"
     inkscape:label="Layer 2"
     sodipodi:insensitive="true">
    <g
       id="g1317"
       transform="matrix(0.69643352,0,0,0.69643352,1167.6829,322.52968)">
      <g
         id="g996">
        <circle
           style="font-variation-settings:normal;opacity:1;fill:url(#linearGradient13274);fill-opacity:1;fill-rule:evenodd;stroke:#000000;stroke-width:10.1054;stroke-linecap:butt;stroke-linejoin:miter;stroke-miterlimit:4;stroke-dasharray:none;stroke-dashoffset:0;stroke-opacity:1;stop-color:#000000;stop-opacity:1"
           id="path1315"
           cx="256.4968"
           cy="256.04129"
           r="250.94731" />
      </g>
      <g
         id="g999">
        <path
           style="font-variation-settings:'wght' 100;mix-blend-mode:normal;fill:url(#linearGradient14778);fill-opacity:1;stroke:#000000;stroke-width:0;stroke-linejoin:round;stroke-miterlimit:4;stroke-dasharray:none;stroke-dashoffset:90.7465;stroke-opacity:1;paint-order:stroke fill markers;filter:url(#filter3352)"
           d="m 255.6873,480.70327 c 23.22567,3.32512 29.97229,-26.01669 37.83586,-43.57134 11.53947,-25.76073 6.16136,-54.56482 10.74519,-83.99709 3.91119,-22.55649 31.94112,-12.92117 47.46537,-21.94026 21.99655,-7.84522 35.71645,-31.59105 43.3671,-52.10006 18.98906,-50.90377 9.99112,-110.45406 -9.16361,-162.73301 -6.25706,-17.077371 -27.84686,-24.005902 -43.37538,-14.79914 -24.10175,12.18557 -21.7996,40.81108 -22.25406,62.54772 -0.74996,35.87034 11.11788,75.10997 -0.50738,107.74393 -5.89568,16.55012 -23.96937,0.21509 -25.33145,-14.176 -5.08075,-53.68065 4.35973,-120.25766 -8.70724,-173.215411 -4.31423,-19.832324 -20.77983,-40.543026 -43.22615,-42.152333 -21.7002,-1.555814 -27.37406,24.504804 -31.66235,40.300046 -12.45239,62.118308 -7.60556,125.772708 -3.39272,188.417638 2.16632,29.27188 -30.40441,14.57663 -33.53507,-8.70364 -5.52,-41.04791 -2.84746,-83.77487 -6.93331,-125.31878 -2.5929,-26.36395 -44.14011,-6.75788 -51.49158,9.0893 -27.767467,59.85683 -21.540796,148.95226 20.64038,190.26608 18.82381,17.20334 46.44758,20.38492 69.35361,31.67686 20.95924,10.33224 13.52238,39.00693 12.35608,58.37713 -0.80577,22.58843 12.38285,50.6471 37.81671,54.28836 z"
           id="path888"
           sodipodi:nodetypes="sassssssssssssssscscs" />
      </g>
      <circle
         style="font-variation-settings:normal;vector-effect:none;fill:#9be65f;fill-opacity:0.733914;fill-rule:evenodd;stroke-width:0.679223;stroke-linecap:butt;stroke-linejoin:miter;stroke-miterlimit:4;stroke-dasharray:none;stroke-dashoffset:0;stroke-opacity:1;-inkscape-stroke:none;stop-color:#000000"
         id="path1001-5-7"
         cx="256.3262"
         cy="68.500969"
         r="8" />
      <circle
         style="font-variation-settings:normal;vector-effect:none;fill:#9be65f;fill-opacity:0.733914;fill-rule:evenodd;stroke-width:0.679223;stroke-linecap:butt;stroke-linejoin:miter;stroke-miterlimit:4;stroke-dasharray:none;stroke-dashoffset:0;stroke-opacity:1;-inkscape-stroke:none;stop-color:#000000"
         id="path1001-5-7-7"
         cx="236.43883"
         cy="103.85631"
         r="8" />
      <circle
         style="font-variation-settings:normal;vector-effect:none;fill:#9be65f;fill-opacity:0.733914;fill-rule:evenodd;stroke-width:0.679223;stroke-linecap:butt;stroke-linejoin:miter;stroke-miterlimit:4;stroke-dasharray:none;stroke-dashoffset:0;stroke-opacity:1;-inkscape-stroke:none;stop-color:#000000"
         id="path1001-5-7-2"
         cx="265.16504"
         cy="145.84077"
         r="8" />
      <circle
         style="font-variation-settings:normal;vector-effect:none;fill:#9be65f;fill-opacity:0.733914;fill-rule:evenodd;stroke-width:0.679223;stroke-linecap:butt;stroke-linejoin:miter;stroke-miterlimit:4;stroke-dasharray:none;stroke-dashoffset:0;stroke-opacity:1;-inkscape-stroke:none;stop-color:#000000"
         id="path1001-5-7-8"
         cx="227.59999"
         cy="186.72038"
         r="8" />
      <circle
         style="font-variation-settings:normal;vector-effect:none;fill:#9be65f;fill-opacity:0.733914;fill-rule:evenodd;stroke-width:0.679223;stroke-linecap:butt;stroke-linejoin:miter;stroke-miterlimit:4;stroke-dasharray:none;stroke-dashoffset:0;stroke-opacity:1;-inkscape-stroke:none;stop-color:#000000"
         id="path1001-5-7-0"
         cx="274.00388"
         cy="215.44659"
         r="8" />
      <circle
         style="font-variation-settings:normal;vector-effect:none;fill:#9be65f;fill-opacity:0.733914;fill-rule:evenodd;stroke-width:0.679223;stroke-linecap:butt;stroke-linejoin:miter;stroke-miterlimit:4;stroke-dasharray:none;stroke-dashoffset:0;stroke-opacity:1;-inkscape-stroke:none;stop-color:#000000"
         id="path1001-5-7-5"
         cx="264.06018"
         cy="272.89902"
         r="8" />
      <circle
         style="font-variation-settings:normal;vector-effect:none;fill:#9be65f;fill-opacity:0.733914;fill-rule:evenodd;stroke-width:0.679223;stroke-linecap:butt;stroke-linejoin:miter;stroke-miterlimit:4;stroke-dasharray:none;stroke-dashoffset:0;stroke-opacity:1;-inkscape-stroke:none;stop-color:#000000"
         id="path1001-5-7-9"
         cx="376.75534"
         cy="137.00194"
         r="8" />
      <circle
         style="font-variation-settings:normal;vector-effect:none;fill:#9be65f;fill-opacity:0.733914;fill-rule:evenodd;stroke-width:0.679223;stroke-linecap:butt;stroke-linejoin:miter;stroke-miterlimit:4;stroke-dasharray:none;stroke-dashoffset:0;stroke-opacity:1;-inkscape-stroke:none;stop-color:#000000"
         id="path1001-5-7-1"
         cx="341.39999"
         cy="167.93787"
         r="8" />
      <circle
         style="font-variation-settings:normal;vector-effect:none;fill:#9be65f;fill-opacity:0.733914;fill-rule:evenodd;stroke-width:0.679223;stroke-linecap:butt;stroke-linejoin:miter;stroke-miterlimit:4;stroke-dasharray:none;stroke-dashoffset:0;stroke-opacity:1;-inkscape-stroke:none;stop-color:#000000"
         id="path1001-5-7-13"
         cx="378.96506"
         cy="196.66408"
         r="8" />
      <circle
         style="font-variation-settings:normal;vector-effect:none;fill:#9be65f;fill-opacity:0.733914;fill-rule:evenodd;stroke-width:0.679223;stroke-linecap:butt;stroke-linejoin:miter;stroke-miterlimit:4;stroke-dasharray:none;stroke-dashoffset:0;stroke-opacity:1;-inkscape-stroke:none;stop-color:#000000"
         id="path1001-5-7-27"
         cx="352.44855"
         cy="238.64854"
         r="8" />
      <circle
         style="font-variation-settings:normal;vector-effect:none;fill:#9be65f;fill-opacity:0.733914;fill-rule:evenodd;stroke-width:0.679223;stroke-linecap:butt;stroke-linejoin:miter;stroke-miterlimit:4;stroke-dasharray:none;stroke-dashoffset:0;stroke-opacity:1;-inkscape-stroke:none;stop-color:#000000"
         id="path1001-5-7-70"
         cx="361.28738"
         cy="290.57669"
         r="8" />
      <circle
         style="font-variation-settings:normal;vector-effect:none;fill:#9be65f;fill-opacity:0.733914;fill-rule:evenodd;stroke-width:0.679223;stroke-linecap:butt;stroke-linejoin:miter;stroke-miterlimit:4;stroke-dasharray:none;stroke-dashoffset:0;stroke-opacity:1;-inkscape-stroke:none;stop-color:#000000"
         id="path1001-5-7-25"
         cx="306.04465"
         cy="303.83496"
         r="8" />
      <circle
         style="font-variation-settings:normal;vector-effect:none;fill:url(#linearGradient18664);fill-opacity:1;fill-rule:evenodd;stroke-width:0.679223;stroke-linecap:butt;stroke-linejoin:miter;stroke-miterlimit:4;stroke-dasharray:none;stroke-dashoffset:0;stroke-opacity:1;-inkscape-stroke:none;stop-color:#000000"
         id="path1001-5-7-78"
         cx="222.07573"
         cy="298.31067"
         r="8" />
      <circle
         style="font-variation-settings:normal;vector-effect:none;fill:#9be65f;fill-opacity:0.733914;fill-rule:evenodd;stroke-width:0.679223;stroke-linecap:butt;stroke-linejoin:miter;stroke-miterlimit:4;stroke-dasharray:none;stroke-dashoffset:0;stroke-opacity:1;-inkscape-stroke:none;stop-color:#000000"
         id="path1001-5-7-6"
         cx="272.89902"
         cy="339.19028"
         r="8" />
      <circle
         style="font-variation-settings:normal;vector-effect:none;fill:#9be65f;fill-opacity:0.733914;fill-rule:evenodd;stroke-width:0.679223;stroke-linecap:butt;stroke-linejoin:miter;stroke-miterlimit:4;stroke-dasharray:none;stroke-dashoffset:0;stroke-opacity:1;-inkscape-stroke:none;stop-color:#000000"
         id="path1001-5-7-3"
         cx="279.52814"
         cy="388.90872"
         r="8" />
      <circle
         style="font-variation-settings:normal;vector-effect:none;fill:url(#linearGradient18464);fill-opacity:1;fill-rule:evenodd;stroke-width:0.679223;stroke-linecap:butt;stroke-linejoin:miter;stroke-miterlimit:4;stroke-dasharray:none;stroke-dashoffset:0;stroke-opacity:1;-inkscape-stroke:none;stop-color:#000000"
         id="path1001-5-7-74"
         cx="241.9631"
         cy="430.89319"
         r="8" />
      <circle
         style="font-variation-settings:normal;vector-effect:none;fill:url(#linearGradient18264);fill-opacity:1;fill-rule:evenodd;stroke-width:0.679223;stroke-linecap:butt;stroke-linejoin:miter;stroke-miterlimit:4;stroke-dasharray:none;stroke-dashoffset:0;stroke-opacity:1;-inkscape-stroke:none;stop-color:#000000"
         id="path1001-5-7-93"
         cx="225.39029"
         cy="348.02911"
         r="8" />
      <circle
         style="font-variation-settings:normal;vector-effect:none;fill:url(#linearGradient17808);fill-opacity:1;fill-rule:evenodd;stroke-width:0.679223;stroke-linecap:butt;stroke-linejoin:miter;stroke-miterlimit:4;stroke-dasharray:none;stroke-dashoffset:0;stroke-opacity:1;-inkscape-stroke:none;stop-color:#000000"
         id="path1001-5-7-14"
         cx="173.46213"
         cy="321.5126"
         r="8" />
      <circle
         style="font-variation-settings:normal;vector-effect:none;fill:url(#linearGradient16456);fill-opacity:1;fill-rule:evenodd;stroke-width:0.679223;stroke-linecap:butt;stroke-linejoin:miter;stroke-miterlimit:4;stroke-dasharray:none;stroke-dashoffset:0;stroke-opacity:1;-inkscape-stroke:none;stop-color:#000000"
         id="path1001-5-7-10"
         cx="138.1068"
         cy="282.84271"
         r="8" />
      <circle
         style="font-variation-settings:normal;vector-effect:none;fill:url(#linearGradient16192);fill-opacity:1;fill-rule:evenodd;stroke-width:0.679223;stroke-linecap:butt;stroke-linejoin:miter;stroke-miterlimit:4;stroke-dasharray:none;stroke-dashoffset:0;stroke-opacity:1;-inkscape-stroke:none;stop-color:#000000"
         id="path1001-5-7-12"
         cx="151.36504"
         cy="232.01942"
         r="8" />
      <circle
         style="font-variation-settings:normal;vector-effect:none;fill:url(#linearGradient14978);fill-opacity:1;fill-rule:evenodd;stroke-width:0.679223;stroke-linecap:butt;stroke-linejoin:miter;stroke-miterlimit:4;stroke-dasharray:none;stroke-dashoffset:0;stroke-opacity:1;-inkscape-stroke:none;stop-color:#000000"
         id="path1001-5-7-30"
         cx="117.11456"
         cy="197.76894"
         r="8" />
      <circle
         style="font-variation-settings:normal;vector-effect:none;fill:url(#linearGradient16120);fill-opacity:1;fill-rule:evenodd;stroke-width:0.679223;stroke-linecap:butt;stroke-linejoin:miter;stroke-miterlimit:4;stroke-dasharray:none;stroke-dashoffset:0;stroke-opacity:1;-inkscape-stroke:none;stop-color:#000000"
         id="path1001-5-7-05"
         cx="150.26019"
         cy="165.72815"
         r="8" />
    </g>
  </g>
</svg>
