<?xml version="1.0" encoding="UTF-8" standalone="no"?>
<!-- Created with Inkscape (http://www.inkscape.org/) -->

<svg
   width="1920"
   height="1080"
   viewBox="0 0 1920 1080"
   version="1.1"
   id="svg5"
   inkscape:version="1.2.2 (b0a8486541, 2022-12-01)"
   sodipodi:docname="wallpaper2.svg"
   xml:space="preserve"
   inkscape:export-filename="wallpaper2.png"
   inkscape:export-xdpi="96"
   inkscape:export-ydpi="96"
   xmlns:inkscape="http://www.inkscape.org/namespaces/inkscape"
   xmlns:sodipodi="http://sodipodi.sourceforge.net/DTD/sodipodi-0.dtd"
   xmlns="http://www.w3.org/2000/svg"
   xmlns:svg="http://www.w3.org/2000/svg"><sodipodi:namedview
     id="namedview7"
     pagecolor="#505050"
     bordercolor="#ffffff"
     borderopacity="1"
     inkscape:pageshadow="0"
     inkscape:pageopacity="0"
     inkscape:pagecheckerboard="1"
     inkscape:document-units="px"
     showgrid="false"
     inkscape:zoom="0.32"
     inkscape:cx="968.75"
     inkscape:cy="478.125"
     inkscape:window-width="1366"
     inkscape:window-height="709"
     inkscape:window-x="0"
     inkscape:window-y="0"
     inkscape:window-maximized="1"
     inkscape:current-layer="layer2"
     inkscape:showpageshadow="0"
     inkscape:deskcolor="#505050" /><defs
     id="defs2"><filter
       style="color-interpolation-filters:sRGB"
       inkscape:label="Opacity"
       id="filter1718"
       x="-0.36049539"
       y="-0.021985538"
       width="1.8702025"
       height="1.0530711"
       inkscape:menu-tooltip="In and out glow with a possible offset and colorizable flood"
       inkscape:menu="Shadows and Glows"><feFlood
         flood-opacity="1"
         flood-color="rgb(47,103,41)"
         result="flood"
         id="feFlood1712" /><feComposite
         in="flood"
         in2="SourceGraphic"
         operator="in"
         result="composite"
         id="feComposite1714" /><feGaussianBlur
         stdDeviation="0.01"
         id="feGaussianBlur1716"
         result="fbSourceGraphic" /><feColorMatrix
         result="fbSourceGraphicAlpha"
         in="fbSourceGraphic"
         values="0 0 0 -1 0 0 0 0 -1 0 0 0 0 -1 0 0 0 0 1 0"
         id="feColorMatrix1738" /><feFlood
         id="feFlood1740"
         flood-opacity="0.529412"
         flood-color="rgb(47,103,41)"
         result="flood"
         in="fbSourceGraphic" /><feComposite
         in2="fbSourceGraphic"
         id="feComposite1742"
         in="flood"
         operator="in"
         result="composite" /><feGaussianBlur
         id="feGaussianBlur1744"
         stdDeviation="0.01"
         result="fbSourceGraphic" /><feColorMatrix
         result="fbSourceGraphicAlpha"
         in="fbSourceGraphic"
         values="0 0 0 -1 0 0 0 0 -1 0 0 0 0 -1 0 0 0 0 1 0"
         id="feColorMatrix1816" /><feOffset
         id="feOffset1818"
         dy="3"
         dx="3"
         in="fbSourceGraphic" /><feGaussianBlur
         id="feGaussianBlur1820"
         stdDeviation="3"
         result="blur" /><feFlood
         id="feFlood1822"
         flood-color="rgb(0,0,0)"
         flood-opacity="1"
         result="flood" /><feComposite
         in2="fbSourceGraphic"
         id="feComposite1824"
         in="flood"
         operator="in"
         result="composite" /><feBlend
         in2="composite"
         id="feBlend1826"
         in="blur"
         mode="normal"
         result="fbSourceGraphic" /><feColorMatrix
         result="fbSourceGraphicAlpha"
         in="fbSourceGraphic"
         values="0 0 0 -1 0 0 0 0 -1 0 0 0 0 -1 0 0 0 0 1 0"
         id="feColorMatrix1846" /><feColorMatrix
         id="feColorMatrix1848"
         values="1 0 0 0 0 0 1 0 0 0 0 0 1 0 0 0 0 0 8.9 -1 "
         result="colormatrix"
         in="fbSourceGraphic" /><feComposite
         in2="colormatrix"
         id="feComposite1850"
         operator="arithmetic"
         k2="1"
         result="fbSourceGraphic"
         k1="0"
         k3="0"
         k4="0" /><feColorMatrix
         result="fbSourceGraphicAlpha"
         in="fbSourceGraphic"
         values="0 0 0 -1 0 0 0 0 -1 0 0 0 0 -1 0 0 0 0 1 0"
         id="feColorMatrix1870" /><feColorMatrix
         id="feColorMatrix1872"
         values="1 0 0 0 0 0 1 0 0 0 0 0 1 0 0 0 0 0 5 -1 "
         result="colormatrix"
         in="fbSourceGraphic" /><feComposite
         in2="colormatrix"
         id="feComposite1874"
         operator="arithmetic"
         k2="1"
         result="fbSourceGraphic"
         k1="0"
         k3="0"
         k4="0" /><feColorMatrix
         result="fbSourceGraphicAlpha"
         in="fbSourceGraphic"
         values="0 0 0 -1 0 0 0 0 -1 0 0 0 0 -1 0 0 0 0 1 0"
         id="feColorMatrix1894" /><feColorMatrix
         id="feColorMatrix1896"
         values="1 0 0 0 0 0 1 0 0 0 0 0 1 0 0 0 0 0 5 -1.9 "
         result="colormatrix"
         in="fbSourceGraphic" /><feComposite
         in2="colormatrix"
         id="feComposite1898"
         operator="arithmetic"
         k2="1"
         result="composite"
         k1="0"
         k3="0"
         k4="0" /></filter><filter
       style="color-interpolation-filters:sRGB"
       inkscape:label="Drop Shadow"
       id="filter3352"
       x="-0.2733126"
       y="-0.19123242"
       width="1.6541293"
       height="1.4554044"><feFlood
         flood-opacity="0.921569"
         flood-color="rgb(7,74,0)"
         result="flood"
         id="feFlood3342" /><feComposite
         in="flood"
         in2="SourceGraphic"
         operator="out"
         result="composite1"
         id="feComposite3344" /><feGaussianBlur
         in="composite1"
         stdDeviation="6.9572562"
         result="blur"
         id="feGaussianBlur3346" /><feOffset
         dx="6"
         dy="6"
         result="offset"
         id="feOffset3348" /><feComposite
         in="offset"
         in2="SourceGraphic"
         operator="atop"
         result="fbSourceGraphic"
         id="feComposite3350" /><feColorMatrix
         result="fbSourceGraphicAlpha"
         in="fbSourceGraphic"
         values="0 0 0 -1 0 0 0 0 -1 0 0 0 0 -1 0 0 0 0 1 0"
         id="feColorMatrix3372" /><feFlood
         id="feFlood3374"
         flood-opacity="0.921569"
         flood-color="rgb(7,74,0)"
         result="flood"
         in="fbSourceGraphic" /><feComposite
         in2="fbSourceGraphic"
         id="feComposite3376"
         in="flood"
         operator="out"
         result="composite1" /><feGaussianBlur
         id="feGaussianBlur3378"
         in="composite1"
         stdDeviation="7"
         result="blur" /><feOffset
         id="feOffset3380"
         dx="6"
         dy="6"
         result="offset" /><feComposite
         in2="fbSourceGraphic"
         id="feComposite3382"
         in="offset"
         operator="atop"
         result="fbSourceGraphic" /><feColorMatrix
         result="fbSourceGraphicAlpha"
         in="fbSourceGraphic"
         values="0 0 0 -1 0 0 0 0 -1 0 0 0 0 -1 0 0 0 0 1 0"
         id="feColorMatrix3402" /><feFlood
         id="feFlood3404"
         flood-opacity="0.921569"
         flood-color="rgb(7,74,0)"
         result="flood"
         in="fbSourceGraphic" /><feComposite
         in2="fbSourceGraphic"
         id="feComposite3406"
         in="flood"
         operator="out"
         result="composite1" /><feGaussianBlur
         id="feGaussianBlur3408"
         in="composite1"
         stdDeviation="7"
         result="blur" /><feOffset
         id="feOffset3410"
         dx="7"
         dy="6"
         result="offset" /><feComposite
         in2="fbSourceGraphic"
         id="feComposite3412"
         in="offset"
         operator="atop"
         result="fbSourceGraphic" /><feColorMatrix
         result="fbSourceGraphicAlpha"
         in="fbSourceGraphic"
         values="0 0 0 -1 0 0 0 0 -1 0 0 0 0 -1 0 0 0 0 1 0"
         id="feColorMatrix3432" /><feFlood
         id="feFlood3434"
         flood-opacity="0.921569"
         flood-color="rgb(7,74,0)"
         result="flood"
         in="fbSourceGraphic" /><feComposite
         in2="fbSourceGraphic"
         id="feComposite3436"
         in="flood"
         operator="out"
         result="composite1" /><feGaussianBlur
         id="feGaussianBlur3438"
         in="composite1"
         stdDeviation="7"
         result="blur" /><feOffset
         id="feOffset3440"
         dx="7"
         dy="7"
         result="offset" /><feComposite
         in2="fbSourceGraphic"
         id="feComposite3442"
         in="offset"
         operator="atop"
         result="fbSourceGraphic" /><feColorMatrix
         result="fbSourceGraphicAlpha"
         in="fbSourceGraphic"
         values="0 0 0 -1 0 0 0 0 -1 0 0 0 0 -1 0 0 0 0 1 0"
         id="feColorMatrix3462" /><feFlood
         id="feFlood3464"
         flood-opacity="0.866667"
         flood-color="rgb(23,103,15)"
         result="flood"
         in="fbSourceGraphic" /><feComposite
         in2="fbSourceGraphic"
         id="feComposite3466"
         in="flood"
         operator="out"
         result="composite1" /><feGaussianBlur
         id="feGaussianBlur3468"
         in="composite1"
         stdDeviation="7"
         result="blur" /><feOffset
         id="feOffset3470"
         dx="7"
         dy="7"
         result="offset" /><feComposite
         in2="fbSourceGraphic"
         id="feComposite3472"
         in="offset"
         operator="atop"
         result="composite2" /></filter><filter
       inkscape:menu="Fill and Transparency"
       inkscape:menu-tooltip="Create a semi transparent posterized image"
       style="color-interpolation-filters:sRGB"
       inkscape:label="Posterized Light Eraser"
       id="filter3853"
       x="-1.4291851e-05"
       y="-6.8649371e-05"
       width="1.0000286"
       height="1.0001373"><feGaussianBlur
         stdDeviation="0.01"
         result="result1"
         in="SourceGraphic"
         id="feGaussianBlur3835" /><feColorMatrix
         values="1 0 0 0 0 0 1 0 0 0 0 0 1 0 0 0 0 0 50 0 "
         result="fbSourceGraphic"
         in="result1"
         id="feColorMatrix3837" /><feColorMatrix
         type="saturate"
         result="result8"
         values="1"
         id="feColorMatrix3839" /><feComponentTransfer
         in="result8"
         result="result7"
         id="feComponentTransfer3847"><feFuncR
           tableValues="0 0.2 0.4 0.6 0.8 1 1"
           type="discrete"
           id="feFuncR3841" /><feFuncG
           tableValues="0 0.2 0.4 0.6 0.8 1 1"
           type="discrete"
           id="feFuncG3843" /><feFuncB
           tableValues="0 0.2 0.4 0.6 0.8 1 1"
           type="discrete"
           id="feFuncB3845" /></feComponentTransfer><feColorMatrix
         values="1 0 0 0 0 0 1 0 0 0 0 0 1 0 0 -0.21 -0.72 -0.07 1 0 "
         result="result2"
         in="result7"
         id="feColorMatrix3849" /><feComposite
         in2="SourceGraphic"
         operator="in"
         result="result9"
         in="result2"
         id="feComposite3851" /></filter><clipPath
       clipPathUnits="userSpaceOnUse"
       id="clipPath5627"><path
         id="path5629"
         style="fill:#ff0000;fill-opacity:1;fill-rule:nonzero;stroke:none"
         d="m -368.49496,204.62067 -282.90503,610.64595 c 10.60614,-3.84649 20.74276,-9.01749 31.96802,-11.02664 3.37729,-0.60447 6.79796,-0.92748 10.19746,-1.39103 14.16966,-0.68377 27.94559,-5.30112 42.23978,-4.53076 2.11795,0.11424 4.20634,0.55092 6.30938,0.82649 1.64322,0.40022 3.3409,1.17994 5.06146,1.87996 -1.59975,-0.232 -2.67847,-9.8e-4 -1.08542,1.69704 4.76804,5.08234 11.11162,8.4112 16.66817,12.61707 -0.27067,1.16831 -0.78175,2.25658 -1.09022,3.41255 3.90355,2.1538 6.16326,7.46008 4.2231,14.73835 0.0584,-0.004 0.11616,-0.0107 0.17433,-0.0139 5.05675,-10.94274 10.12237,-21.88155 15.1685,-32.82921 -1.42941,-0.98067 -0.0654,-2.74185 2.19655,-4.7555 0.0463,-0.10052 0.0933,-0.20075 0.13958,-0.30127 4.48394,-9.72799 4.02057,-24.10023 13.44813,-29.18553 3.37507,-1.82053 7.44228,-0.3871 11.04127,2.32129 2.10619,0.46389 4.03157,1.21163 5.59115,2.26526 0.028,0.004 0.038,6.6e-4 0.0665,0.005 0.91325,-1.96408 1.81561,-3.93322 2.72975,-5.89687 2.7992,2.4512 5.59839,4.90275 8.39758,7.35395 0.11855,-0.23923 0.23799,-0.47823 0.35613,-0.71755 1.21218,-2.45636 2.40504,-4.92085 3.58971,-7.39056 0.4209,-0.87806 0.25438,-2.70181 1.22644,-2.65202 7.23531,0.37212 14.26397,2.54291 21.39637,3.81451 0.2631,2.31853 1.22373,4.66228 0.79017,6.95503 -2.07497,10.97266 -4.67705,21.8369 -7.34395,32.68513 1.87745,-4.09402 3.75697,-8.18671 5.65507,-12.27141 0.51143,-1.09701 0.87598,-2.27489 1.53337,-3.2912 1.29065,-1.99488 2.71495,-3.91287 4.28242,-5.69845 0.8011,-0.91259 5.16877,-4.54426 6.29558,-5.4998 0.64944,-0.55072 1.23476,-2.12984 1.94299,-1.65706 4.50945,3.01005 8.50597,6.70437 12.53637,10.35198 5.08231,-6.28982 10.87147,-7.95231 15.07175,-6.40629 3.51555,1.29399 5.84811,4.80944 5.75947,9.55429 4.56201,-7.32118 10.69694,-9.47707 15.13146,-7.42262 l 0.006,-0.0124 c 5.01247,2.32222 7.72633,9.60668 3.12856,19.53084 l -9.27762,20.0256 c 3.20492,3.30463 4.34749,9.54927 0.79599,17.58701 -0.90864,2.05643 -1.81185,4.11367 -2.72609,6.16764 -3.06563,6.88743 -3.38781,9.31901 -11.35969,12.17929 -0.11538,0.22786 -0.20397,0.46802 -0.3272,0.69221 -0.48263,0.87883 -1.41253,1.3818 -2.27883,1.94059 0.40855,2.37905 -4.33523,10.97237 -5.42858,13.18571 -1.85794,3.80555 -3.56738,7.68039 -5.3435,11.52459 -1.54648,3.3333 -3.0995,6.66328 -4.64097,9.99889 -0.92886,2.00851 -1.86033,4.01578 -2.79067,6.02363 -1.65301,3.56812 -3.30671,7.13766 -4.95983,10.70571 -1.29992,2.8058 -2.59917,5.61026 -3.89907,8.41607 -1.51399,3.26793 -3.02794,6.53577 -4.54193,9.80369 l -2.9754,6.42235 -3.97049,8.57023 -6.09123,13.14784 c -1.85979,2.72056 -2.6791,6.19328 -4.23238,9.13552 1.21823,3.45719 1.02587,8.18097 -1.47112,13.76418 2.03037,0.8657 4.10792,1.62442 6.11086,2.55126 4.50389,2.0866 8.95404,4.2897 13.41746,6.46159 4.47558,1.74858 7.98434,3.86833 11.80096,6.96324 0.84594,0.68596 1.61239,1.46326 2.38658,2.23148 0.60714,-0.035 1.45581,0.80509 2.13726,1.05519 4.0613,1.4848 7.9935,3.1673 11.86477,5.0878 5.82543,2.9235 11.80174,5.5481 17.72261,8.2735 3.58134,1.6702 7.16561,3.3308 10.75114,4.9919 3.88332,1.7983 7.76721,3.5986 11.65029,5.3974 6.50817,3.015 13.01599,6.0302 19.52406,9.0453 3.3089,1.5332 6.617,3.0656 9.92596,4.5986 l 13.97362,6.4738 41.13044,19.0553 30.9936,14.3589 16.78783,7.7776 10.2166,4.7332 c 2.50255,0.8461 4.93414,1.8861 7.44225,3.2133 l 6.64743,3.0797 14.50172,6.7185 19.89623,9.2177 18.91799,8.7644 9.73456,4.5099 16.45466,7.6233 26.74569,12.391 19.7066,9.1298 16.475932,7.6331 c 5.299911,2.4554 10.600058,4.9109 15.899961,7.3663 2.6981,1.2491 5.395828,2.4998 8.093528,3.7496 3.994365,1.8505 7.983147,3.7095 11.985891,5.5419 5.470076,2.521 10.934104,5.0546 16.368343,7.6516 -0.132359,4e-4 -0.203476,0.01 -0.397096,-0.012 l 1.229892,0.5698 c 0.407773,0.055 0.81226,0.1132 1.207208,0.2191 0.999792,0.2683 6.784045,3.0206 6.885617,3.0674 5.0907455,2.4632 7.1486112,3.6061 9.7724834,4.9902 l 1.4496438,0.6717 22.2904308,10.3268 9.925967,4.5986 c 19.848317,9.1956 10.559268,29.2459 -9.289133,20.0505 l -9.925967,-4.5986 -17.5091,-8.1118 c -0.7583506,-0.3204 -1.4280664,-0.4037 -2.2178341,-0.8208 -0.1452376,-0.078 -0.1507809,-0.07 -0.2891381,-0.1472 -3.4258478,2.9347 -9.4706808,3.8591 -17.2147028,0.2711 -2.630427,-1.2188 -5.261086,-2.4374 -7.891506,-3.656 -4.593027,-2.1288 -9.186852,-4.2564 -13.780445,-6.3843 -1.091379,2.6809 -2.275013,5.7299 -3.496613,10.3955 -16.889498,-0.075 -33.793028,-1.2326 -50.576172,-3.1736 -0.3979,0.7456 -0.41029,0.9736 -0.85679,1.8029 4.956361,2.3337 9.909068,4.6734 14.869056,6.9989 1.129583,0.5233 3.652153,0.3698 3.379998,1.588 3.03e-4,2e-4 -0.0011,3e-4 -0.0067,0.014 0.339322,0.1581 0.673433,0.3274 1.01311,0.4848 -1.439373,2.6648 -2.69912,5.4442 -4.01058,8.1921 -1.715739,3.965 -3.691375,7.8488 -5.308636,11.8443 -0.402056,-0.1869 -0.796951,-0.3847 -1.199199,-0.571 -0.731739,0.9301 -2.16033,-1.0174 -3.243621,-1.5292 -0.08726,-0.041 -0.176623,-0.082 -0.264058,-0.1224 -11.703125,-5.4406 -23.414455,-10.8608 -35.129855,-16.2752 -2.04742,-0.9188 -4.06845,-1.8959 -6.12593,-2.7929 -5.15777,-2.0654 -10.43306,-3.9866 -15.28236,-6.7293 -3.88184,-2.1956 -2.39189,-1.4019 -3.20897,-1.8828 -6.2164,-2.8799 -12.43245,-5.7595 -18.64862,-8.6397 -2.89111,-1.3391 -5.78209,-2.6785 -8.67302,-4.0181 -3.09305,1.5998 -6.45939,2.9208 -9.3248,4.753 -1.33747,-0.764 -1.65399,-0.8771 -2.53683,-1.3496 -0.14327,0.044 -0.42369,0.1597 -0.54907,0.1955 -0.3359,0.095 -1.26733,-0.4287 -2.12772,-0.9968 -2.98412,0.9692 -5.97104,1.9388 -9.04093,2.5188 -15.86142,2.9965 -27.18111,-2.8787 -43.6911,-6.9259 -2.23883,0.9477 -5.39348,1.9824 -9.89038,3.1908 0.0685,0.1309 0.12372,0.2731 0.19462,0.4022 -0.66537,0.5707 -1.26333,1.2778 -1.8876,1.9325 -0.77289,1.6802 -1.5895,2.9432 -2.20648,3.694 0.5259,0.2646 1.05552,0.5221 1.58146,0.7867 -2.94447,0.6386 -2.68482,0.5565 -1.58146,-0.7867 -0.27689,-0.1393 -0.55575,-0.2751 -0.83304,-0.4135 -0.31091,0.3626 -0.62475,0.7186 -0.93789,1.0766 2.17919,1.0614 4.30802,2.2084 6.3089,3.2435 -0.64448,1.2087 -1.14882,2.5878 -1.61678,4.0102 5.68449,5.5743 4.12379,10.0097 -5.14158,13.082 -0.99673,1.2328 -2.19786,2.2178 -3.80337,2.713 -1.48977,0.4595 -2.99338,0.7201 -4.50654,0.8483 -0.0996,0.5589 -0.26856,1.1235 -0.33702,1.68 -0.35168,-0.525 -0.63252,-1.1158 -0.95166,-1.6722 -9.71021,0.3066 -19.81389,-4.9219 -29.65914,-6.4694 -0.99977,-0.1571 -2.00719,-0.2722 -3.00894,-0.4188 -0.15924,0.5207 -0.2943,1.0487 -0.45746,1.5682 -0.006,0.017 -0.98376,-0.4668 -3.01778,-1.4731 -0.10812,-0.05 -0.21644,-0.1003 -0.31842,-0.1629 -0.007,0.011 -0.0234,0.022 -0.0305,0.033 -0.67365,-0.333 -1.00133,-0.4418 -1.62589,-0.7279 -8.8969,-1.2032 -17.81132,-2.3132 -26.56174,-4.2854 -21.43443,-4.8312 -50.93968,-13.6982 -72.47588,-22.4981 -2.19144,-0.895 -4.3197,-1.9296 -6.46573,-2.9282 -2.64262,5.305 -4.9397,10.8856 -9.1674,14.9277 -0.61338,0.5865 -8.55399,-3.8638 -9.94585,-4.2397 -2.75522,-0.7437 -6.35276,-1.6129 -10.32237,-2.5349 0.26937,0.3418 0.48211,0.7312 0.62088,1.1874 1.5e-4,0.011 0.005,0.014 0.007,0.026 2.5065,0.9898 8.01471,0.8385 6.96678,3.1803 -1.46925,3.2829 -3.53748,6.4314 -6.01568,9.2027 -0.44237,3.8171 -1.48922,7.5766 -3.06256,10.9454 -1.11896,2.3962 -4.80829,-2.1339 -7.23203,-3.2535 -3.37011,1.3884 -6.72014,-2.8117 -10.07431,-4.599 -1.87785,-0.8535 -3.75491,-1.7121 -5.73959,-2.6139 -7.3277,0.5171 -14.67884,-4.5562 -22.00744,-6.403 -31.3273,-7.8952 -12.5668,-3.7893 -43.75798,-9.9037 3.6639,-4.7047 0.18,-4.2133 -4.32229,-3.0573 -0.0748,0.2812 -0.12495,0.5683 -0.20367,0.8485 -0.18165,0.6464 -1.34234,0.041 -2.01351,0.053 -0.89201,0.016 -2.3514,0.6891 -2.99308,0.4064 -2.98846,0.6911 -5.45477,0.9584 -5.38619,-0.6958 0.0379,-0.9147 0.18875,-1.8196 0.28303,-2.7296 -0.48554,-0.2525 -0.93115,-0.4997 -1.72255,-0.798 -1.65129,-0.6223 -3.24839,-1.3814 -4.87074,-2.078 -0.22638,0.4868 -0.45306,0.9703 -0.67925,1.4569 -0.73472,1.594 -1.27375,3.3418 -1.8512,5.0598 -0.32062,1.6286 -0.62363,3.2835 -1.4448,4.2104 -2.22969,7.4532 -4.27632,15.0526 -10.11262,19.6581 -1.1439,2.469 -2.28777,4.938 -3.43191,7.4078 L 717.34945,1835.3786 1147.478,906.95298 Z m -45.19674,603.6252 c -1.2111,1.51958 -2.6677,3.07877 -6.16181,6.7629 -1.56132,1.64623 -3.40164,3.01695 -4.92838,4.6953 -5.98333,6.57748 -2.05315,3.06899 -6.30395,8.56115 -1.38017,1.78322 -2.85478,3.49225 -4.30724,5.2177 -1.2891,3.77183 -2.58555,7.54242 -3.71506,11.3642 -1.14772,3.88338 -1.9815,7.85088 -2.97222,11.77724 -1.21312,6.44611 -1.1515,7.7826 -3.7745,14.17803 -0.62774,1.53058 -1.70968,2.84644 -2.36295,4.36629 -0.37869,0.88094 -0.20659,1.90519 -0.33083,2.856 -0.0128,0.0982 -0.0248,0.19652 -0.0375,0.29473 1.24904,-2.69246 2.4939,-5.38685 3.74661,-8.07772 3.91587,-8.45216 7.69072,-16.97419 11.84556,-25.31291 -0.0363,0.0347 -0.0454,0.0947 -0.089,0.12236 -0.14666,0.0932 0.1666,-0.30642 0.24934,-0.45921 -0.0556,0.11123 -0.10496,0.22548 -0.16036,0.33685 0.29563,-0.28272 0.39818,-0.7487 0.56652,-1.13454 1.23664,-2.83491 1.93428,-5.85181 3.23619,-8.66721 2.12705,-4.33822 1.95861,-4.40045 5.34101,-8.94053 0.99703,-1.33831 2.5554,-2.20428 3.50414,-3.57714 0.91099,-1.31827 1.13504,-3.02849 2.02055,-4.36133 z m 8.84726,39.29732 c -0.01,-0.0619 -0.0314,-0.065 -0.071,0.0231 -0.27593,0.61368 -0.51111,1.24566 -0.7542,1.87417 0.26249,-0.23868 0.52537,-0.4769 0.78786,-0.71557 -0.009,-0.28968 0.0665,-0.99588 0.0373,-1.18169 z m -106.50291,-42.14342 c -2.90623,-0.94933 -5.6785,-2.17134 -8.29498,-3.67721 -0.12318,4.65472 -0.29488,9.3085 -0.44368,13.96252 1.60393,1.54144 3.05052,3.05046 4.22664,4.50892 2.29165,-2.07864 4.58298,-4.15806 6.88116,-6.22944 0.90578,-1.9575 1.81429,-3.91374 2.72006,-5.87122 -1.74045,-0.7909 -3.43576,-1.69446 -5.0892,-2.69357 z m 98.98666,55.91391 c -0.0515,0.0402 -0.11581,0.0687 -0.16536,0.11066 -0.11893,0.10067 -0.40282,0.47497 -0.29054,0.36695 0.15857,-0.15258 0.30535,-0.31709 0.4559,-0.47761 z m -153.18003,-40.65859 c -0.4427,-0.0993 -0.7409,-0.15149 -0.4594,-0.0213 0.007,0.003 0.0154,0.005 0.0221,0.008 0.12118,0.0267 0.29947,-0.0182 0.43732,0.0132 z m -0.43732,-0.0132 c -1.64293,-0.36121 -1.89974,-0.37436 -5.92536,-0.16855 -6.30674,0.32242 -12.50759,1.33574 -18.71054,2.32901 0.91402,0.668 1.77666,1.40222 2.51363,2.30108 2.28198,2.78315 -2.17228,6.67814 -3.98782,9.98292 -0.10808,0.47541 -0.17397,0.87051 -0.31222,1.39874 -0.18099,0.69159 -0.25452,1.00072 -0.42046,1.63701 0.83924,-0.64165 1.66957,-1.29218 2.57287,-1.86901 1.93709,-1.2369 4.05729,-2.5468 6.35151,-2.6841 0.66269,-0.0399 1.35802,-0.0673 2.05178,-0.0892 1.64842,-2.61 2.73861,-7.42396 5.32694,-6.36399 0.78297,0.32064 1.27478,0.57692 1.99511,0.88342 1.44685,-0.0422 3.1291,0.68365 5.20706,2.3091 0.29108,0.14037 0.46311,0.25864 0.73975,0.3965 1.31917,-2.94899 2.70601,-5.87611 3.86085,-8.8772 0.004,-0.0103 0.14498,-0.52892 0.16483,-0.59739 -0.47207,-0.19974 -0.97777,-0.38146 -1.42794,-0.58836 z m -46.39703,5.07584 c -3.385,0.54804 -6.78765,1.33939 -10.10694,2.28751 0.0219,0.0212 0.0501,0.0221 0.072,0.0444 2.14415,1.74014 3.89867,3.87023 5.42435,6.19825 0.72833,-1.41723 1.43524,-2.84616 2.17485,-4.25761 0.633,-1.20814 1.39188,-2.34528 2.15702,-3.47578 0.0859,-0.27011 0.19018,-0.52587 0.27783,-0.79474 z m -13.67178,3.30086 c -0.47001,0.16082 -0.91906,0.22312 -1.39333,0.3963 -17.17936,6.27371 4.24415,-0.12564 -17.66409,7.12325 -1.98213,0.65584 -4.06009,0.97941 -6.08979,1.46872 -2.11178,-0.27411 -4.35492,-0.16648 -6.5405,-0.22539 -0.99539,0.94679 -1.93388,1.954 -2.84889,2.9852 6.84511,-1.86791 13.87488,-3.08212 20.93236,-3.92354 0.54032,-0.72559 1.08573,-1.4659 1.60942,-2.1776 0.82841,-1.12576 3.18613,-1.13721 4.18957,-0.16415 0.52419,0.50835 1.0242,1.03789 1.5048,1.58402 0.15879,-0.0102 0.52182,0.0391 0.6939,0.0308 0.40552,-0.49224 0.83672,-0.96398 1.23486,-1.46206 0.69947,-1.14318 2.49792,-3.94736 4.37169,-5.6356 z m -26.27597,-11.76006 -0.4376,0.94456 c 2.14689,0.90205 2.21939,0.88229 0.4376,-0.94456 z m -12.08297,63.96169 c -0.47736,-0.0612 -0.92202,-0.1621 -1.41278,-0.22613 -0.26887,0.0797 -2.81751,0.8245 -2.85618,0.83579 -5.90344,2.31242 -6.9017,2.99195 -8.88567,-0.36253 -1.84328,0.55431 -3.56839,0.89289 -4.54684,0.0804 l -116.51131,251.48783 95.77905,44.3733 c 2.25015,-4.8569 4.50109,-9.7135 6.75227,-14.57 0.17221,-0.7335 0.46933,-1.4427 0.77304,-2.1517 2.60234,-8.0617 5.28309,-16.0946 8.44064,-23.9478 8.80981,-21.9126 15.90433,-37.3142 23.28458,-52.3921 1.16978,-3.3227 2.35908,-6.6383 3.52794,-9.9613 -0.14079,-0.041 -0.27765,-0.1044 -0.40139,-0.2069 -0.16829,-0.1408 -0.32125,-0.2972 -0.48676,-0.4408 -3.41826,7.2865 -6.8601,14.562 -10.18401,21.8938 -9.58665,14.2479 -12.95661,15.6903 -24.31211,-6.149 -0.88079,-1.694 1.45312,-3.5318 2.26288,-5.2608 0.61098,-1.3045 2.89048,-5.9884 4.68366,-9.71 -0.46859,-0.2612 -0.86623,-0.526 -1.26263,-0.7593 -0.79798,1.6442 -1.54663,3.3122 -2.36668,4.9457 -2.03774,4.0594 -4.22895,9.0254 -7.08782,12.6646 -0.43593,1.393 -1.12555,2.3733 -2.36229,2.4831 -4.67535,4.0344 -11.04778,4.0365 -20.69828,-6.692 -3.71789,1.6002 -7.97717,2.5168 -10.19026,-0.097 -14.98583,-17.7174 -1.95404,-18.7627 1.90965,-30.0108 0.98617,-2.8715 0.62346,-6.0396 0.93589,-9.0592 0.31563,-16.794 0.0943,-11.5476 5.98977,-34.3759 -0.0511,-0.4305 -0.0442,-0.8757 0.0205,-1.3359 -0.0939,-0.093 -0.17491,-0.1636 -0.26986,-0.2584 -2.04481,-2.0337 0.73243,-5.0942 2.6872,-7.9701 1.9543,-8.10301 3.77518,-16.26196 6.59851,-24.09745 7.4489,-20.67355 18.96906,-45.60208 29.68896,-65.52815 2.35838,-4.38375 5.17689,-8.50551 7.76578,-12.75723 1.18201,-0.22783 2.41053,-0.67129 3.65016,-1.16966 1.36957,-2.93003 2.81878,-5.81766 4.22976,-8.72564 1.61523,-3.51738 3.23024,-7.03476 4.85446,-10.54797 z m 289.59135,199.27677 c -9.40301,-4.3442 -18.80319,-8.6948 -28.20121,-13.0499 -15.62859,-7.2412 -31.25758,-14.4818 -46.88647,-21.7219 1.17661,0.7728 2.35177,1.5492 3.52959,2.3197 6.01587,2.7873 12.03166,5.5751 18.04785,8.3613 19.70325,9.1283 39.40604,18.2571 59.10918,27.3846 -0.52268,-0.488 -1.068,-0.9475 -1.5904,-1.4364 -1.33627,-0.619 -2.67238,-1.2381 -4.00866,-1.8572 z m -207.70508,-85.72505 c -0.78908,1.70231 -1.5771,3.40511 -2.3662,5.10741 0.57139,-0.23916 1.21984,-0.37794 1.85499,-0.53323 0.10648,-0.28218 0.19425,-0.51374 0.30455,-0.80605 0.0308,-1.28534 0.13684,-2.51278 0.20666,-3.76813 z m -30.05819,-13.72965 c -2.59598,3.89069 -4.82142,7.21718 -7.82226,11.71294 -1.67691,3.92799 -4.02816,7.42046 -6.5651,10.79286 0.0684,0.044 0.14208,0.09 0.21119,0.1342 3.46886,-4.66069 5.72309,-8.02167 10.73188,-15.38678 0.35494,-0.22097 0.69426,-0.55101 1.03811,-0.85151 0.48718,-1.06585 0.97473,-2.13153 1.46191,-3.19738 0.31444,-1.06521 0.62875,-2.1308 0.94433,-3.20452 z m -58.10019,-20.06556 c -0.24586,0.43054 -0.5152,0.86122 -0.75757,1.29138 0.19507,0.13336 0.42513,-0.12011 0.69466,-1.058 0.0284,-0.0986 0.0348,-0.13562 0.0629,-0.23337 z m 481.83914,242.61836 c -2.54845,0.347 -5.02728,1.0348 -7.49239,1.7875 -0.0826,0.051 -0.10488,0.1259 -0.26118,0.1502 -0.0712,0.011 -0.13195,-0.01 -0.19947,-0.011 -0.79335,0.2461 -1.59183,0.469 -2.38323,0.7256 0.44724,0.2182 1.2666,0.6717 1.9428,1.0336 3.42755,-1.0385 11.48473,-4.1077 8.39355,-3.6862 z m -10.33635,2.6526 c -2.56253,-1.2489 -2.05102,-0.6342 -0.73408,0.2325 0.24415,-0.079 0.48971,-0.1533 0.73408,-0.2325 z m -427.95283,-202.7988 c -0.0158,0.027 -0.0315,0.054 -0.0486,0.081 0.056,0.026 0.11178,0.052 0.17255,0.069 0.012,-0.017 0.0246,-0.032 0.0372,-0.048 -0.0516,-0.035 -0.10836,-0.072 -0.1614,-0.1023 z m 0.373,0.2357 c -0.005,0.01 -0.008,0.01 -0.0122,0.012 0.0389,0.018 0.078,0.036 0.11697,0.054 -0.0324,-0.026 -0.0711,-0.045 -0.10492,-0.066 z m -0.0143,0.016 c -0.0772,-0.036 -0.15627,-0.073 -0.23636,-0.098 -0.30705,0.4077 -0.61475,0.8149 -0.92663,1.2196 0.0807,0.037 0.16182,0.075 0.24279,0.1125 0.31966,-0.4244 0.62352,-0.8346 0.92012,-1.2334 z m -53.35687,-23.58079 c -4.85116,11.04148 -9.59378,22.18209 -17.43786,31.45059 -1.02308,1.4376 -1.93563,2.7975 -2.82214,4.089 -0.28396,1.9233 -0.74292,3.5852 -1.94655,4.1459 -2.45532,9.8541 -4.64275,18.884 -5.05748,21.0918 -0.43439,2.3126 -0.46915,4.6699 -0.47104,7.0336 2.51597,-5.863 5.49279,-12.4647 8.01647,-17.9493 -0.0684,-0.3289 -0.1158,-0.6431 -0.19967,-0.9814 0.63941,-0.9448 1.31273,-1.8661 1.95859,-2.8059 2.34658,-5.0602 5.03621,-10.8777 8.28374,-17.8384 -0.61535,-0.3589 -1.26277,-0.6666 -1.85959,-1.0552 -1.20825,-0.7859 0.0186,-2.2695 1.71472,-3.8917 0.0396,-0.067 0.12302,-0.1447 0.15282,-0.209 0.77578,-1.6793 2.06196,-4.45201 3.03353,-6.55261 0.006,-0.0127 0.0139,-0.0299 0.0198,-0.0426 1.78503,-3.85773 3.50568,-7.56863 5.5664,-12.01975 0.45538,-1.95158 0.58053,-2.45688 1.04832,-4.46509 z m 85.53312,40.70699 c -4.82866,10.4154 -9.65468,20.8323 -14.48164,31.2489 -0.88602,3.7882 -1.79866,7.57 -2.73955,11.3447 3.76684,-8.1164 7.53427,-16.2324 11.29481,-24.3518 0.93969,-4.5249 2.59273,-8.9402 4.75328,-12.9455 0.22687,-0.4204 0.53,-0.6353 0.88578,-0.7132 0.0647,-1.5685 0.1682,-3.0853 0.28721,-4.5832 z m 296.39206,167.0115 c -0.12213,0.065 -0.24323,0.1335 -0.36547,0.1988 -0.0389,0.11 -0.23961,0.7645 -0.2867,0.9069 0.22935,0.3582 0.46457,0.7094 0.69336,1.0681 -0.004,-1.0546 -0.0133,-1.7905 -0.0412,-2.1738 z M -622.71505,1085.947 c -0.8349,0.4141 -1.66757,0.8166 -2.52222,1.1928 -1.11454,2.9673 -2.22017,5.85 -3.45602,8.3286 0.23142,0.2828 0.37619,0.5899 0.50834,0.9007 1.49258,-3.5952 3.57594,-6.9739 5.4699,-10.4221 z m -8.58952,19.3348 c -3.00571,5.9885 -6.95297,13.855 -6.95682,13.8639 -0.67416,1.5789 -0.97479,2.3858 -1.57642,3.8116 1.0967,-2.2573 2.14838,-4.5331 3.25207,-6.7872 1.72457,-3.5224 3.46025,-7.042 5.18511,-10.5647 0.004,-0.017 0.009,-0.042 0.0132,-0.061 0.024,-0.088 0.059,-0.1738 0.083,-0.263 z m 199.17958,106.6501 c -0.0844,-0.039 -0.52699,-0.2199 -0.63516,-0.2645 -0.0535,0.1409 -0.12193,0.2774 -0.1745,0.4185 1.36807,0.1728 1.71763,0.2305 0.80984,-0.1544 z" /></clipPath><filter
       inkscape:label="Opacity"
       style="color-interpolation-filters:sRGB;"
       id="filter7228"
       x="-7.6264847e-09"
       y="-9.1031224e-10"
       width="1"
       height="1"><feColorMatrix
         values="1 0 0 0 0 0 1 0 0 0 0 0 1 0 0 0 0 0 9.3 -1 "
         result="colormatrix"
         id="feColorMatrix7224" /><feComposite
         in2="colormatrix"
         operator="arithmetic"
         k2="0.9"
         result="fbSourceGraphic"
         id="feComposite7226"
         k1="0"
         k3="0"
         k4="0" /><feColorMatrix
         result="fbSourceGraphicAlpha"
         in="fbSourceGraphic"
         values="0 0 0 -1 0 0 0 0 -1 0 0 0 0 -1 0 0 0 0 1 0"
         id="feColorMatrix7440" /><feColorMatrix
         id="feColorMatrix7442"
         values="1 0 0 0 0 0 1 0 0 0 0 0 1 0 0 0 0 0 9.3 -1 "
         result="colormatrix"
         in="fbSourceGraphic" /><feComposite
         in2="colormatrix"
         id="feComposite7444"
         operator="arithmetic"
         k2="0.8"
         result="composite"
         k1="0"
         k3="0"
         k4="0" /></filter><filter
       inkscape:label="Opacity"
       style="color-interpolation-filters:sRGB;"
       id="filter7468"
       x="-7.626538e-09"
       y="-9.1031224e-10"
       width="1"
       height="1"><feColorMatrix
         values="1 0 0 0 0 0 1 0 0 0 0 0 1 0 0 0 0 0 9.3 -1 "
         result="colormatrix"
         id="feColorMatrix7464" /><feComposite
         in2="colormatrix"
         operator="arithmetic"
         k2="0.8"
         result="composite"
         id="feComposite7466"
         k1="0"
         k3="0"
         k4="0" /></filter><filter
       inkscape:label="Opacity"
       style="color-interpolation-filters:sRGB;"
       id="filter7492"
       x="-7.626538e-09"
       y="-9.1031224e-10"
       width="1"
       height="1"><feColorMatrix
         values="1 0 0 0 0 0 1 0 0 0 0 0 1 0 0 0 0 0 9.3 -1 "
         result="colormatrix"
         id="feColorMatrix7488" /><feComposite
         in2="colormatrix"
         operator="arithmetic"
         k2="0.8"
         result="composite"
         id="feComposite7490"
         k1="0"
         k3="0"
         k4="0" /></filter><filter
       inkscape:label="Opacity"
       style="color-interpolation-filters:sRGB;"
       id="filter7516"
       x="-7.6265397e-09"
       y="-5.9323936e-10"
       width="1"
       height="1"><feColorMatrix
         values="1 0 0 0 0 0 1 0 0 0 0 0 1 0 0 0 0 0 9.3 -1 "
         result="colormatrix"
         id="feColorMatrix7512" /><feComposite
         in2="colormatrix"
         operator="arithmetic"
         k2="0.8"
         result="fbSourceGraphic"
         id="feComposite7514"
         k1="0"
         k3="0"
         k4="0" /><feColorMatrix
         result="fbSourceGraphicAlpha"
         in="fbSourceGraphic"
         values="0 0 0 -1 0 0 0 0 -1 0 0 0 0 -1 0 0 0 0 1 0"
         id="feColorMatrix7536" /><feColorMatrix
         id="feColorMatrix7538"
         values="1 0 0 0 0 0 1 0 0 0 0 0 1 0 0 0 0 0 9.3 -1 "
         result="colormatrix"
         in="fbSourceGraphic" /><feComposite
         in2="colormatrix"
         id="feComposite7540"
         operator="arithmetic"
         k2="0.9"
         result="fbSourceGraphic"
         k1="0"
         k3="0"
         k4="0" /><feColorMatrix
         result="fbSourceGraphicAlpha"
         in="fbSourceGraphic"
         values="0 0 0 -1 0 0 0 0 -1 0 0 0 0 -1 0 0 0 0 1 0"
         id="feColorMatrix7952" /><feColorMatrix
         id="feColorMatrix7954"
         values="1 0 0 0 0 0 1 0 0 0 0 0 1 0 0 0 0 0 19.1 -9.8 "
         result="colormatrix"
         in="fbSourceGraphic" /><feComposite
         in2="colormatrix"
         id="feComposite7956"
         operator="arithmetic"
         k2="0.8"
         result="composite"
         k1="0"
         k3="0"
         k4="0" /></filter><filter
       inkscape:label="Opacity"
       style="color-interpolation-filters:sRGB;"
       id="filter7564"
       x="-7.6265397e-09"
       y="-5.9323936e-10"
       width="1"
       height="1"><feColorMatrix
         values="1 0 0 0 0 0 1 0 0 0 0 0 1 0 0 0 0 0 9.3 -1 "
         result="colormatrix"
         id="feColorMatrix7560" /><feComposite
         in2="colormatrix"
         operator="arithmetic"
         k2="0.9"
         result="fbSourceGraphic"
         id="feComposite7562"
         k1="0"
         k3="0"
         k4="0" /><feColorMatrix
         result="fbSourceGraphicAlpha"
         in="fbSourceGraphic"
         values="0 0 0 -1 0 0 0 0 -1 0 0 0 0 -1 0 0 0 0 1 0"
         id="feColorMatrix7928" /><feColorMatrix
         id="feColorMatrix7930"
         values="1 0 0 0 0 0 1 0 0 0 0 0 1 0 0 0 0 0 19.1 -9.8 "
         result="colormatrix"
         in="fbSourceGraphic" /><feComposite
         in2="colormatrix"
         id="feComposite7932"
         operator="arithmetic"
         k2="0.8"
         result="composite"
         k1="0"
         k3="0"
         k4="0" /></filter><filter
       inkscape:label="Opacity"
       style="color-interpolation-filters:sRGB;"
       id="filter7588"
       x="-7.6265388e-09"
       y="-5.9323936e-10"
       width="1"
       height="1"><feColorMatrix
         values="1 0 0 0 0 0 1 0 0 0 0 0 1 0 0 0 0 0 9.3 -1 "
         result="colormatrix"
         id="feColorMatrix7584" /><feComposite
         in2="colormatrix"
         operator="arithmetic"
         k2="0.9"
         result="fbSourceGraphic"
         id="feComposite7586"
         k1="0"
         k3="0"
         k4="0" /><feColorMatrix
         result="fbSourceGraphicAlpha"
         in="fbSourceGraphic"
         values="0 0 0 -1 0 0 0 0 -1 0 0 0 0 -1 0 0 0 0 1 0"
         id="feColorMatrix7904" /><feColorMatrix
         id="feColorMatrix7906"
         values="1 0 0 0 0 0 1 0 0 0 0 0 1 0 0 0 0 0 19.1 -9.8 "
         result="colormatrix"
         in="fbSourceGraphic" /><feComposite
         in2="colormatrix"
         id="feComposite7908"
         operator="arithmetic"
         k2="0.8"
         result="composite"
         k1="0"
         k3="0"
         k4="0" /></filter><clipPath
       clipPathUnits="userSpaceOnUse"
       id="clipPath8605"><path
         id="path8607"
         style="fill:#ff0000;fill-opacity:1;fill-rule:nonzero;stroke:none"
         d="m 686.58535,1294.1067 -454.20714,454.0549 366.8827,367.0057 c 4.93582,-4.6721 9.77422,-9.4354 13.94847,-14.8524 6.56953,-8.5254 13.94762,-9.3263 18.15928,-5.8913 1.85045,-1.8498 3.70084,-3.6996 5.55144,-5.5496 0.0346,-0.035 0.0693,-0.069 0.1036,-0.1036 -2.14663,-4.2374 -1.14194,-10.7446 5.34763,-17.232 l 17.78979,-17.7838 8.14,-8.1373 15.28269,-15.2775 13.63067,-13.6261 9.08342,-9.0804 13.01599,-13.0116 6.03766,-6.0357 3.0651,-3.064 c 7.73528,-7.7327 15.50867,-7.692 19.41429,-3.7851 3.90561,3.907 3.94373,11.6804 -3.79155,19.413 l -2.34268,2.3419 c 0.56534,1.4392 0.91722,3.0001 0.77679,4.7414 3.00222,-0.1857 5.63712,0.6389 7.41039,2.4126 3.90564,3.9069 3.94375,11.6803 -3.79154,19.413 l -12.63613,12.6319 c 3.36333,2.0375 5.52702,3.1554 6.40472,3.9896 0.9736,0.9256 0.45414,1.7228 -1.18968,3.4041 0.008,0.01 0.0163,0.019 0.0233,0.029 0.48971,0.618 -1.2219,1.0347 -1.64377,1.7012 -2.15224,3.4002 -4.02078,6.9727 -6.04664,10.4496 -1.76149,3.0233 -2.6054,4.4802 -3.62501,6.2362 1.02265,1.0832 2.03922,2.1712 3.03508,3.2792 1.52198,1.2438 3.02589,2.5074 4.53477,3.7656 1.57797,0.222 3.15268,1.7287 5.15898,4.3374 3.39837,3.0586 6.36389,6.6464 8.76798,10.4672 0.42431,0.6745 -0.0747,1.2539 -0.83722,1.8035 -0.0868,0.1278 -0.21866,0.2511 -0.35897,0.373 3.85339,2.4941 7.58955,5.1652 11.01675,8.1971 0.27234,0.2409 -2.19443,2.6893 -2.84694,3.3348 0.15665,0.2922 -0.43145,0.5685 -0.8621,0.8477 -0.85026,0.8301 -1.71163,1.6488 -2.56753,2.4733 -1.45672,1.456 -2.98251,2.9815 -4.64806,4.6465 0.24674,0.8659 0.49454,1.7057 0.73701,2.6904 0.89633,1.1269 1.79361,2.2695 2.66212,3.2929 0.65953,0.777 -0.19201,1.4927 -1.50985,2.1888 0.23569,3.9048 -4.96376,6.5595 -7.82951,9.7546 1.76803,1.7629 4.28354,5.1921 7.55693,9.7364 l 391.37889,-391.2477 z m 37.07692,769.7389 c 0.0182,-0.045 0.002,-0.069 -0.0665,-0.055 -0.44388,0.086 -0.69468,0.5841 -1.07601,0.827 0.18067,-0.032 0.46742,-0.098 0.62011,-0.12 0.11403,-0.1762 0.4682,-0.5161 0.52201,-0.6519 z m -2.89037,7.2999 c -0.12938,-0.1209 -0.15688,-0.1306 -0.0207,0.021 0.009,-0.01 0.0134,-0.014 0.0207,-0.021 z" /></clipPath><clipPath
       clipPathUnits="userSpaceOnUse"
       id="clipPath8827"><path
         id="path8829"
         style="fill:#ff0000;fill-opacity:1;fill-rule:nonzero;stroke:none"
         d="M 1214.8164,-0.23046875 V 475.71484 h 65.5606 V 0.27539062 h -4.5508 -0.8614 c -0.463,0 -0.8461,-0.0812237 -1.1523,-0.21289062 -0.1104,-0.0020683 -0.2192,0.0080009 -0.3301,0.0058594 -0.6759,-0.02005783 -0.8853,-0.01880515 -1.5078,-0.19140625 -0.2011,-0.0116049 -0.4009,-0.0454191 -0.6016,-0.0664062 -1.2563,0.18627305 -2.5163,0.21328462 -3.7832,0.16992187 -1.7687,-0.03056824 -3.5377,-0.0062017 -5.3066,-0.0039063 -2.5232,-0.0022641 -5.0471,-0.0026139 -7.5703,-0.0019531 -1.7515,4.8167e-4 -3.5023,7.098e-5 -5.2539,0 -1.5264,2.329e-5 -3.0536,1.874e-5 -4.5801,0 -1.9344,-7.79e-6 -3.8683,-3.8e-7 -5.8027,0 -2.1239,3.04e-6 -4.2473,-3.64e-6 -6.3711,0 -0.3064,0.03784925 -0.562,-0.0853204 -0.8184,-0.20507812 h -5.5019 -4.8965 -3.4492 z" /></clipPath><clipPath
       clipPathUnits="userSpaceOnUse"
       id="clipPath8971"><path
         id="path8973"
         style="fill:#ff0000;fill-opacity:1;fill-rule:nonzero;stroke:none"
         d="m 1369.5469,-0.671875 c -0.5517,0.50600217 -1.2075,0.98587265 -0.9082,0.33789062 h -2.0078 -2.9278 -1.4629 -2.4121 -3.2871 -2.3965 -0.6465 -5.5664 -3.3007 -2.1993 -1.5703 -3.0976 -2.8262 -2.2832 -2.5156 -2.8086 c -1.2556,1.6e-6 -2.51,2.64e-6 -3.7656,0 -0.8668,4.46e-6 -1.733,4.516e-5 -2.5997,0 -0.4368,-8.034e-5 -0.8738,8.415e-5 -1.3105,0 -0.6714,-1.7106e-4 -1.3442,-0.001142 -2.0156,0.001953 -0.9064,0.004528 -1.8123,-0.009281 -2.7188,-0.007813 -1.4496,0.0134391 -2.9005,0.0525703 -4.3496,-0.005859 V 475.71484 h 65.5606 V -0.59375 c -0.2663,-8.871e-5 -0.5326,-2.7447e-4 -0.7989,0 -0.7923,0.001194 -1.5846,0.002075 -2.3769,-0.003906 -0.9654,-9.7e-5 -1.9302,0.0469421 -2.8946,-0.007813 -0.124,-0.0167757 -0.3397,-0.0300981 -0.5136,-0.066406 z" /></clipPath><clipPath
       clipPathUnits="userSpaceOnUse"
       id="clipPath9091"><path
         id="path9093"
         style="fill:#ff0000;fill-opacity:1;fill-rule:nonzero;stroke:none"
         d="m 1465.457,-2.1210938 c 0.1879,0.2383216 0.3795,0.4722497 0.6289,0.6386719 0.2084,0.1389907 -0.1281,-0.4105305 -0.3535,-0.6386719 z m -64.8242,1.80664068 V 475.71484 h 65.5606 V 0 c -0.6402,0.2160597 -1.3084,0.39983162 -1.9258,0.13671875 -0.2457,0.0114852 -0.5982,0.0132153 -0.6797,0.0117188 -0.2614,-0.05941629 -0.562,0.0557586 -0.8203,-0.005859 -0.2889,-0.06894827 -0.5717,-0.16261934 -0.8574,-0.24414062 -0.049,-0.0175663 -0.041,-0.0163459 -0.082,-0.03125 -0.093,0.005574 -0.2007,-0.0240295 -0.2929,-0.0175781 -0.8201,0.05740282 -0.3073,0.0288257 -1.5625,0.05078125 -1.3567,-5.9722e-4 -2.7137,-0.02138013 -4.0704,-0.01757813 -0.5244,0.004484 -1.0498,0.002243 -1.5742,0.001953 -0.9834,7.57e-5 -1.9658,7.062e-5 -2.9492,0 -1.3639,-9.302e-5 -2.7279,-8.48e-6 -4.0918,0 -1.0954,-4.56e-6 -2.1917,-7e-7 -3.2871,0 -1.2634,1.37e-6 -2.5257,1e-7 -3.7891,0 h -3.0097 -4.3223 -3.584 -3.4179 -4.086 -3.5605 -2.92 -3.9707 c 0.01,0.20889289 -0.2012,0.31757656 -0.7851,0.24414063 -0.3456,-0.04346194 -0.6777,-0.0874774 -0.9922,-0.24414063 h -0.668 -0.8242 c -0.1869,0 -0.283,-0.0770557 -0.4433,-0.1015625 h -1.6172 -4.5684 c -0.3042,10e-9 -0.5721,-0.0369026 -0.8086,-0.0976562 z" /></clipPath><clipPath
       clipPathUnits="userSpaceOnUse"
       id="clipPath9441"><path
         id="path9443"
         style="fill:#ff0000;fill-opacity:1;fill-rule:nonzero;stroke:none"
         d="M 1033.9273,1801.5914 579.74666,1347.2613 125.54087,1801.3149 365.6048,2041.4593 c -5.93579,-11.8745 -1.28391,-14.6492 6.2739,-14.4546 -0.75973,-0.7613 -1.52073,-1.521 -2.28117,-2.282 -1.05836,-1.0594 -4.2386,-2.173 -3.15394,-3.2045 2.81608,-2.6702 6.12095,-4.7139 9.53461,-6.615 1.80146,-3.1696 3.73775,-6.2339 6.21632,-8.882 0.98369,-1.0513 2.01138,2.0615 3.02965,3.0801 0.12874,0.1298 0.25706,0.2569 0.38524,0.3854 0.0304,-0.011 0.0453,-0.015 0.0757,-0.023 -0.024,0.01 -0.0431,0.023 -0.0636,0.035 1.6938,1.6944 3.38774,3.3889 5.08147,5.0832 1.5327,0.5868 2.54497,1.1902 1.97337,1.8496 -0.0223,0.023 -0.0387,0.039 -0.0622,0.062 4.06313,4.0645 8.11996,8.1368 12.18996,12.194 1.11782,1.1182 3.13422,3.1212 4.37336,4.3579 0.0396,0.016 0.0756,0.026 0.11617,0.041 0.53192,0.206 1.00896,0.4979 1.50799,0.7544 0.62803,-1.1212 1.29586,-2.2164 2.04175,-3.2479 -6.68249,-6.9092 1.47622,-7.1127 9.42679,-5.8832 -1.29758,-2.2825 -1.89995,-4.4684 -2.02491,-6.4872 -0.4657,-0.4647 -0.93747,-0.9208 -1.406,-1.381 -5.27773,-4.0482 -10.39209,-8.2841 -14.90508,-13.2111 -0.5091,-0.5375 -1.0592,-1.0793 -1.59736,-1.6205 -3.23557,-1.7626 -6.52389,-3.4914 -5.51631,-6.2033 -2.88914,-4.3271 -2.62945,-8.8014 7.91579,-13.5137 1.68316,-1.4903 3.2799,-2.0454 4.80779,-1.8982 0.024,-0.01 0.0389,-0.023 0.0594,-0.028 -0.0106,-0.6414 0.15174,-1.2026 0.24341,-1.7982 -0.10563,-0.076 -0.19973,-0.163 -0.30671,-0.2375 l 0.01,-0.01 c -17.8848,-12.5958 -2.93732,-30.8317 14.0525,-17.0525 1.73684,1.4085 3.45183,2.8531 5.16448,4.2987 0.0736,-0.059 0.19079,-0.043 0.27346,-0.088 l -0.25268,-0.2527 -0.11185,-0.1119 c -3.8663,-3.8676 0.0401,-7.7727 3.90636,-3.9051 l 0.11185,0.1119 1.73565,1.7362 5.60211,5.604 7.34327,7.3458 4.2847,4.2861 6.40023,6.4024 4.98066,4.9823 4.71971,4.7213 c 1.53812,1.5388 3.07646,3.0773 4.61472,4.6163 1.65068,1.6525 3.30305,3.3041 4.95444,4.9561 1.62317,1.6238 3.2455,3.247 4.87589,4.8633 2.37682,2.396 4.69967,4.8494 7.19573,7.1232 0.86883,0.8295 1.71079,1.6265 2.51449,2.4602 0.80377,0.8337 1.5697,1.7032 2.28662,2.6741 0.0992,0.1346 0.13316,0.3066 0.20017,0.4599 -0.0191,0.043 -0.0748,0.089 -0.0551,0.1301 0.0534,0.1043 0.1655,0.1655 0.2485,0.2485 l 2.06441,2.0651 7.69259,7.6952 c 1.44092,1.4413 1.80052,2.8873 1.48681,3.9349 0.13766,0.1377 0.26816,0.2824 0.40581,0.4201 1.44869,1.4831 1.77597,2.9566 1.4204,4.0039 1.77104,1.6023 3.73274,2.9928 5.45172,4.6606 0.31744,0.3034 0.62123,0.6218 0.9101,0.9571 2.02498,2.3326 1.66808,4.583 0.32367,5.3628 0.48559,0.7021 0.74666,1.4787 0.69426,2.3576 -0.0216,0.3614 -0.15878,0.6554 -0.36339,0.91 1.58853,1.5895 3.22445,3.1308 4.78723,4.745 1.20715,1.4305 0.98306,1.057 3.26289,3.322 5.34016,5.7847 4.24215,2.0652 -3.7814,0.013 -0.11858,-0.031 -0.32972,-0.025 -0.49023,-0.04 l 2.52699,2.5278 c 3.12717,0.8968 6.32084,1.6103 9.43775,2.5344 0.70905,0.6768 1.34044,1.4286 2.03364,2.1207 1.05966,0.074 2.181,0.3976 3.31718,0.8291 -0.36104,-2.5553 2.56394,-4.035 5.46789,-1.1301 l 2.36396,2.3647 0.30379,0.3039 c 0.90983,0.046 1.98045,0.5197 3.04913,1.5888 l 0.0939,0.094 1.94839,1.949 2.06016,2.0609 2.64845,2.6493 1.0812,1.0816 c 0.34808,0.1479 0.76412,0.2958 0.94462,0.4586 0.28308,0.2549 0.46815,0.5857 0.89337,1.17 0.11777,0.1885 0.21935,0.3888 0.3548,0.5649 l 0.27615,0.2763 c 0.64611,0.7326 1.55517,1.5316 2.13462,2.0915 2.12246,2.0496 0.43205,0.3996 2.75903,2.6878 1.66503,1.6797 3.33189,3.3584 5.00385,5.031 1.99767,1.9983 3.99576,3.9962 5.99286,5.9948 1.71451,1.7148 3.42931,3.4303 5.14362,5.1454 1.51175,1.5124 3.02259,3.0236 4.53469,4.5362 l 6.29382,6.2959 3.95334,3.9547 c 0.5359,-0.7286 0.93865,-1.4911 1.72804,-2.1528 6.42925,-6.0681 12.97735,-12.0095 18.40451,-19.0529 6.56593,-8.5204 13.93963,-9.3261 18.15242,-5.8983 1.85449,-1.8536 3.70883,-3.7072 5.56382,-5.562 0.0312,-0.031 0.0599,-0.06 0.0926,-0.092 -2.14076,-4.2377 -1.13197,-10.7413 5.35321,-17.2237 l 17.78976,-17.7838 8.13999,-8.1373 15.2827,-15.2776 13.63067,-13.6261 9.08342,-9.0803 13.01598,-13.0117 6.03767,-6.0356 3.0651,-3.0641 c 7.73511,-7.7328 15.50865,-7.6919 19.41429,-3.785 3.90564,3.9069 3.94375,11.6803 -3.79154,19.413 l -2.32888,2.3281 c 0.56198,1.4363 0.91017,2.9957 0.76983,4.7317 3.00226,-0.1856 5.63727,0.6388 7.41046,2.4126 3.90523,3.9062 3.94114,11.6804 -3.79433,19.413 l -12.64028,12.636 c 3.36874,2.041 5.5346,3.163 6.41307,3.998 0.97339,0.925 0.4553,1.7212 -1.1883,3.4027 0.008,0.01 0.0141,0.023 0.0205,0.032 0.48957,0.6179 -1.22203,1.0347 -1.64376,1.7012 -2.15224,3.4002 -4.02081,6.9724 -6.04672,10.4495 -1.76149,3.0233 -2.6055,4.4802 -3.62493,6.2363 1.02265,1.0832 2.03794,2.1725 3.03362,3.2806 1.52202,1.2438 3.02594,2.5074 4.53484,3.7656 1.57795,0.222 3.15396,1.7274 5.16029,4.336 2.71428,2.4431 5.13746,5.2308 7.23404,8.1978 z m -648.30545,207.9078 -0.0127,-0.013 c -2.35053,0.6251 -3.11756,1.1951 -2.97644,1.7356 1.00334,-0.5653 2.01778,-1.1163 2.98888,-1.7231 z m 338.04042,54.3464 c 0.0182,-0.045 0.002,-0.069 -0.0665,-0.055 -0.44388,0.086 -0.69469,0.5841 -1.07601,0.827 0.18067,-0.032 0.46742,-0.098 0.62011,-0.12 0.11403,-0.1762 0.4682,-0.5161 0.52201,-0.6519 z m -2.89037,7.2999 c -0.12938,-0.1209 -0.15738,-0.1337 -0.0207,0.021 0.009,-0.01 0.0134,-0.014 0.0207,-0.021 z m -102.80389,106.6716 c -0.33663,0.704 -0.64999,1.4181 -0.97538,2.1267 -0.0981,0.1617 -0.1421,0.2382 -0.21828,0.3646 0.0797,0.081 0.16056,0.1597 0.24024,0.2403 0.37088,0.3851 0.62059,0.6208 0.95281,0.9531 0.44767,0.3715 1.28342,0.7075 1.44853,1.1038 0.12899,-0.8908 0.36736,-1.7767 0.54733,-2.6654 -0.66881,-0.7044 -1.32778,-1.4174 -1.99517,-2.1232 z m 16.27334,23.3345 c -1.4772,-0.9655 -2.97218,-2.1197 -4.4671,-3.6564 -1.29067,-1.3265 -0.67206,-0.6865 -1.85018,-1.923 -1.17823,-0.9506 -6.78625,-5.8479 -8.03234,-7.3859 -1.25357,0.9187 -3.19909,2.0547 -6.06776,3.8011 2.7827,3.248 6.42869,6.1962 6.74202,10.3025 0.0143,0.1866 0.005,0.3481 0.0124,0.5262 0.12443,0.1242 0.24151,0.2557 0.36572,0.38 0.66766,1.2124 2.25844,3.7332 3.33564,6.2955 0.43238,0.1086 0.8649,0.2135 1.29671,0.322 z m -98.16962,-70.8721 c -0.9191,-0.819 -1.84923,-1.6227 -2.79486,-2.4036 -1.83808,-1.5179 -3.85007,-2.8114 -5.77487,-4.2159 -3.016,-2.2013 -5.12972,-4.5282 -6.50374,-6.8153 -0.41806,3.0763 -1.0409,6.129 -1.8135,9.1589 2.98625,7.1712 5.65351,14.4734 8.30068,21.7767 0.5749,1.5861 1.15629,3.2184 1.73244,4.8851 0.86325,0.7829 1.78561,1.5591 2.06014,2.6493 0.0863,0.3433 0.14684,0.592 0.23043,0.924 0.0714,0.056 0.0756,0.094 0.13376,0.1479 1.64513,-3.6407 3.079,-7.3961 5.01097,-10.8889 -2.07843,-1.8818 -4.70269,-3.7649 -3.99858,-6.1408 1.10124,-3.716 2.20879,-6.7127 3.41834,-9.0731 z M 426.62725,2025.5388 c -1.38474,-0.2965 -2.83928,-0.5907 -4.35436,-0.8252 0.65946,1.1604 1.53233,2.339 2.53778,3.5223 -0.3326,1.1222 -0.5766,2.7047 -0.7728,4.636 1.28167,1.0762 2.54791,2.1704 3.82639,3.2503 0.64043,-0.8483 1.30131,-1.7966 1.97953,-2.835 -0.99079,-0.9402 -1.98772,-1.8795 -2.97567,-2.8221 -0.77812,-0.743 -1.42394,-1.4866 -2.05604,-2.2307 0.44531,-1.5018 1.03327,-2.3364 1.81517,-2.6956 z m -2.58938,7.3331 c -0.65942,-0.5535 -1.30909,-1.1187 -1.96908,-1.6714 -2.45894,-0.9736 -5.62358,-4.9001 -7.37584,-2.9194 -0.65257,0.7372 -1.26576,1.5121 -1.84685,2.3157 1.39459,1.4417 3.31503,3.1202 6.15315,5.1993 1.89919,0.137 3.21639,0.1552 4.81854,0.2316 0.0683,-1.0883 0.12942,-2.2633 0.22008,-3.1558 z m 166.86879,182.1798 -0.01,0.01 0.01,0.01 c -0.009,-0.01 -0.0105,-0.01 0,-0.02 z m -0.004,0.021 c 0.0127,0.064 0.024,0.078 0.0346,0.1421 0.0156,0 0.0276,8e-4 0.041,0.011 -0.0226,-0.051 -0.0534,-0.1029 -0.0757,-0.1536 z m -59.12474,-58.6225 c -0.001,0.021 -0.007,0.051 -0.008,0.072 0.003,-0.024 0.006,-0.046 0.0113,-0.069 z M 389.85312,2019.5311 c -2.59308,2.8125 -4.81299,5.0337 -6.66793,6.6926 -0.32865,0.3284 -0.57626,0.6057 -0.92372,0.9545 0.0325,0.013 0.0488,0.012 0.0827,0.028 0.93741,0.4152 1.76081,0.9833 2.54227,1.6094 0.0346,0.011 0.0665,0.014 0.10253,0.019 1.24934,-0.1077 2.63569,-0.1408 4.15569,-0.1056 -0.15605,-3.8819 0.18028,-7.0086 0.70864,-9.1978 z M 586.445,2219.446 c -0.17222,-0.144 -0.33724,-0.2964 -0.51109,-0.4392 -1.29634,1.2962 -2.70828,2.4881 -4.08445,3.7159 0.47324,-0.2707 0.9607,-0.5547 1.44066,-0.8326 0.0214,-0.021 -0.008,-0.1195 0.0177,-0.098 0.0175,0.018 0.0377,0.037 0.0552,0.055 1.03912,-0.6023 2.10561,-1.2258 3.1975,-1.879 -0.0184,-0.168 -0.11209,-0.3593 -0.11588,-0.5222 z M 381.66472,2027.7554 c -0.12744,0.1274 -0.29915,0.2806 -0.43543,0.4041 0.23418,0.042 0.46611,0.077 0.70015,0.1204 -0.0664,-0.1471 -0.22309,-0.4037 -0.26507,-0.5249 z m 212.88488,213.075 c -2.29366,1.3478 -4.61142,2.6906 -6.97643,4.0413 -3.69612,2.1108 -7.48159,4.0598 -11.22358,6.0886 -0.24108,0.1307 -0.49828,0.3325 -0.76101,0.5564 l 4.13418,4.1356 z m -222.60382,-218.717 c -0.55738,-0.2024 -1.14455,0.5688 -1.78349,3.0809 0.62758,-1.0008 1.19832,-2.047 1.78349,-3.0809 z m 138.05802,142.4334 v 0 c -0.52953,-0.5304 -1.05963,-1.0594 -1.58938,-1.5899 -0.57917,1.5484 -1.24156,3.0591 -2.02817,4.4799 2.07493,2.1322 4.14399,4.2727 6.17642,6.4437 -0.34608,-1.584 -0.6791,-3.0109 -0.93985,-3.9984 -0.47389,-1.7974 -1.03291,-3.5722 -1.61626,-5.338 z m -15.89163,-10.2916 c -0.17539,0.1752 -0.34902,0.3494 -0.53332,0.519 0.18212,0.1822 0.37068,0.3566 0.55393,0.5371 -0.007,-0.3442 -0.0116,-0.728 -0.0205,-1.0565 z" /></clipPath><clipPath
       clipPathUnits="userSpaceOnUse"
       id="clipPath9451"><path
         id="path9453"
         style="fill:#ff0000;fill-opacity:1;fill-rule:nonzero;stroke:none"
         d="M 922.97934,1734.6034 468.80014,1280.2776 14.594328,1734.3311 380.60984,2100.4694 c 0.95611,-1.4907 2.3531,-2.8899 4.34417,-4.1466 8.41567,-5.3123 18.7002,5.9543 24.11162,10.6299 1.26723,0.6709 2.55356,1.3041 3.82384,1.9687 2.38551,-1.7429 5.22125,-3.6272 8.52204,-5.0063 -0.0816,-0.1863 -0.18746,-0.3622 -0.2609,-0.5511 -0.2225,-0.5722 0.20977,-0.2422 0.80513,0.3136 0.49784,-0.1958 1.01787,-0.3612 1.53579,-0.5301 -14.11014,-14.1361 -24.35296,-24.5221 -45.01907,-46.9072 -4.35033,-4.7127 -9.80017,-8.7259 -12.71582,-14.4385 -6.22283,-12.1916 -1.51465,-14.9937 6.122,-14.7971 -0.75973,-0.7612 -1.52074,-1.5209 -2.28117,-2.2819 -1.05858,-1.0599 -4.23931,-2.1732 -3.15394,-3.2045 2.81615,-2.6707 6.12094,-4.7137 9.53461,-6.6151 1.80146,-3.1696 3.73746,-6.233 6.21632,-8.882 0.98312,-1.0506 2.01137,2.0616 3.02965,3.0802 0.1286,0.1292 0.25713,0.2569 0.38523,0.3854 0.0304,-0.011 0.046,-0.016 0.0757,-0.023 -0.024,0.01 -0.0431,0.023 -0.0636,0.035 1.69388,1.6944 3.38775,3.3889 5.08148,5.0832 1.5327,0.5868 2.54602,1.191 1.97337,1.8495 -0.0223,0.023 -0.0387,0.039 -0.0622,0.062 4.06313,4.0645 8.12011,8.1369 12.18996,12.194 1.11782,1.1182 3.13416,3.1211 4.37336,4.3579 0.0396,0.016 0.0757,0.026 0.11618,0.041 0.53248,0.2049 1.00895,0.4978 1.50799,0.7543 0.62795,-1.1211 1.29579,-2.2163 2.04175,-3.2479 -6.68249,-6.9092 1.47579,-7.112 9.42679,-5.8832 -1.29766,-2.2824 -1.89996,-4.4683 -2.02492,-6.4871 -0.46491,-0.4648 -0.93747,-0.9209 -1.40599,-1.3811 -5.27773,-4.0482 -10.39209,-8.284 -14.90508,-13.211 -0.5091,-0.5375 -1.05921,-1.0794 -1.59737,-1.6205 -3.23549,-1.7627 -6.52389,-3.4914 -5.5163,-6.2033 -2.88915,-4.3271 -2.62946,-8.8015 7.91578,-13.5138 1.68324,-1.4905 3.27991,-2.0454 4.8078,-1.8982 0.024,-0.01 0.0389,-0.023 0.0594,-0.028 -0.0106,-0.6424 0.15195,-1.205 0.24333,-1.8008 -0.10464,-0.075 -0.19951,-0.1614 -0.30529,-0.2361 l 0.01,-0.01 c -17.88487,-12.5955 -2.93739,-30.8314 14.05243,-17.0525 1.73691,1.4088 3.4519,2.8531 5.16448,4.2988 0.0728,-0.059 0.18895,-0.044 0.2707,-0.088 l -0.25127,-0.2513 -0.11184,-0.1119 c -3.86631,-3.8676 0.0401,-7.7726 3.90636,-3.905 l 0.11184,0.1118 1.73566,1.7363 5.6021,5.604 7.34328,7.3457 4.2847,4.2861 6.40022,6.4024 4.98066,4.9823 4.71972,4.7213 c 1.53819,1.539 3.07631,3.0775 4.61472,4.6163 1.65068,1.6525 3.30305,3.3043 4.95443,4.9561 1.62325,1.6238 3.24543,3.2469 4.87589,4.8634 2.37668,2.3958 4.69968,4.849 7.19574,7.1232 0.86868,0.8293 1.71085,1.6265 2.51448,2.4601 0.80384,0.8338 1.56971,1.7032 2.28662,2.6741 0.0993,0.1347 0.13324,0.3066 0.20018,0.46 -0.0191,0.043 -0.0749,0.089 -0.0551,0.13 0.0534,0.1044 0.16558,0.1655 0.24851,0.2486 l 2.0644,2.0651 7.6926,7.6952 c 1.44084,1.4413 1.80045,2.8874 1.48681,3.9348 0.13765,0.1377 0.26823,0.2825 0.40581,0.4201 1.44868,1.4831 1.77611,2.9564 1.4204,4.004 1.77089,1.602 3.73288,2.9926 5.45172,4.6606 0.31744,0.3034 0.62151,0.622 0.9101,0.957 2.02497,2.3326 1.66814,4.5831 0.32366,5.3628 0.48588,0.702 0.74667,1.4786 0.69427,2.3576 -0.0216,0.363 -0.16006,0.6576 -0.36615,0.9128 1.58874,1.5893 3.22444,3.1308 4.78723,4.745 1.20708,1.4306 0.9832,1.0571 3.26288,3.322 5.34002,5.7848 4.23919,2.0623 -3.78415,0.01 -0.11999,-0.031 -0.33227,-0.025 -0.49575,-0.04 l 2.52558,2.5264 c 3.12986,0.8984 6.32756,1.6103 9.44744,2.536 0.70876,0.6764 1.34312,1.4256 2.03647,2.1177 1.05909,0.074 2.18001,0.397 3.31576,0.8278 -0.35737,-2.5528 2.56691,-4.0293 5.46924,-1.126 l 2.36396,2.3648 0.30379,0.3039 c 0.90982,0.046 1.98045,0.5197 3.04913,1.5887 l 0.0939,0.094 1.94839,1.9491 2.06016,2.0608 2.64845,2.6494 1.0812,1.0815 c 0.34815,0.148 0.76412,0.2959 0.94461,0.4587 0.28309,0.2549 0.46808,0.5856 0.89338,1.1699 0.11784,0.1886 0.21942,0.3889 0.3548,0.565 l 0.27615,0.2762 c 0.64617,0.7327 1.5551,1.5316 2.13462,2.0915 2.12253,2.0497 0.43204,0.3996 2.75903,2.6878 0.79119,0.7916 1.58288,1.5826 2.36664,2.3816 z m -537.35749,274.8958 -0.0127,-0.013 c -2.35053,0.6251 -3.11756,1.1951 -2.97644,1.7356 1.00334,-0.5653 2.01778,-1.1163 2.98888,-1.7231 z m 145.55327,116.7936 c -1.21982,-0.8833 -2.45669,-1.7451 -3.67312,-2.6328 -3.01565,-2.201 -5.12972,-4.5282 -6.50374,-6.8153 -0.41806,3.0763 -1.0409,6.129 -1.8135,9.1589 1.21213,2.911 2.36281,5.847 3.4898,8.7925 z m -104.54787,-100.754 c -1.38474,-0.2965 -2.83928,-0.5907 -4.35436,-0.8252 0.65946,1.1604 1.53233,2.339 2.53778,3.5223 -0.3326,1.1222 -0.5766,2.7047 -0.7728,4.636 1.28167,1.0762 2.54791,2.1704 3.82639,3.2503 0.64043,-0.8483 1.30131,-1.7966 1.97953,-2.835 -0.99079,-0.9402 -1.98772,-1.8795 -2.97567,-2.8221 -0.77812,-0.743 -1.42394,-1.4866 -2.05604,-2.2307 0.44531,-1.5018 1.03348,-2.3369 1.81517,-2.6956 z m -2.58938,7.3331 c -0.65942,-0.5535 -1.30909,-1.1187 -1.96908,-1.6714 -2.45894,-0.9736 -5.62358,-4.9001 -7.37584,-2.9194 -0.65257,0.7372 -1.26576,1.5121 -1.84685,2.3157 1.39459,1.4417 3.31503,3.1202 6.15315,5.1993 1.89919,0.137 3.2166,0.1557 4.81854,0.2316 0.0683,-1.0883 0.12942,-2.2633 0.22008,-3.1558 z m -34.18333,-13.3426 c -2.59308,2.8125 -4.81504,5.0321 -6.66787,6.6925 -0.32865,0.3284 -0.5742,0.6079 -0.92378,0.9545 0.0325,0.013 0.0488,0.012 0.0827,0.028 0.93749,0.4152 1.76025,0.9833 2.54235,1.6094 0.0346,0.011 0.0665,0.014 0.10253,0.019 1.24933,-0.1077 2.63562,-0.1407 4.15561,-0.1056 -0.15597,-3.8818 0.18043,-7.0088 0.70865,-9.1977 z m -8.18855,8.2239 c -0.12751,0.1275 -0.29986,0.28 -0.4355,0.4043 0.23426,0.042 0.46618,0.077 0.70023,0.1202 -0.0664,-0.147 -0.2231,-0.4036 -0.26508,-0.5248 z m -9.71901,-5.6418 c -0.55717,-0.2026 -1.14504,0.5686 -1.78342,3.0808 0.62709,-1.0009 1.19833,-2.047 1.78342,-3.0808 z m 122.16646,132.1417 c -0.1744,0.1743 -0.34675,0.3473 -0.53063,0.5163 0.18106,0.1811 0.36877,0.3547 0.55118,0.5344 -0.007,-0.3423 -0.0118,-0.7242 -0.0205,-1.051 z m -25.21028,34.2849 c -0.1704,-0.087 -0.34038,-0.1754 -0.51092,-0.2624 l 0.38659,0.3867 z" /></clipPath></defs><g
     inkscape:groupmode="layer"
     id="layer3"
     inkscape:label="layer 1"
     sodipodi:insensitive="true"><rect
       style="fill:#0a0a0a;fill-opacity:0.988235;fill-rule:evenodd;stroke:#232323;stroke-width:0;stroke-linejoin:round;stroke-opacity:1"
       id="rect925"
       width="1920"
       height="1080"
       x="0.078000501"
       y="0.0960005"
       ry="0.82061064"
       sodipodi:insensitive="true" /><path
       d="m 0.5,0.5 v 1080 m 10,-1080 v 1080 m 10,-1080 v 1080 m 10,-1080 v 1080 m 10,-1080 v 1080 m 10,-1080 v 1080 m 10,-1080 v 1080 m 10,-1080 v 1080 m 10,-1080 v 1080 m 10,-1080 v 1080 m 10,-1080 v 1080 m 10,-1080 v 1080 m 10,-1080 v 1080 m 10,-1080 v 1080 m 10,-1080 v 1080 m 10,-1080 v 1080 m 10,-1080 v 1080 m 10,-1080 v 1080 m 10,-1080 v 1080 m 10,-1080 v 1080 m 10,-1080 v 1080 m 10,-1080 v 1080 m 10,-1080 v 1080 m 10,-1080 v 1080 m 10,-1080 v 1080 m 10,-1080 v 1080 m 10,-1080 v 1080 m 10,-1080 v 1080 m 10,-1080 v 1080 m 10,-1080 v 1080 m 10,-1080 v 1080 m 10,-1080 v 1080 m 10,-1080 v 1080 m 10,-1080 v 1080 m 10,-1080 v 1080 m 10,-1080 v 1080 m 10,-1080 v 1080 m 10,-1080 v 1080 m 10,-1080 v 1080 m 10,-1080 v 1080 m 10,-1080 v 1080 m 10,-1080 v 1080 m 10,-1080 v 1080 m 10,-1080 v 1080 m 10,-1080 v 1080 m 10,-1080 v 1080 m 10,-1080 v 1080 m 10,-1080 v 1080 m 10,-1080 v 1080 m 10,-1080 v 1080 m 10,-1080 v 1080 m 10,-1080 v 1080 m 10,-1080 v 1080 m 10,-1080 v 1080 m 10,-1080 v 1080 m 10,-1080 v 1080 m 10,-1080 v 1080 m 10,-1080 v 1080 m 10,-1080 v 1080 m 10,-1080 v 1080 m 10,-1080 v 1080 m 10,-1080 v 1080 m 10,-1080 v 1080 m 10,-1080 v 1080 m 10,-1080 v 1080 m 10,-1080 v 1080 m 10,-1080 v 1080 m 10,-1080 v 1080 m 10,-1080 v 1080 m 10,-1080 v 1080 m 10,-1080 v 1080 m 10,-1080 v 1080 m 10,-1080 v 1080 m 10,-1080 v 1080 m 10,-1080 v 1080 m 10,-1080 v 1080 m 10,-1080 v 1080 m 10,-1080 v 1080 m 10,-1080 v 1080 m 10,-1080 v 1080 m 10,-1080 v 1080 m 10,-1080 v 1080 m 10,-1080 v 1080 m 10,-1080 v 1080 m 10,-1080 v 1080 m 10,-1080 v 1080 m 10,-1080 v 1080 m 10,-1080 v 1080 m 10,-1080 v 1080 m 10,-1080 v 1080 m 10,-1080 v 1080 m 10,-1080 v 1080 m 10,-1080 v 1080 m 10,-1080 v 1080 m 10,-1080 v 1080 m 10,-1080 v 1080 m 10,-1080 v 1080 m 10,-1080 v 1080 m 10,-1080 v 1080 m 10,-1080 v 1080 m 10,-1080 v 1080 m 10,-1080 v 1080 m 10,-1080 v 1080 m 10,-1080 v 1080 m 10,-1080 v 1080 m 10,-1080 v 1080 m 10,-1080 v 1080 m 10,-1080 v 1080 m 10,-1080 v 1080 m 10,-1080 v 1080 m 10,-1080 v 1080 m 10,-1080 v 1080 m 10,-1080 v 1080 m 10,-1080 v 1080 m 10,-1080 v 1080 m 10,-1080 v 1080 m 10,-1080 v 1080 m 10,-1080 v 1080 m 10,-1080 v 1080 m 10,-1080 v 1080 m 10,-1080 v 1080 m 10,-1080 v 1080 m 10,-1080 v 1080 m 10,-1080 v 1080 m 10,-1080 v 1080 m 10,-1080 v 1080 m 10,-1080 v 1080 m 10,-1080 v 1080 m 10,-1080 v 1080 m 10,-1080 v 1080 m 10,-1080 v 1080 m 10,-1080 v 1080 m 10,-1080 v 1080 m 10,-1080 v 1080 m 10,-1080 v 1080 m 10,-1080 v 1080 m 10,-1080 v 1080 m 10,-1080 v 1080 m 10,-1080 v 1080 m 10,-1080 v 1080 m 10,-1080 v 1080 m 10,-1080 v 1080 m 10,-1080 v 1080 m 10,-1080 v 1080 m 10,-1080 v 1080 m 10,-1080 v 1080 m 10,-1080 v 1080 m 10,-1080 v 1080 m 10,-1080 v 1080 m 10,-1080 v 1080 m 10,-1080 v 1080 m 10,-1080 v 1080 m 10,-1080 v 1080 m 10,-1080 v 1080 m 10,-1080 v 1080 m 10,-1080 v 1080 m 10,-1080 v 1080 m 10,-1080 v 1080 m 10,-1080 v 1080 m 10,-1080 v 1080 m 10,-1080 v 1080 m 10,-1080 v 1080 m 10,-1080 v 1080 m 10,-1080 v 1080 m 10,-1080 v 1080 m 10,-1080 v 1080 m 10,-1080 v 1080 m 10,-1080 v 1080 m 10,-1080 v 1080 m 10,-1080 v 1080 m 10,-1080 v 1080 m 10,-1080 v 1080 m 10,-1080 v 1080 m 10,-1080 v 1080 m 10,-1080 v 1080 m 10,-1080 v 1080 m 10,-1080 v 1080 m 10,-1080 v 1080 m 10,-1080 v 1080 m 10,-1080 v 1080 m 10,-1080 v 1080 m 10,-1080 v 1080 m 10,-1080 v 1080 m 10,-1080 v 1080 m 10,-1080 v 1080 m 10,-1080 v 1080 m 10,-1080 v 1080 m 10,-1080 v 1080 m 10,-1080 v 1080 m 10,-1080 v 1080 m 10,-1080 v 1080 m 10,-1080 v 1080 m 10,-1080 v 1080 M 0.5,0.5 h 1920 m -1920,10 h 1920 M 0.5,20.500001 h 1920 m -1920,10 h 1920 M 0.5,40.5 h 1920 m -1920,10 h 1920 m -1920,10 h 1920 m -1920,10 h 1920 m -1920,10 h 1920 m -1920,10 h 1920 m -1920,10 h 1920 m -1920,10 h 1920 m -1920,10 h 1920 m -1920,10 h 1920 m -1920,10 h 1920 m -1920,10 h 1920 m -1920,10 h 1920 m -1920,10 h 1920 m -1920,10 h 1920 m -1920,10 h 1920 m -1920,10 h 1920 m -1920,10 h 1920 m -1920,10 h 1920 m -1920,10 h 1920 m -1920,10 h 1920 m -1920,10 h 1920 m -1920,10 h 1920 m -1920,10 h 1920 m -1920,10 h 1920 m -1920,10 h 1920 m -1920,10 h 1920 m -1920,10 h 1920 m -1920,10 h 1920 m -1920,10 h 1920 m -1920,10 h 1920 m -1920,10 h 1920 m -1920,10 h 1920 m -1920,10 h 1920 m -1920,10 h 1920 m -1920,10 h 1920 m -1920,10 h 1920 m -1920,10 h 1920 m -1920,10 h 1920 m -1920,10 h 1920 m -1920,10 h 1920 m -1920,10 h 1920 m -1920,10 h 1920 m -1920,10 h 1920 m -1920,10 h 1920 m -1920,10 h 1920 m -1920,10 h 1920 m -1920,10 h 1920 m -1920,10 h 1920 m -1920,10 h 1920 m -1920,10 h 1920 m -1920,10 h 1920 m -1920,10 h 1920 m -1920,10 h 1920 m -1920,10 h 1920 m -1920,10 h 1920 m -1920,10 h 1920 m -1920,10 h 1920 m -1920,10 h 1920 m -1920,10 h 1920 m -1920,10 h 1920 m -1920,10 h 1920 m -1920,10 h 1920 m -1920,10 h 1920 m -1920,10 h 1920 m -1920,10 h 1920 m -1920,10 h 1920 m -1920,10 h 1920 m -1920,10 h 1920 m -1920,10 h 1920 m -1920,10 h 1920 m -1920,10 h 1920 m -1920,10 h 1920 m -1920,10 h 1920 m -1920,10 h 1920 m -1920,10 h 1920 m -1920,10 h 1920 m -1920,10 h 1920 m -1920,10 h 1920 m -1920,10 h 1920 m -1920,10 h 1920 m -1920,10 h 1920 m -1920,10 h 1920 m -1920,10 h 1920 m -1920,10 h 1920 m -1920,10 h 1920 m -1920,10 h 1920 m -1920,10 h 1920 m -1920,10 h 1920 m -1920,10 h 1920 m -1920,10 h 1920 m -1920,10 h 1920 m -1920,10 h 1920 m -1920,10 h 1920 m -1920,10 h 1920 m -1920,10 h 1920 m -1920,10 h 1920 m -1920,10 h 1920 m -1920,10 h 1920 m -1920,10 h 1920 m -1920,10 h 1920 m -1920,10 h 1920 m -1920,10 h 1920 m -1920,10 h 1920 m -1920,10 h 1920"
       style="fill:none;stroke:#1e1e1e;stroke-width:1px;stroke-opacity:0.929244"
       id="path1093"
       sodipodi:insensitive="true" /></g><g
     inkscape:groupmode="layer"
     id="layer1"
     inkscape:label="Layer 3"
     sodipodi:insensitive="true"><rect
       style="opacity:0.6;fill:#66bb6a;fill-opacity:1;fill-rule:evenodd;stroke:#232323;stroke-width:0;stroke-linejoin:round;stroke-opacity:1;filter:url(#filter7228)"
       id="rect5929"
       width="65.560997"
       height="549.26208"
       x="1214.8136"
       y="-73.547546"
       ry="0.81683302"
       clip-path="url(#clipPath8827)"
       sodipodi:insensitive="true" /><rect
       style="opacity:0.6;fill:#f44336;fill-opacity:0.96;fill-rule:evenodd;stroke:#232323;stroke-width:0;stroke-linejoin:round;stroke-opacity:1;filter:url(#filter7468)"
       id="rect5929-8"
       width="65.560539"
       height="549.26208"
       x="1310.5729"
       y="-73.547546"
       ry="0.81683302"
       clip-path="url(#clipPath8971)"
       sodipodi:insensitive="true" /><rect
       style="opacity:0.55;fill:#f44336;fill-opacity:1;fill-rule:evenodd;stroke:#232323;stroke-width:0;stroke-linejoin:round;stroke-opacity:1;filter:url(#filter7564)"
       id="rect5929-8-5"
       width="65.560539"
       height="842.83002"
       x="546.95575"
       y="1380.0406"
       ry="1.2534114"
       transform="rotate(-45.009606)"
       clip-path="url(#clipPath9441)"
       sodipodi:insensitive="true" /><rect
       style="opacity:0.55;fill:#66bb6a;fill-opacity:1;fill-rule:evenodd;stroke:#232323;stroke-width:0;stroke-linejoin:round;stroke-opacity:1;filter:url(#filter7588)"
       id="rect5929-8-5-2"
       width="65.560539"
       height="842.83002"
       x="436.00897"
       y="1313.0575"
       ry="1.2534114"
       transform="rotate(-45.009606)"
       clip-path="url(#clipPath9451)"
       sodipodi:insensitive="true" /><rect
       style="opacity:0.6;fill:#ba68c8;fill-opacity:1;fill-rule:evenodd;stroke:#232323;stroke-width:0;stroke-linejoin:round;stroke-opacity:1;filter:url(#filter7492)"
       id="rect5929-9"
       width="65.560539"
       height="549.26208"
       x="1400.6329"
       y="-73.547546"
       ry="0.81683302"
       clip-path="url(#clipPath9091)"
       sodipodi:insensitive="true" /><rect
       style="opacity:0.55;fill:#ba68c8;fill-opacity:1;fill-rule:evenodd;stroke:#232323;stroke-width:0;stroke-linejoin:round;stroke-opacity:1;filter:url(#filter7516)"
       id="rect5929-8-5-21"
       width="65.560539"
       height="842.83002"
       x="653.79364"
       y="1326.8877"
       ry="1.2534114"
       transform="rotate(-45.009606)"
       clip-path="url(#clipPath8605)"
       sodipodi:insensitive="true" /></g><g
     inkscape:groupmode="layer"
     id="layer2"
     inkscape:label="Layer 2"
     sodipodi:insensitive="true"><g
       id="g314"
       transform="translate(1170,300)"
       sodipodi:insensitive="true"><circle
         style="fill:#ffffff;fill-opacity:1;fill-rule:evenodd;stroke-width:0.267534;paint-order:markers fill stroke"
         id="path1760"
         cx="190"
         cy="190"
         r="190" /><g
         id="g2187"
         transform="matrix(2.8601829,0,0,2.8601829,139.09517,289.80363)"><g
           inkscape:label="Capa 1"
           id="layer1-3"
           transform="matrix(0.26458333,0,0,0.26458333,-49.02146,-103.23409)"><path
             style="fill:#3a8844;fill-opacity:1;stroke:none;stroke-width:0.891054px;stroke-linecap:butt;stroke-linejoin:miter;stroke-opacity:1"
             d="m 258.545,305.72638 c 0,0 59.94318,16.28098 80.53145,-17.74661 26.84382,-44.36655 7.15835,-67.43718 35.79175,-88.73313 35.79176,-26.61992 82.54388,13.75536 53.68764,70.9865 -26.84382,53.23986 -90.54804,79.59489 -125.27114,70.98649 -35.79176,-8.8733 -44.7397,-35.49325 -44.7397,-35.49325 z"
             id="path1067"
             sodipodi:nodetypes="cssssc" /><path
             style="fill:#3a8844;fill-opacity:1;stroke:none;stroke-width:0.891054px;stroke-linecap:butt;stroke-linejoin:miter;stroke-opacity:1"
             d="m 111.41581,145.91029 c 35.79176,0 17.89589,70.98651 35.79176,88.73312 l 17.89588,17.74662 c 0,0 -62.63557,8.87332 -80.531447,-44.36656 -12.771929,-35.66802 0,-62.11318 26.843807,-62.11318 z"
             id="path1182"
             sodipodi:nodetypes="ssccs" /><path
             id="path8219"
             style="fill:#bc4e48;fill-opacity:1;stroke:none;stroke-width:0.891054px;stroke-linecap:butt;stroke-linejoin:miter;stroke-opacity:1"
             d="m 257.39648,46.880859 c -5.09961,0.250168 -11.3324,3.317399 -11.76171,10.296875 0,0 -2.63869,14.123343 17.89648,26.619141 23.1953,14.114525 41.94132,1.745662 44.73828,-8.873047 2.79698,-10.618711 -4.41674,-13.910948 -8.94726,-13.310547 -0.98348,0.130334 -1.96456,0.646226 -2.94336,1.351563 0.0274,-6.57086 1.05118,-14.720728 -10.94141,-5.244141 -1.63333,1.290661 -3.41527,2.556085 -5.24023,3.572266 -4.93559,-12.639533 -8.73422,-6.4982 -12.24805,-0.828125 -1.96625,-3.662311 -2.33011,-10.208352 -4.95313,-12.28125 -1.19792,-0.9467 -3.2816,-1.416447 -5.59961,-1.302735 z" /><path
             style="fill:#4e965c;fill-opacity:1;stroke:none;stroke-width:0.891054px;stroke-linecap:butt;stroke-linejoin:miter;stroke-opacity:1"
             d="m 335.11429,447.60288 c 0,0 -121.30898,-26.52345 -166.04867,-106.38325 C 141.58224,292.16214 138.63054,83.827756 245.6349,92.670418 353.01017,101.54374 294.33675,243.61322 276.44088,314.5997 258.545,385.58618 335.11429,447.60288 335.11429,447.60288 Z"
             id="path937"
             sodipodi:nodetypes="csszc" /><path
             style="fill:#458161;fill-opacity:1;stroke:none;stroke-width:0.891054px;stroke-linecap:butt;stroke-linejoin:miter;stroke-opacity:1"
             d="m 79.586231,314.5997 c -26.843816,8.8733 -4.791924,57.36122 26.843819,88.7331 26.84381,26.61995 71.5835,44.36659 80.53144,26.61995 8.94794,-17.74661 -26.84382,-8.87332 -62.63556,-44.36657 -35.79176,-35.49323 -17.89588,-79.8598 -44.739699,-70.98648 z"
             id="path11663"
             sodipodi:nodetypes="zsssz" /><path
             style="fill:#adc3ad;fill-opacity:1;stroke:none;stroke-width:0.891054px;stroke-linecap:butt;stroke-linejoin:miter;stroke-opacity:1"
             d="m 428.55584,154.88009 c 22.01589,-7.41173 -3.10009,-36.77438 -20.99597,-54.521 -17.89588,-17.74662 -41.6396,-34.212119 -50.58755,-16.465496 -8.94793,17.746626 14.7958,16.465496 32.69167,34.212116 17.89588,17.74662 16.87595,44.18612 38.89185,36.77438 z"
             id="path14218"
             sodipodi:nodetypes="zsssz" /></g></g></g></g></svg>
